<?xml version="1.0" encoding="utf-8"?>
<!-- Generator: Adobe Illustrator 16.0.0, SVG Export Plug-In . SVG Version: 6.00 Build 0)  -->
<!DOCTYPE svg PUBLIC "-//W3C//DTD SVG 1.1//EN" "http://www.w3.org/Graphics/SVG/1.1/DTD/svg11.dtd">
<svg version="1.1" id="earth" xmlns="http://www.w3.org/2000/svg" xmlns:xlink="http://www.w3.org/1999/xlink" x="0px" y="0px"
	 width="730px" height="730px" viewBox="0 0 730 730" enable-background="new 0 0 730 730" xml:space="preserve">
<path fill="#FFFFFF" d="M78.7,377.5c12.2-0.1,22.1,9.7,22.2,21.9l0.2,36.699c0.1,12.2-9.7,22.101-21.9,22.2l0,0
	C67,458.4,57.1,448.6,57,436.4l-0.2-36.7C56.7,387.5,66.5,377.5,78.7,377.5L78.7,377.5z"/>
<path fill="#FFFFFF" d="M468.4,86l-1.5-0.3l0,0c1.3-5.9-1.301-11.6-5.9-12.6l-52.7-11.6c-4.6-1-9.3,3-10.6,8.9S399,82,403.6,83
	l1.5,0.3l0,0c-1.3,5.9,1.301,11.6,5.9,12.6l52.7,11.6c4.6,1,9.3-3,10.6-8.9C475.7,92.6,473,87,468.4,86z"/>
<path fill="#FFFFFF" d="M250.8,99.9c4.3,11.4-1.3,24.1-12.7,28.4l-34.3,13.1c-11.4,4.3-24.1-1.3-28.4-12.7l0,0
	c-4.3-11.4,1.3-24.1,12.7-28.4l34.3-13.1C233.8,82.8,246.5,88.5,250.8,99.9L250.8,99.9z"/>
<path fill="#FFFFFF" d="M600.7,186c-10.2,13-29.101,15.3-42.101,5l-39.3-30.9c-13-10.2-15.3-29.1-5-42.1l0,0
	c10.2-13,29.101-15.3,42.101-5l39.3,30.9C608.7,154.1,611,173,600.7,186L600.7,186z"/>
<path fill="#FFFFFF" d="M515.1,121.4c-2.6,6.7-10.1,10-16.8,7.4l-14-5.4c-6.7-2.6-10-10.1-7.399-16.8l0,0c2.6-6.7,10.1-10,16.8-7.4
	l14,5.4C514.4,107.2,517.7,114.7,515.1,121.4L515.1,121.4z"/>
<path fill="#1FB8A6" d="M271.2,600.8l-25.1-19.3l19.3-21.9c0,0,0.6-68.3,0-70.899c-0.6-2.601-41.5-34.8-41.5-34.8l-50,18L135.3,401
	l-35.1,2.2c16.7,120,112.9,214.5,233.6,228.8L299,597.5L271.2,600.8z"/>
<g>
	<path fill="#15BEF0" d="M447.2,130.8l-16,23.9l8.3,23.3h9l-2.7-23.3l25.5-48c-10.7-4.5-21.8-8.4-33.2-11.5l0.301,17.9L447.2,130.8z
		"/>
	<path fill="#15BEF0" d="M450.5,555l63.7-82.7L547,429l-7.2-56l-38.7-28.7l15-53.3L458.4,256.3l-85,52.7c0,0-82.3-34-82.3-36
		s16.1-106,16.1-106l-16.8-4.1l-1.3,21.6l-4.7,19.1l-15.3,1.3l-10.7-7.5l17.3-3.1l3.3-50.6l-37.3,7.4c0,0-46,57.1-46.3,59.1
		c-0.2,1.5-42.1,0.4-62.3-0.3c-28.9,43.8-45.7,96.2-45.7,152.6c0,13.1,0.9,26,2.7,38.7l36.3-2.3l40,73.3l51.8-18.7
		c0,0,42.2,33.3,42.9,36c0.7,2.7,0,73.3,0,73.3l-20,22.7l26,20l28.7-3.3l36.101,35.7c10.8,1.3,21.8,2,32.899,2
		c68.3,0,130.8-24.7,179.101-65.601l-42.2,9.3L450.5,555z"/>
	<path fill="#15BEF0" d="M569.8,197.5l14.7-4.2c-8.8-11.4-18.5-22.1-29-32.1l-8.5,23.4L569.8,197.5z"/>
	<path fill="#15BEF0" d="M571.8,232.3L540.5,209l-30.7,8l37.2,57.3l20.1,32.7l-23.5,56.8l8.801,9.2l7.3,15.3l24,6l24,18l29.1,4.7
		c3.5-17.6,5.3-35.8,5.3-54.4c0-60.4-19.3-116.3-52.1-161.9l-2.3,9.6L571.8,232.3z"/>
</g>
<path fill="#1FB8A6" d="M634.9,424l-29.101-4.7l-24-18l-24-6l-7.3-15.3l-8.8-9.2l23.5-56.8L545,281.3L507.8,224l30.7-8l31.3,23.3
	l16-22l2.3-9.6c-1.8-2.5-3.699-5.1-5.6-7.5l-14.7,4.2L545,191.6l8.5-23.4c-24.3-23-52.8-41.7-84.2-54.7l-25.5,47.8l2.7,22.8h-9
	l-8.3-22.8l16-23.4l-8.7-17.7l-0.3-18c-23.3-6.4-47.9-9.8-73.3-9.8c-96.8,0-182,49.6-231.7,124.8c20.2,0.7,62.1,1.8,62.3,0.3
	c0.3-2,46.3-59.1,46.3-59.1l37.3-7.4l-3.3,50.6l-17.3,3.1l10.7,7.5l15.3-1.3l4.7-19.1l1.3-21.6l16.8,4.1c0,0-16.1,104-16.1,106
	s82.3,36,82.3,36l85-52.7l57.7,34.7l-15,53.3l38.7,28.7l0.399,3.3L545,436l-32.8,43.3L448.5,562l51.3,28.7l42.2-9.3
	C588.9,541.7,622.5,486.6,634.9,424z"/>
<g>
	<path fill="#61C6AB" d="M636.9,417l-29.101-4.7l-24-18l-24-6l-7.3-15.3l-8.8-9.2l23.5-56.8L547,274.3L509.8,217l30.7-8l31.3,23.3
		l16-22l2.3-9.6c-1.8-2.5-3.699-5.1-5.6-7.5l-14.7,4.2L547,184.6l8.5-23.4c-24.3-23-52.8-41.7-84.2-54.7l-25.5,48.3l2.7,23.3h-9
		l-8.3-23.3l16-23.7l-8.7-17.9l-0.3-18c-23.3-6.4-47.9-9.8-73.3-9.8c-96.8,0-182,49.6-231.7,124.8c20.2,0.7,62.1,1.8,62.3,0.3
		c0.3-2,46.3-59.1,46.3-59.1l37.3-7.5l-3.3,50.6l-17.3,3.1l10.7,7.5l15.3-1.3l4.7-19.1l1.3-21.6l16.8,4.1c0,0-16.1,104-16.1,106
		s82.3,36,82.3,36l85-52.7l57.7,34.7l-15,53.3l38.7,28.7l7.199,56l-96.5,126l51.301,28.7L544.1,574.6
		C590.9,534.7,624.5,479.6,636.9,417z"/>
	<path fill="#61C6AB" d="M267.2,605.7l-26-20l20-22.7c0,0,0.7-70.7,0-73.3c-0.7-2.601-42.9-36-42.9-36l-51.8,18.7l-40-73.301
		L90.2,401.4C107.5,525.4,207,623.3,331.9,638L295.8,602.3L267.2,605.7z"/>
</g>
<path fill="#FFFFFF" d="M151.4,154.5c-4.4-4.2-10.6-4.8-13.8-1.4l-1,1.1c-4.4-4.2-10.6-4.8-13.8-1.4l-37,39.3
	c-3.2,3.4-2.2,9.6,2.2,13.7c4.4,4.2,10.6,4.8,13.8,1.4l1-1.1c4.4,4.2,10.6,4.8,13.8,1.4l37-39.3
	C156.8,164.8,155.9,158.7,151.4,154.5z"/>
<path fill="#FFFFFF" d="M605.7,97.4c-7.101,9-20.2,10.6-29.3,3.5L549.1,79.4c-9-7.1-10.6-20.2-3.5-29.3l0,0
	c7.101-9,20.2-10.6,29.301-3.5l27.3,21.5C611.2,75.3,612.8,88.4,605.7,97.4L605.7,97.4z"/>
<path fill="#90892D" d="M204.8,189L204.8,189l-3.1-13.3l-0.1-0.7c2.4-1.2,3.6-3.9,3-6.6c-0.6-2.7-2.9-4.5-5.6-4.5l-0.2-0.9l-3.2,0.7
	l0.4,1.6l0.7,2.8l1.3,5.4l0.7,2.8l3.1,13.3c0.1,0.6,0.5,1.2,1.2,1.4c0.9,0.2,1.8-0.2,2-1.1C204.9,189.5,204.9,189,204.8,189z
	 M200.9,172.3l-1.2-5.1l-0.1-0.6c1.4,0.2,2.2,1.2,2.5,2.4C202.3,170.2,202,171.4,200.9,172.3z"/>
<circle fill="#38A6A1" cx="190.4" cy="142.1" r="27.9"/>
<circle fill="#60B8B4" cx="195.8" cy="136.6" r="17.6"/>
<path fill="#7C832D" d="M188,195.4L188,195.4l-6.6-12.1l-0.3-0.7c2-1.8,2.4-4.8,1.1-7.2c-1.3-2.4-4-3.6-6.6-2.9l-0.5-0.8l-2.8,1.5
	l0.8,1.5l1.4,2.5l2.7,4.8l1.4,2.5l6.5,11.9c0.3,0.6,0.9,1,1.5,1c0.9,0,1.7-0.6,1.6-1.5C188.2,195.7,188.1,195.3,188,195.4z
	 M179.8,180.1l-2.5-4.6l-0.3-0.6c1.4-0.1,2.4,0.6,3,1.7S180.6,179,179.8,180.1z"/>
<circle fill="#4CBEA0" cx="162.4" cy="155.9" r="27.9"/>
<path fill="#90892D" d="M499.9,156L499.9,156l6.6-12.1l0.4-0.6c2.6,0.7,5.3-0.5,6.6-2.9s0.8-5.3-1.2-7.1l0.5-0.8L510,131l-0.8,1.5
	l-1.4,2.5l-2.6,4.8l-1.4,2.5l-6.5,12c-0.399,0.5-0.399,1.3,0,1.8c0.5,0.7,1.4,1.1,2.101,0.6C499.7,156.3,499.9,156,499.9,156z
	 M508.2,140.7l2.5-4.6l0.3-0.6c0.9,1.1,0.8,2.3,0.2,3.5C510.6,140.1,509.6,140.9,508.2,140.7z"/>
<circle fill="#4CBEA0" cx="519.1" cy="113" r="27.9"/>
<circle fill="#61C6AB" cx="162.2" cy="151.2" r="18.7"/>
<circle fill="#61C6AB" cx="516.2" cy="109.2" r="18.7"/>
<path fill="#9DD29C" d="M87.5,303"/>
<path fill="#FFFFFF" d="M532.1,86.4c-2.6,6.7-10.1,10-16.8,7.4l-14-5.4c-6.7-2.6-10-10.1-7.399-16.8l0,0c2.6-6.7,10.1-10,16.8-7.4
	l14,5.4C531.4,72.2,534.7,79.7,532.1,86.4L532.1,86.4z"/>
<path fill="#FFFFFF" d="M195.4,61.2c3.8,6.1,1.9,14.1-4.2,17.9L178.5,87c-6.1,3.8-14.1,1.9-17.9-4.2l0,0c-3.8-6.1-1.9-14.1,4.2-17.9
	l12.7-7.9C183.6,53.2,191.6,55.1,195.4,61.2L195.4,61.2z"/>
<path fill="#FFFFFF" d="M163.6,100.6c2.5,4,1.2,9.2-2.7,11.6l-8.3,5.1c-4,2.5-9.2,1.2-11.6-2.7l0,0c-2.5-4-1.2-9.2,2.7-11.6l8.3-5.1
	C156,95.4,161.2,96.6,163.6,100.6L163.6,100.6z"/>
<path fill="#FFFFFF" d="M132.4,540.9l-23.8-48.5c-2.1-4.2-8.2-5.4-13.6-2.801c-5.5,2.7-8.2,8.301-6.1,12.5l0.7,1.4
	c-5.5,2.7-8.2,8.3-6.1,12.5l23.8,48.5c2.1,4.2,8.2,5.4,13.6,2.8c5.5-2.7,8.2-8.3,6.1-12.5l-0.7-1.399
	C131.7,550.7,134.4,545.1,132.4,540.9z"/>
<path fill="#90892D" d="M146,451.9L146,451.9l-13.6-1.801l-0.7-0.1c-0.3-2.7-2.4-4.8-5.1-5.1c-2.7-0.301-5.2,1.199-6.2,3.699
	l-0.9-0.1l-0.4,3.2l1.7,0.2l2.8,0.399l5.5,0.7l2.8,0.4l13.5,1.699c0.6,0.101,1.3-0.1,1.7-0.699c0.5-0.7,0.4-1.7-0.3-2.2
	C146.4,451.9,146,451.8,146,451.9z M128.9,449.6l-5.2-0.699l-0.6-0.101c0.7-1.2,1.9-1.6,3.1-1.5
	C127.5,447.6,128.6,448.3,128.9,449.6z"/>
<circle fill="#38A6A1" cx="97" cy="448.9" r="27.9"/>
<circle fill="#60B8B4" cx="93.8" cy="441.9" r="17.6"/>
<path fill="#7C832D" d="M146.5,469.8L146.5,469.8l-13.9,1.9l-0.9,0.1c-1-2.5-3.7-4-6.4-3.6c-2.7,0.399-4.8,2.5-5.1,5.2l-1,0.1
	l0.4,3.2l1.7-0.2l2.8-0.4l5.5-0.8l2.8-0.399l13.5-1.9c0.6,0,1.2-0.4,1.5-1.1c0.3-0.801,0.3-1.801-0.6-2
	C146.6,469.7,146.5,469.7,146.5,469.8z M128.8,472.1l-5.2,0.7L123,473c0.4-1.4,1.4-2.1,2.6-2.2C126.9,470.6,128.1,470.9,128.8,472.1
	z"/>
<circle fill="#4CBEA0" cx="100.1" cy="479.9" r="27.9"/>
<circle fill="#61C6AB" cx="95.6" cy="478.5" r="18.7"/>
<path fill="#FFFFFF" d="M23,415.8c7-1.399,13.9,3.2,15.3,10.2l2.9,14.7c1.4,7-3.2,13.899-10.2,15.3l0,0c-7,1.4-13.9-3.2-15.3-10.2
	l-2.9-14.7C11.4,424.1,15.9,417.2,23,415.8L23,415.8z"/>
<path fill="#FFFFFF" d="M48.8,459.4c4.6-0.9,9,2.1,9.9,6.6l1.9,9.6c0.9,4.601-2.1,9-6.6,9.9l0,0c-4.6,0.9-9-2.1-9.9-6.6l-1.9-9.601
	C41.2,464.8,44.2,460.3,48.8,459.4L48.8,459.4z"/>
<path fill="#FFFFFF" d="M491.4,653.3c-6.301-10.399-3-23.899,7.399-30.2l31.4-19c10.399-6.3,23.899-3,30.2,7.4l0,0
	c6.3,10.4,3,23.9-7.4,30.2l-31.4,19C511.3,667,497.7,663.7,491.4,653.3L491.4,653.3z"/>
<path fill="#FFFFFF" d="M632.7,519.8c-5.101-3.3-11.3-2.8-13.8,1.101l-0.801,1.3c-5.1-3.3-11.3-2.8-13.8,1.1L574.9,568.6
	c-2.601,3.9-0.5,9.8,4.6,13.101c5.1,3.3,11.3,2.8,13.8-1.101l0.8-1.3l0,0c5.101,3.3,11.301,2.8,13.801-1.1l29.399-45.3
	C639.9,529,637.8,523.1,632.7,519.8z"/>
<path fill="#90892D" d="M520.7,558L520.7,558l5.5,12.2l0.3,0.5c-2.1,1.6-2.9,4.399-1.8,6.899c1.1,2.5,3.7,3.9,6.3,3.4l0.4,0.9l3-1.3
	l-0.7-1.5L532.6,576.5l-2.199-5.1L529.3,568.8l-5.5-12.5c-0.2-0.6-0.8-1.1-1.399-1.1c-0.9-0.1-1.7,0.8-1.801,1.7
	C520.5,557.3,520.6,558,520.7,558z M527.6,573.2l2.101,4.8l0.3,0.6c-1.4,0-2.3-0.8-2.9-2C526.6,575.4,526.6,574.2,527.6,573.2z"/>
<circle fill="#38A6A1" cx="543.3" cy="600.9" r="27.9"/>
<circle fill="#60B8B4" cx="538.9" cy="607.3" r="17.6"/>
<path fill="#7C832D" d="M535.9,547.8L535.9,547.8l8.8,10.9l0.5,0.7c-1.601,2.1-1.5,5.199,0.2,7.3c1.699,2.1,4.6,2.8,7.1,1.7l0.6,0.8
	l2.5-2l-1.1-1.3l-1.8-2.2l-3.5-4.3l-1.8-2.2L538.8,546.6c-0.399-0.5-1-0.8-1.7-0.699c-0.899,0.199-1.699,0.699-1.5,1.5
	C535.7,547.7,535.8,547.8,535.9,547.8z M547,561.7l3.3,4.1l0.4,0.5c-1.3,0.4-2.5-0.1-3.3-1.1C546.6,564.1,546.3,562.9,547,561.7z"/>
<circle fill="#4CBEA0" cx="568.4" cy="582.4" r="27.9"/>
<circle fill="#61C6AB" cx="569.4" cy="587" r="18.7"/>
<path fill="#FFFFFF" d="M552.9,681.5c-4.801-5.3-4.4-13.5,0.899-18.4L564.9,653c5.3-4.8,13.5-4.4,18.399,0.9l0,0
	c4.8,5.3,4.4,13.5-0.899,18.399L571.3,682.4C565.9,687.2,557.7,686.8,552.9,681.5L552.9,681.5z"/>
<path fill="#FFFFFF" d="M577.1,637c-3.1-3.5-2.899-8.8,0.601-11.9l7.2-6.5c3.5-3.1,8.8-2.899,11.899,0.601l0,0
	c3.101,3.5,2.9,8.8-0.6,11.899l-7.2,6.5C585.6,640.7,580.2,640.4,577.1,637L577.1,637z"/>
<g id="sign01">
	<path fill="#FDDDD4" d="M415.5,88c0,8.3-6.7,15-15,15h-51c-8.3,0-15-6.7-15-15V64c0-8.3,6.7-15,15-15h51c8.3,0,15,6.7,15,15V88z"/>
	<path fill="#D5CA9F" d="M356.5,123c0,1.7-1.3,3-3,3l0,0c-1.7,0-3-1.3-3-3v-23c0-1.7,1.3-3,3-3l0,0c1.7,0,3,1.3,3,3V123z"/>
	<path fill="#D5CA9F" d="M395.5,125c0,1.7-1.3,3-3,3l0,0c-1.7,0-3-1.3-3-3v-23c0-1.7,1.3-3,3-3l0,0c1.7,0,3,1.3,3,3V125z"/>
	<path fill="#C4B681" d="M356.5,109c0,1.7-1.3,3-3,3l0,0c-1.7,0-3-1.3-3-3V86c0-1.7,1.3-3,3-3l0,0c1.7,0,3,1.3,3,3V109z"/>
	<path fill="#C4B681" d="M395.5,111c0,1.7-1.3,3-3,3l0,0c-1.7,0-3-1.3-3-3V88c0-1.7,1.3-3,3-3l0,0c1.7,0,3,1.3,3,3V111z"/>
	<path fill="#FABEAE" d="M412.5,92c0,8.3-6.7,15-15,15h-51c-8.3,0-15-6.7-15-15V68c0-8.3,6.7-15,15-15h51c8.3,0,15,6.7,15,15V92z"/>
</g>
<g id="sign04">
	<path fill="#FDDDD4" d="M320.5,650c0-8.3,6.7-15,15-15h51c8.3,0,15,6.7,15,15v24c0,8.3-6.7,15-15,15h-51c-8.3,0-15-6.7-15-15V650z"
		/>
	<path fill="#D5CA9F" d="M379.5,615c0-1.7,1.3-3,3-3l0,0c1.7,0,3,1.3,3,3v23c0,1.7-1.3,3-3,3l0,0c-1.7,0-3-1.3-3-3V615z"/>
	<path fill="#D5CA9F" d="M340.5,613c0-1.7,1.3-3,3-3l0,0c1.7,0,3,1.3,3,3v23c0,1.7-1.3,3-3,3l0,0c-1.7,0-3-1.3-3-3V613z"/>
	<path fill="#C4B681" d="M379.5,629c0-1.7,1.3-3,3-3l0,0c1.7,0,3,1.3,3,3v23c0,1.7-1.3,3-3,3l0,0c-1.7,0-3-1.3-3-3V629z"/>
	<path fill="#C4B681" d="M340.5,627c0-1.7,1.3-3,3-3l0,0c1.7,0,3,1.3,3,3v23c0,1.7-1.3,3-3,3l0,0c-1.7,0-3-1.3-3-3V627z"/>
	<path fill="#FABEAE" d="M323.5,646c0-8.3,6.7-15,15-15h51c8.3,0,15,6.7,15,15v24c0,8.3-6.7,15-15,15h-51c-8.3,0-15-6.7-15-15V646z"
		/>
</g>
<g id="sign02">
	<path fill="#FDDDD4" d="M689.5,379c0,8.3-6.7,15-15,15h-24c-8.3,0-15-6.7-15-15v-51c0-8.3,6.7-15,15-15h24c8.3,0,15,6.7,15,15V379z
		"/>
	<path fill="#D5CA9F" d="M641.5,332c0,1.7-1.3,3-3,3h-23c-1.7,0-3-1.3-3-3l0,0c0-1.7,1.3-3,3-3h23C640.2,329,641.5,330.3,641.5,332
		L641.5,332z"/>
	<path fill="#D5CA9F" d="M639.5,371c0,1.7-1.3,3-3,3h-23c-1.7,0-3-1.3-3-3l0,0c0-1.7,1.3-3,3-3h23C638.2,368,639.5,369.3,639.5,371
		L639.5,371z"/>
	<path fill="#C4B681" d="M655.5,332c0,1.7-1.3,3-3,3h-23c-1.7,0-3-1.3-3-3l0,0c0-1.7,1.3-3,3-3h23C654.2,329,655.5,330.3,655.5,332
		L655.5,332z"/>
	<path fill="#C4B681" d="M653.5,371c0,1.7-1.3,3-3,3h-23c-1.7,0-3-1.3-3-3l0,0c0-1.7,1.3-3,3-3h23C652.2,368,653.5,369.3,653.5,371
		L653.5,371z"/>
	<path fill="#FABEAE" d="M685.5,376c0,8.3-6.7,15-15,15h-24c-8.3,0-15-6.7-15-15v-51c0-8.3,6.7-15,15-15h24c8.3,0,15,6.7,15,15V376z
		"/>
</g>
<g id="sign03">
	<path fill="#FDDDD4" d="M95.5,370c0,8.3-6.7,15-15,15h-24c-8.3,0-15-6.7-15-15v-51c0-8.3,6.7-15,15-15h24c8.3,0,15,6.7,15,15V370z"
		/>
	<path fill="#D5CA9F" d="M118.5,366c0,1.7-1.3,3-3,3h-23c-1.7,0-3-1.3-3-3l0,0c0-1.7,1.3-3,3-3h23C117.2,363,118.5,364.3,118.5,366
		L118.5,366z"/>
	<path fill="#D5CA9F" d="M120.5,327c0,1.7-1.3,3-3,3h-23c-1.7,0-3-1.3-3-3l0,0c0-1.7,1.3-3,3-3h23C119.2,324,120.5,325.3,120.5,327
		L120.5,327z"/>
	<path fill="#C4B681" d="M104.5,366c0,1.7-1.3,3-3,3h-23c-1.7,0-3-1.3-3-3l0,0c0-1.7,1.3-3,3-3h23C103.2,363,104.5,364.3,104.5,366
		L104.5,366z"/>
	<path fill="#C4B681" d="M106.5,327c0,1.7-1.3,3-3,3h-23c-1.7,0-3-1.3-3-3l0,0c0-1.7,1.3-3,3-3h23C105.2,324,106.5,325.3,106.5,327
		L106.5,327z"/>
	<path fill="#FABEAE" d="M99.5,373c0,8.3-6.7,15-15,15h-24c-8.3,0-15-6.7-15-15v-51c0-8.3,6.7-15,15-15h24c8.3,0,15,6.7,15,15V373z"
		/>
</g>
<g id="building01">
	<polygon fill="none" points="526.4,118.6 513.8,124.6 526.2,118.7 	"/>
	<polygon fill="#A9BFB2" points="526.3,118.9 513.6,124.8 514.4,125.4 524.8,120.8 	"/>
	<polygon fill="none" points="552.2,138.7 549.6,152.4 552.2,139 	"/>
	<path fill="#BBCCBF" d="M554.3,139.2L525.4,116.8l-15.801,6.4l42.4,33L554.3,139.2z M513.6,124.8l13-6.4l25.801,20.1l-3,14.2
		L513.6,124.8z"/>
	<path fill="#9CB1A2" d="M550.6,140.8l-25.699-20l1.8-2.4l25.8,20.1L550.6,140.8z"/>
	<polygon fill="#A9BFB2" points="552,138.8 549.4,152.6 548.6,152 550.5,140.8 	"/>
	<polygon fill="#B9E1D6" points="509.6,123.2 477.8,170.4 514,198.6 552,156.1 	"/>
	<polygon fill="#8EA695" points="550.7,140.9 524.7,120.7 514.4,125.4 548.6,152 	"/>
	
		<rect x="489.922" y="163.173" transform="matrix(-0.7893 -0.614 0.614 -0.7893 814.3442 608.1873)" fill="#F2F2F2" width="43.199" height="2.4"/>
	<polygon fill="#FFFFFF" points="496.8,154.5 482.9,174.4 508.8,194.6 524.8,176.2 	"/>
	
		<rect x="477.478" y="182.227" transform="matrix(-0.7893 -0.614 0.614 -0.7893 775.6401 633.0121)" fill="#F2F2F2" width="37.9" height="2.4"/>
	<polygon fill="#CBD9CC" points="497.7,149.9 495.4,150.4 529.1,176.6 529,174.3 	"/>
	<polygon fill="#CBD9CC" points="484.4,170.3 482.3,170.9 512.3,194.3 512.4,192.1 	"/>
	<path fill="#F7BFAD" d="M512.8,172.9c-0.6,0.8-1.8,0.9-2.6,0.3l-6.5-5c-0.8-0.6-0.9-1.8-0.3-2.6l1.399-1.8
		c0.601-0.8,1.8-0.9,2.601-0.3l6.5,5c0.8,0.6,0.899,1.8,0.3,2.6L512.8,172.9z"/>
	<path fill="#F9CCBE" d="M512.5,173.3c-0.6,0.8-1.8,0.9-2.6,0.3l-6.5-5c-0.801-0.6-0.9-1.8-0.301-2.6l1.4-1.8
		c0.6-0.8,1.8-0.9,2.6-0.3l6.5,5c0.801,0.6,0.9,1.8,0.301,2.6L512.5,173.3z"/>
</g>
<polygon fill="none" points="159.4,572.7 171.6,569.8 159.6,572.6 "/>
<polygon fill="#A9BFB2" points="159.5,572.5 171.8,569.6 171.2,568.9 161.2,571 "/>
<polygon fill="none" points="140.3,550.2 145.2,538.6 140.4,550 "/>
<path fill="#BBCCBF" d="M138.6,549.4l21.3,25.1l15.2-2.7L143.9,534.9L138.6,549.4z M171.8,569.6l-12.6,3.2l-19-22.5l5.3-11.899
	L171.8,569.6z"/>
<path fill="#9CB1A2" d="M142.2,548.7l19,22.399l-2,1.801l-19-22.5L142.2,548.7z"/>
<polygon fill="#A9BFB2" points="140.5,550.1 145.4,538.4 146,539.1 142.3,548.6 "/>
<polygon fill="#B9E1D6" points="175,571.8 211.8,536 185.2,504.5 143.8,534.9 "/>
<polygon fill="#8EA695" points="142.1,548.6 161.3,571.2 171.2,568.9 146,539.1 "/>
<rect x="161.532" y="534.078" transform="matrix(0.6461 0.7632 -0.7632 0.6461 472.4709 51.2374)" fill="#F2F2F2" width="38.898" height="2.101"/>
<polygon fill="#FFFFFF" points="192.1,546.5 208,531.5 188.9,509 171.5,522.2 "/>
<rect x="180.787" y="520.112" transform="matrix(0.6461 0.7632 -0.7632 0.6461 467.7669 33.4258)" fill="#F2F2F2" width="34.098" height="2.1"/>
<polygon fill="#CBD9CC" points="190.5,550.4 192.6,550.4 167.8,521.1 167.4,523.1 "/>
<polygon fill="#CBD9CC" points="206,534.9 208,534.8 185.8,508.6 185.4,510.5 "/>
<path fill="#F7BFAD" d="M181.4,527.4c0.7-0.601,1.7-0.5,2.3,0.199l4.8,5.601c0.6,0.7,0.5,1.7-0.2,2.3l-1.6,1.3
	c-0.7,0.601-1.7,0.5-2.3-0.2l-4.8-5.6c-0.6-0.7-0.5-1.7,0.2-2.3L181.4,527.4z"/>
<path fill="#F9CCBE" d="M181.8,527c0.7-0.6,1.7-0.5,2.3,0.2l4.8,5.6c0.6,0.7,0.5,1.7-0.2,2.3l-1.6,1.301c-0.7,0.6-1.7,0.5-2.3-0.2
	L180,530.6c-0.6-0.699-0.5-1.699,0.2-2.3L181.8,527z"/>
<polygon fill="none" points="628,514.3 622.2,503.1 627.9,514.1 "/>
<polygon fill="#A9BFB2" points="627.8,514.3 622,503 621.5,503.8 626,512.9 "/>
<polygon fill="none" points="611,538.3 598.5,536.5 610.8,538.3 "/>
<path fill="#BBCCBF" d="M610.6,540.2l19.101-26.9l-6.4-14l-28,39.4L610.6,540.2z M622,503l6.3,11.4l-17,24L598.4,536.3L622,503z"/>
<path fill="#9CB1A2" d="M609.1,536.9l17-23.9l2.2,1.5l-17,24L609.1,536.9z"/>
<polygon fill="#A9BFB2" points="610.9,538.2 598.3,536.3 598.9,535.6 609,536.9 "/>
<polygon fill="#B9E1D6" points="623.3,499.4 579.5,472.6 555.6,506.3 595.3,538.8 "/>
<polygon fill="#8EA695" points="609,537 626.1,512.8 621.5,503.8 598.9,535.6 "/>
<rect x="566.862" y="501.656" transform="matrix(0.579 -0.8153 0.8153 0.579 -163.0375 689.6545)" fill="#F2F2F2" width="38.899" height="2.1"/>
<polygon fill="#FFFFFF" points="594.6,489.1 576.1,477.4 559,501.5 576.2,515.1 "/>
<rect x="551.492" y="488.76" transform="matrix(0.579 -0.8154 0.8154 0.579 -159.9907 669.792)" fill="#F2F2F2" width="34.103" height="2.1"/>
<polygon fill="#CBD9CC" points="598.8,489.7 598.3,487.6 576,519 578.1,518.8 "/>
<polygon fill="#CBD9CC" points="579.9,478.5 579.3,476.6 559.4,504.6 561.4,504.5 "/>
<path fill="#F7BFAD" d="M578.7,504.2c-0.7-0.5-0.9-1.601-0.4-2.3l4.3-6c0.5-0.7,1.601-0.9,2.301-0.4l1.699,1.2
	c0.7,0.5,0.9,1.6,0.4,2.3l-4.3,6c-0.5,0.7-1.601,0.9-2.3,0.4L578.7,504.2z"/>
<path fill="#F9CCBE" d="M578.3,503.9c-0.7-0.5-0.899-1.601-0.399-2.301l4.3-6c0.5-0.699,1.6-0.899,2.3-0.399l1.7,1.2
	c0.7,0.5,0.899,1.6,0.399,2.3l-4.3,6c-0.5,0.7-1.6,0.899-2.3,0.399L578.3,503.9z"/>
<g id="home01">
	<polygon fill="#F2F2F2" points="292.8,95.2 273.1,99.4 286.2,132.4 314,126.4 312.5,91 	"/>
	<polygon fill="#F58779" points="275.6,112.1 293.2,95 292.9,93.7 273.6,112.6 	"/>
	<polygon fill="#F58779" points="315.8,103.5 293.2,95 292.9,93.7 317.8,103.1 	"/>
	<polygon fill="#F0E4E4" points="288.8,111.3 294.3,130.6 294.7,130.5 289.4,111.2 	"/>
	<polygon fill="#EAD8D8" points="289.4,111.2 294.7,130.5 306.3,128.1 303.4,108.2 	"/>
	
		<rect x="292.303" y="127.399" transform="matrix(-0.9779 0.2092 -0.2092 -0.9779 619.8339 191.2372)" fill="#BBCCBF" width="15" height="2"/>
	<polygon fill="#CBD9CC" points="292.9,127.9 292.6,128.9 307.1,125.8 306.4,125 	"/>
	
		<rect x="287.908" y="111.79" transform="matrix(-0.9779 0.2092 -0.2092 -0.9779 609.7482 160.0938)" fill="#F58779" width="17.001" height="1"/>
	<polygon fill="#F7A69F" points="288.4,111.4 288.3,113.5 304.6,110 303.6,108.2 	"/>
	<polygon fill="#F7A69F" points="272.2,89 273.4,112.6 273.5,113 292.9,93.7 288.5,73.1 	"/>
	<polygon fill="#F6968B" points="309.3,81.1 317.4,103.1 317.5,103.6 292.9,93.7 288.5,73.1 	"/>
	<path fill="#DB7955" d="M302.9,119.7c-0.101-0.4-0.301-0.3-0.601-0.2s-0.5,0-0.5,0.5h-0.1l0,0h0.1c0.2,0.4,0.3,0.2,0.601,0.1
		C302.7,120,302.9,120.2,302.9,119.7h0.1l0,0H302.9z"/>
	
		<ellipse transform="matrix(-0.2088 -0.978 0.978 -0.2088 248.1595 440.7892)" fill="#E3977A" cx="302.39" cy="120.008" rx="0.4" ry="0.6"/>
</g>
<g id="home03">
	<polygon fill="#F2F2F2" points="628.4,413.7 593.6,406.5 583.3,433.1 613.9,451.2 	"/>
	<polygon fill="#F58779" points="616.3,408.8 621.1,432.8 622.3,433.3 617,406.8 	"/>
	<polygon fill="#F58779" points="601.5,447.1 621.1,432.8 622.3,433.3 600.8,449 	"/>
	<polygon fill="#F0E4E4" points="609.7,420.3 590.6,414.3 590.4,414.7 609.5,420.8 	"/>
	<polygon fill="#EAD8D8" points="609.5,420.8 590.4,414.7 586.2,425.7 604.3,434.2 	"/>
	
		<rect x="581.958" y="419.059" transform="matrix(0.36 -0.9329 0.9329 0.36 -14.6526 818.757)" fill="#BBCCBF" width="15" height="2"/>
	<polygon fill="#CBD9CC" points="593.7,414.7 592.9,413.8 587.6,427.6 588.7,427.5 	"/>
	
		<rect x="596.338" y="425.495" transform="matrix(0.3601 -0.9329 0.9329 0.3601 -10.3691 836.8745)" fill="#F58779" width="17" height="1.001"/>
	<polygon fill="#F7A69F" points="609.9,419.9 608.2,418.6 602.2,434.2 604.3,434.3 	"/>
	<polygon fill="#F7A69F" points="637.5,418.6 617.2,406.7 616.8,406.5 622.3,433.3 641.9,440.9 	"/>
	<polygon fill="#F6968B" points="623.9,454 601,448.7 600.6,448.5 622.3,433.3 641.9,440.9 	"/>
	<path fill="#DB7955" d="M595,427.5c0.4,0.1,0.4-0.1,0.5-0.4c0.1-0.3,0.3-0.5-0.1-0.6v-0.1l0,0v0.1c-0.4-0.1-0.301,0.2-0.4,0.4
		C594.9,427.1,594.6,427.2,595,427.5v0.1l0,0V427.5z"/>
	
		<ellipse transform="matrix(0.9329 0.3602 -0.3602 0.9329 193.7043 -185.6974)" fill="#E3977A" cx="595.08" cy="426.862" rx="0.4" ry="0.599"/>
</g>
<g id="home02">
	<polygon fill="#F2F2F2" points="222.3,599.9 237.3,567.7 213.9,551.6 189.2,577.1 	"/>
	<polygon fill="#F58779" points="229.9,589.3 205.3,588.4 204.6,589.4 231.6,590.5 	"/>
	<polygon fill="#F58779" points="196,566 205.3,588.4 204.6,589.4 194.3,564.9 	"/>
	<polygon fill="#F0E4E4" points="220.2,580.3 230.4,563 230.2,562.8 219.8,579.9 	"/>
	<polygon fill="#EAD8D8" points="219.8,579.9 230.2,562.8 220.4,556.1 207.9,571.8 	"/>
	
		<rect x="217.63" y="559.505" transform="matrix(0.8238 0.5669 -0.5669 0.8238 357.3997 -28.8626)" fill="#BBCCBF" width="15" height="2"/>
	<polygon fill="#CBD9CC" points="229.4,565.9 230.4,565.4 218.2,557 218,558.1 	"/>
	
		<rect x="207.216" y="573.653" transform="matrix(0.8238 0.5669 -0.5669 0.8238 363.5103 -21.1135)" fill="#F58779" width="17" height="1"/>
	<polygon fill="#F7A69F" points="220.6,580.5 222.2,579.2 208.5,569.7 207.8,571.7 	"/>
	<polygon fill="#F7A69F" points="215.4,607.7 231.7,590.6 232,590.3 204.6,589.4 192.7,606.8 	"/>
	<polygon fill="#F6968B" points="184.2,586.2 194.6,565.1 194.9,564.8 204.6,589.4 192.7,606.8 	"/>
	<path fill="#DB7955" d="M216.6,564.3c-0.2,0.4,0,0.4,0.3,0.601c0.2,0.199,0.4,0.399,0.7,0h0.1l0,0l-0.1-0.101
		c0.2-0.399-0.1-0.399-0.3-0.5C217,564.3,217,564,216.6,564.3L216.6,564.3L216.6,564.3L216.6,564.3z"/>
	
		<ellipse transform="matrix(-0.5669 0.8238 -0.8238 -0.5669 805.2081 705.5264)" fill="#E3977A" cx="217.139" cy="564.432" rx="0.4" ry="0.6"/>
</g>
<g id="bird01">
	<polygon fill="#C8ACBC" points="468.1,45.6 464.4,48.8 469.4,56.4 473.3,53 	"/>
	<polygon fill="#DAC4CE" points="468.9,45.7 465.1,48.9 470.1,56.5 474,53.1 	"/>
	<polygon fill="#DAC4CE" points="486.3,52 483.6,47.8 475,51.9 469.5,51.4 463.6,53.7 467.9,57.4 467.5,59.5 475.5,61.2 478.3,58.9 
		477.8,56.3 	"/>
	<polygon fill="#CAB3C2" points="474.7,61.8 472.2,60.6 472.2,60.6 471.9,59.8 471.2,60.1 472.8,63.8 473.5,63.5 472.6,61.6 
		474.4,62.5 	"/>
	<polygon fill="#E7C4BB" points="475.2,61.9 472.7,60.7 472.7,60.7 472.3,59.9 471.7,60.2 473.3,63.9 474,63.6 473.1,61.7 
		474.9,62.5 	"/>
	<polygon fill="#CAB3C2" points="478.6,62.3 476.1,61.1 476.1,61.2 475.8,60.3 475.1,60.6 476.7,64.3 477.4,64 476.5,62.2 478.3,63 
			"/>
	<polygon fill="#E6D9DD" points="487,52.3 484.3,48.2 475.7,52.3 470.2,51.8 464.3,54 468.6,57.8 468.2,59.9 476.2,61.5 479,59.3 
		478.5,56.6 	"/>
	<polygon fill="#E7C4BB" points="479.1,62.4 476.6,61.2 476.6,61.2 476.2,60.4 475.6,60.7 477.2,64.4 477.9,64.1 477,62.2 
		478.8,63.1 	"/>
	<circle fill="#E7C4BB" cx="469.2" cy="54.5" r="0.3"/>
</g>
<g id="bird03">
	<polygon fill="#AA985D" points="164.2,601.2 167.6,599 164.5,592.3 161,594.6 	"/>
	<polygon fill="#C4B681" points="163.6,601 167,598.9 163.9,592.2 160.4,594.4 	"/>
	<polygon fill="#C4B681" points="150.3,593.8 152,597.5 159.4,595.2 163.8,596.3 168.8,595.2 165.8,591.7 166.3,590 160.1,587.7 
		157.6,589.2 157.7,591.4 	"/>
	<polygon fill="#C8BD98" points="160.8,587.3 162.7,588.6 162.7,588.6 162.9,589.3 163.5,589.1 162.7,586 162.1,586.1 162.5,587.7 
		161.2,586.8 	"/>
	<polygon fill="#E5BA8C" points="160.5,587.2 162.3,588.5 162.3,588.5 162.5,589.2 163.1,589 162.3,585.8 161.7,586 162.1,587.6 
		160.8,586.7 	"/>
	<polygon fill="#C8BD98" points="157.8,586.4 159.6,587.7 159.6,587.7 159.8,588.4 160.4,588.2 159.6,585 159,585.2 159.4,586.8 
		158.1,585.9 	"/>
	<polygon fill="#D5CA9F" points="157.2,591 149.8,593.5 151.5,597.1 158.9,594.9 163.3,596 168.3,594.9 165.3,591.3 158.5,588 
		157.1,588.8 	"/>
	<circle fill="#AA985D" cx="164.4" cy="593.9" r="0.3"/>
	<polygon fill="#CED6BA" points="165.8,589.7 159.6,587.4 158.5,588 165.3,591.3 	"/>
	<polygon fill="#E5BA8C" points="157.4,586.3 159.3,587.6 159.3,587.5 159.5,588.3 160,588.1 159.2,584.9 158.6,585.1 159,586.7 
		157.7,585.8 	"/>
</g>
<g id="bird04">
	<polygon fill="#AA985D" points="667.3,518.8 666.5,513.5 656.7,513.8 657.6,519.3 	"/>
	<polygon fill="#C4B681" points="666.8,519.4 666,514.1 656.2,514.4 657.1,519.9 	"/>
	<polygon fill="#C4B681" points="651.1,531.9 656.4,531.9 657.6,521.6 661.2,516.7 662.5,510 656.6,511.8 654.8,510.3 648.7,516.7 
		649.2,520.6 652,521.6 	"/>
	<polygon fill="#C8BD98" points="648.6,515.6 651.2,514 651.1,514 652.1,514.1 652.2,513.3 647.9,512.7 647.8,513.5 650,513.8 
		648.2,515 	"/>
	<polygon fill="#E5BA8C" points="648.3,516.1 650.8,514.4 650.8,514.4 651.8,514.5 651.9,513.7 647.5,513.1 647.4,513.9 
		649.6,514.2 647.9,515.4 	"/>
	<polygon fill="#C8BD98" points="645.9,518.9 648.4,517.3 648.4,517.3 649.4,517.4 649.5,516.6 645.2,516 645,516.8 647.3,517.1 
		645.5,518.3 	"/>
	<polygon fill="#D5CA9F" points="651.3,522 650.3,532.4 655.7,532.3 656.8,522 660.5,517.2 661.8,510.5 655.9,512.3 648.2,518.9 
		648.5,521 	"/>
	<circle fill="#AA985D" cx="658.5" cy="514.7" r="0.4"/>
	<polygon fill="#CED6BA" points="654.1,510.7 648,517.1 648.2,518.9 655.9,512.3 	"/>
	<polygon fill="#E5BA8C" points="645.6,519.3 648.1,517.7 648.1,517.7 649,517.8 649.1,517 644.8,516.4 644.7,517.2 646.9,517.5 
		645.1,518.7 	"/>
</g>
<g id="cat">
	<polygon fill="#D5CA9F" points="435,135.1 436.5,134.8 435.3,127.1 440.6,116.7 447.5,103 446.2,102.3 439.2,116 427.5,110 
		431.2,102.9 430.4,102.5 430.1,97.9 426.1,100.3 425,99.7 424.6,95.1 420.7,97.5 420.1,97.2 414.4,108.3 419.6,111 416.6,116.9 
		409.4,120.6 410,122 417.1,118.7 419.4,119.9 412.6,123.2 413.2,124.6 421.1,120.8 429.6,125.1 431.2,134 432.6,133.8 431.2,125.9 
		433.6,127.1 	"/>
	<polygon fill="#E7DDB4" points="435.6,128.1 448.2,103.3 446.9,102.7 439.6,117 427.2,110.7 430.8,103.5 430.5,103.4 430.2,98.7 
		426.2,101.2 425.1,100.6 424.7,96 420.8,98.4 420.4,98.2 414.7,109.3 419.9,111.9 416.9,117.9 411.3,120.7 411.8,122.2 
		417.2,119.6 419.5,120.8 414.6,123.2 415.1,124.6 421.2,121.6 429.7,126 431,133.1 432.4,133 431.3,126.8 433.7,128 434.8,134.1 
		436.4,133.9 	"/>
	<circle fill="#C4B681" cx="420.2" cy="104.7" r="0.7"/>
	<circle fill="#C4B681" cx="425.9" cy="107.6" r="0.7"/>
	
		<rect x="418.666" y="108.012" transform="matrix(-0.8906 -0.4548 0.4548 -0.8906 747.6366 397.3792)" fill="#FFFFFF" width="5.9" height="1.5"/>
	<polygon fill="#C4B681" points="421.6,108.9 421.6,108.2 421.6,107.5 422.1,107.8 422.7,108.1 422.1,108.5 	"/>
	<path fill="#C4B681" d="M424.8,104.1c-0.1,0.1-0.2,0.1-0.399,0l0,0c-0.2-0.1-0.301-0.3-0.2-0.4l1-2c0.1-0.1,0.2-0.1,0.399,0l0,0
		c0.2,0.1,0.301,0.3,0.2,0.4L424.8,104.1z"/>
	<path fill="#C4B681" d="M424.7,118.7c-0.2,0.3-0.4,0.5-0.601,0.4l0,0c-0.199-0.1-0.199-0.4,0-0.8l3-5.9c0.2-0.3,0.4-0.5,0.601-0.4
		l0,0c0.2,0.1,0.2,0.4,0,0.8L424.7,118.7z"/>
	<path fill="#C4B681" d="M428,120.4c-0.2,0.3-0.4,0.5-0.6,0.4l0,0c-0.2-0.1-0.2-0.4,0-0.8l3-5.9c0.199-0.3,0.399-0.5,0.6-0.4l0,0
		c0.2,0.1,0.2,0.4,0,0.8L428,120.4z"/>
	<path fill="#C4B681" d="M431.3,122c-0.2,0.3-0.399,0.5-0.6,0.4l0,0c-0.2-0.1-0.2-0.4,0-0.8l3-5.9c0.2-0.3,0.399-0.5,0.6-0.4l0,0
		c0.2,0.1,0.2,0.4,0,0.8L431.3,122z"/>
	<path fill="#C4B681" d="M435.2,124c-0.2,0.3-0.4,0.5-0.601,0.4l0,0c-0.199-0.1-0.199-0.4,0-0.8l3-5.9c0.2-0.3,0.4-0.5,0.601-0.4
		l0,0c0.2,0.1,0.2,0.4,0,0.8L435.2,124z"/>
	<polygon fill="#FFFFFF" points="412.8,124 413.4,125.3 415.2,124.4 414.6,123.1 	"/>
	<polygon fill="#FFFFFF" points="431.3,134.7 432.8,134.5 432.5,132.9 431,133 	"/>
	<polygon fill="#FFFFFF" points="436.6,135.6 436.3,133.8 434.9,134 435.2,135.9 	"/>
	<polygon fill="#FFFFFF" points="409.6,121.5 410.2,122.9 411.8,122.1 411.3,120.7 	"/>
	
		<rect x="418.981" y="108.979" transform="matrix(-0.8906 -0.4549 0.4549 -0.8906 745.1178 397.9354)" fill="#FACED5" width="2.9" height="0.7"/>
</g>
<g id="dog">
	<polygon fill="#E6E6E6" points="278.6,613.7 277.4,614.2 279.3,619.3 276.4,628.9 273.3,628 274.4,632.4 277.2,629.7 289.2,633.2 
		287.8,638.2 285.7,637.6 286.7,641.9 288.3,640.5 297.5,642.8 297.5,642.8 297.9,644.8 301,641.9 298.6,641.2 301.1,632.7 
		295.7,631.2 297.5,625.3 302.1,621.8 301.4,620.7 296.9,624 294.6,623.3 298.7,620.2 298,619.1 293,622.8 284.6,620.3 282.3,614 
		281,614.4 283,619.9 280.6,619.2 	"/>
	<polygon fill="#FFFFFF" points="278.1,613.1 276.9,613.6 278.7,618.7 275.9,628.3 272.8,627.4 273.8,631.7 276.7,629 288.7,632.6 
		287.2,637.6 285.2,637 286.2,641.3 287.7,639.8 296.8,642.7 296.8,642.7 297.3,644.4 300.5,641.3 298.1,640.6 300.6,632.1 
		295.2,630.5 296.9,624.6 301.6,621.2 300.9,620 296.4,623.4 294.1,622.7 298.2,619.6 297.5,618.5 292.5,622.2 284.1,619.7 
		281.7,613.4 280.4,613.8 282.4,619.2 280.1,618.5 	"/>
	<circle fill="#C4B681" cx="296.2" cy="637.1" r="0.6"/>
	<circle fill="#C4B681" cx="290.6" cy="635.4" r="0.6"/>
	
		<rect x="291.547" y="632.896" transform="matrix(0.9586 0.2847 -0.2847 0.9586 192.616 -57.5152)" fill="#E6E7E8" width="5.2" height="1.799"/>
	<polygon fill="#C4B681" points="294.3,633.6 294.4,634.2 294.5,634.8 294,634.6 293.4,634.5 293.9,634 	"/>
	
		<rect x="294.034" y="632.641" transform="matrix(0.9586 0.2848 -0.2848 0.9586 192.452 -57.8832)" fill="#FACED5" width="2.5" height="0.5"/>
</g>
<g id="bird02">
	<polygon fill="#C8ACBC" points="42.3,266.6 45.4,270.8 53.8,266.2 50.5,261.8 	"/>
	<polygon fill="#DAC4CE" points="42.5,265.8 45.6,270 53.9,265.4 50.7,261 	"/>
	<polygon fill="#DAC4CE" points="50.6,248 46,250.4 49.6,259.8 48.6,265.7 50.4,272 54.7,267.8 56.9,268.4 59.4,260.2 57.2,257 
		54.4,257.4 	"/>
	<polygon fill="#CAB3C2" points="59.9,261 58.5,263.6 58.5,263.6 57.6,263.9 57.9,264.6 61.9,263.3 61.7,262.5 59.6,263.2 
		60.6,261.4 	"/>
	<polygon fill="#E7C4BB" points="60.1,260.5 58.6,263.1 58.6,263.1 57.7,263.4 58,264.1 62,262.8 61.8,262 59.7,262.7 60.7,260.9 	
		"/>
	<polygon fill="#CAB3C2" points="60.9,257 59.4,259.5 59.4,259.5 58.5,259.8 58.8,260.6 62.8,259.2 62.6,258.5 60.5,259.2 
		61.5,257.4 	"/>
	<polygon fill="#E6D9DD" points="51.1,247.3 46.4,249.7 50,259.1 49,264.9 50.8,271.3 55.2,267.1 57.3,267.7 59.8,259.5 57.7,256.3 
		54.8,256.7 	"/>
	<polygon fill="#E7C4BB" points="61,256.5 59.5,259 59.5,259 58.6,259.3 58.9,260.1 62.9,258.7 62.7,258 60.6,258.7 61.6,256.8 	"/>
	<circle fill="#E7C4BB" cx="51.8" cy="266.2" r="0.4"/>
</g>
</svg>
