<?xml version="1.0" encoding="utf-8"?>
<!-- Generator: Adobe Illustrator 16.0.0, SVG Export Plug-In . SVG Version: 6.00 Build 0)  -->
<!DOCTYPE svg PUBLIC "-//W3C//DTD SVG 1.1//EN" "http://www.w3.org/Graphics/SVG/1.1/DTD/svg11.dtd">
<svg version="1.1" id="from5" xmlns="http://www.w3.org/2000/svg" xmlns:xlink="http://www.w3.org/1999/xlink" x="0px" y="0px"
	 width="511px" height="178px" viewBox="0 0 511 178" style="enable-background:new 0 0 511 178;" xml:space="preserve">
<style type="text/css">
<![CDATA[
	.st0{fill:#FABEAE;}
	.st1{fill:#61C6AB;}
	.st2{fill:#FFDD7F;}
	.st3{fill:#FFFFFF;}
	.st4{fill:#CBD9CC;}
]]>
</style>
<g>
	<path class="st4" d="M48,161c-17.7,0-32-14.3-32-32V45c0-6.3,1.8-12.1,5-17.1C14.2,33.8,10,42.4,10,52v84c0,17.7,14.3,32,32,32h421
		c11.4,0,21.4-6,27-14.9c-5.6,4.9-13,7.9-21,7.9H48z"/>
	<path class="st3" d="M469,13H48c-11.4,0-21.4,6-27,14.9c-3.1,4.9-5,10.8-5,17.1v84c0,17.7,14.3,32,32,32h421c8.1,0,15.4-3,21-7.9
		c6.7-5.9,11-14.5,11-24.1V45C501,27.3,486.7,13,469,13z"/>
</g>
<g>
	<path class="st1" d="M90.8,73.7c3.4,0,6.7,0.5,9.9,1.2c-0.4-3.6-3-4.9-5.9-4.9H65V51h41.6c3.1,0,6-1.7,6-6s-2.9-6-6-6H53v52.8
		C62,80.7,75.5,73.7,90.8,73.7z"/>
	<path class="st2" d="M100.7,74.8c-3.2-0.7-6.6-1.1-10-1.1c-15.2,0-28.8,7-37.8,18.1v1.5v33.3c0,3.8,1.7,6,6,6s6-2.2,6-6v-23V82
		h29.8c3.1,0,6-1.9,6-6.2C100.8,75.5,100.8,75.1,100.7,74.8z"/>
	<path class="st0" d="M177.3,82h2.7c1.5,0,2.9-0.2,4.4-0.5c-1.6-3.7-2.8-7.6-3.4-11.6c-0.9,0.1-1.8,0.1-2.6,0.1H152V51h26.4
		c1,0,2.1,0.1,3.2,0.3c0.9-4,2.3-7.8,4.2-11.4c-1.9-0.6-3.8-0.9-5.8-0.9h-40v44.3c6-2.9,13-4.5,20.3-4.5
		C166.3,78.8,171.9,80,177.3,82z"/>
	<path class="st2" d="M187,56.5v8.3c0,3.7-3.1,4.7-6,4.9c0.6,4.1,1.8,8,3.4,11.7c7.9-1.5,14.6-7.1,14.6-16.6v-8.3
		c0-8.5-6-14.4-13.2-16.5c-1.8,3.6-3.3,7.4-4.2,11.4C184.4,51.8,187,53.1,187,56.5z"/>
	<path class="st1" d="M196,120.5l-10.1-14.4l-1.8-2.6c0,0,0,0-0.1,0L169,82h8.3c-5.3-2-10.9-3.2-17-3.2c-7.3,0-14.3,1.6-20.3,4.5
		v22.9v20.3c0,3.8,1.7,6,6,6s6-2.2,6-6v-16.8V82h2.4l18.6,26.4c0,0,0,0,0,0l8.6,12.3l5.9,8.5c1.3,1.9,2.9,3.4,5.3,3.4
		c3.4,0,6.1-2.3,6.1-5.6C199,124.6,197.3,122.3,196,120.5z"/>
	<path class="st2" d="M239.3,79.7c0.4-1,0.9-2.1,1.5-3.3l8.9-17.9c0.5-7,2.5-13.6,5.7-19.4c-6.6,0.1-11.4,4.3-14.3,9.8l-12,23.9
		c-1,2.1-1.8,4-2.3,5.9c0.8,0,1.6-0.1,2.4-0.1C232.8,78.7,236.1,79.1,239.3,79.7z"/>
	<path class="st1" d="M282.3,72.9l-5.6-11.1L270.3,49c-2.9-5.6-7.8-9.8-14.5-9.8c-0.1,0-0.2,0-0.3,0c-3.2,5.8-5.2,12.4-5.7,19.4
		l1.9-3.8c1-1.9,1.6-3.6,4.1-3.6s3.1,1.7,4.1,3.6l10.8,21.7c0.9,1.8,1.6,3.3,2.1,4.9c0.4,1.4,0.6,2.8,0.6,4.5
		c3.6-2.2,7.5-4,11.6-5.2C284.5,78.1,283.6,75.7,282.3,72.9z"/>
	<path class="st2" d="M284.9,80.7c-4.1,1.2-8,3-11.6,5.2c0,0.1,0,0.2,0,0.3c0,3.1-0.7,5.3-2,7.9l-2.6,5.1c0.6,0.9,1.2,1.8,1.8,2.7
		c2,3.3,3.6,6.9,4.8,10.7l3.1-6.3l2.9-5.8c2.4-4.9,4-8.5,4-14.3C285.4,84.1,285.2,82.4,284.9,80.7z"/>
	<path class="st0" d="M270.6,101.9c-0.8-0.5-1.6-1.1-2.3-1.7l-8.4,16.7c-0.8,1.7-1.7,3.6-4.1,3.6s-3.2-1.9-4.1-3.6l-0.1-0.2l-5-9.9
		l-6.4-12.7c-1.3-2.6-2-4.8-2-7.9c0-2.6,0.4-4.5,1.2-6.4c-3.2-0.7-6.5-1-9.9-1c-0.8,0-1.6,0-2.4,0.1c-0.6,2.3-0.9,4.6-0.9,7.4
		c0,5.8,1.6,9.4,4,14.3l4.7,9.5l6.3,12.6c2.1,4.2,5.3,7.6,9.6,9.1c1.5,0.5,3.2,0.8,5,0.8c7,0,11.8-4.2,14.6-10l5-10
		C274.2,108.8,272.6,105.2,270.6,101.9z"/>
	<path class="st0" d="M270.6,101.9c-0.6-0.9-1.2-1.8-1.8-2.7l-0.5,1C269,100.8,269.8,101.4,270.6,101.9z"/>
	<path class="st1" d="M325,84.8c-4-6.7-5.9-14.5-5.9-22.7c0-8.3,1.9-16.1,5.6-23.1H313v41.7c4,1.3,8,3.2,12,5.5V84.8z"/>
	<path class="st2" d="M356.8,39l-11.3,16.5l-3.3,4.7L327.5,39h-2.8c-3.7,7-5.6,14.8-5.6,23.1c0,8.2,1.9,16,5.9,22.7V56.4l11,16.2
		v1.9c0,3.6,1.7,7,5.7,7.2c0.1,0,0.2,0,0.4,0c4.6,0,5.9-3.5,5.9-7.2v-1.9L359.5,56h0.5v23.4c2-0.4,5.3-0.7,8.1-0.7
		c1.3,0,1.9,0.1,3.9,0.2V39H356.8z"/>
	<path class="st1" d="M368.1,78.7c-2.7,0-6.1,0.2-8.1,0.7v30.4v16.7c0,3.8,1.7,6,6,6c4.3,0,6-2.2,6-6v-16.4V78.9
		C370,78.8,369.4,78.7,368.1,78.7z"/>
	<path class="st2" d="M313,108v18.5c0,3.8,1.4,6,5.8,6c0.5,0,0.9,0,1.4-0.1c-0.2-1.8-0.1-3.7-0.1-5.5c0-7.5,1-14.7,5-21v-3.6
		C321,104.7,317,106.6,313,108z"/>
	<path class="st2" d="M325,86.3c-4-2.4-8-4.2-12-5.5V108c4-1.4,8-3.3,12-5.8V86.3z"/>
	<path class="st2" d="M320.3,132.4c3.2-0.5,4.7-2.5,4.7-5.9v-20.6c-4,6.3-4.9,13.5-4.9,21C320.1,128.7,320.1,130.6,320.3,132.4z"/>
	<path class="st1" d="M452.2,39H411v3.1v40.1v4.3c5-3.1,10-5.5,15.8-6.5H423V51h29.2c3.1,0,6-1.7,6-6S455.3,39,452.2,39z"/>
	<path class="st0" d="M454.4,83.2c-1.4-1.3-2.7-2.1-4.2-2.6c-0.3-0.1-0.6-0.2-1-0.3c-0.1,0-0.1,0-0.2-0.1c-0.1,0-0.2,0.1-0.3,0
		c-1.2-0.2-2.5-0.2-3.9-0.2h-18.1c-5.8,1-10.8,3.4-15.8,6.5V92h35v12.3V120h-27.5c-0.9,0-1.9-0.1-3-0.6c0.3,2.3,0.5,4.9,0.5,7.3
		c0,1.8-0.1,3.4-0.3,5.2c0.8,0.1,1.6,0,2.5,0h26.6c4.3,0,7.3-0.2,10.3-3.8c2.5-3,2.8-5.4,2.8-9.1V100v-6.6
		C458,89.2,457.7,86.3,454.4,83.2z"/>
	<path class="st1" d="M415.5,119.7c-1.2-0.5-2.5-1.2-3.4-1.6l-3.6-1.6c-1.3-0.6-2.4-1-3.8-1c-3.1,0-5.8,2.9-5.8,6
		c0,4.2,3.6,5.3,6.8,6.7l4.6,2c2.1,0.9,3.6,1.6,5.4,1.9c0.2-1.8,0.3-3.6,0.3-5.4C416,124.4,415.8,122,415.5,119.7z"/>
</g>
</svg>
