<?xml version="1.0" encoding="utf-8"?>
<!-- Generator: Adobe Illustrator 16.0.3, SVG Export Plug-In . SVG Version: 6.00 Build 0)  -->
<!DOCTYPE svg PUBLIC "-//W3C//DTD SVG 1.1//EN" "http://www.w3.org/Graphics/SVG/1.1/DTD/svg11.dtd">
<svg version="1.1" id="screen04" xmlns="http://www.w3.org/2000/svg" xmlns:xlink="http://www.w3.org/1999/xlink" x="0px" y="0px"
	 width="1024px" height="768px" viewBox="0 0 1024 768" enable-background="new 0 0 1024 768" xml:space="preserve">
<g>
	<g id="comp">
		<circle fill="#F9CCBE" cx="191.031" cy="259.96" r="67.9"/>
		<polygon fill="#B9E1D6" points="190.483,215.252 158.155,215.252 163.223,305.344 190.838,305.344 218.453,305.344 
			222.809,215.252 		"/>
		<rect x="164.791" y="273.232" fill="#F2F2F2" width="52.096" height="2.854"/>
		<polygon fill="#FFFFFF" points="190.838,276.086 169.502,276.086 171.073,305.344 190.838,305.344 210.604,305.344 
			212.174,276.086 		"/>
		<rect x="167.647" y="302.49" fill="#F2F2F2" width="45.67" height="2.854"/>
		<polygon fill="#CBD9CC" points="166.932,271.091 165.076,273.232 216.528,273.232 214.815,271.091 		"/>
		<polygon fill="#CBD9CC" points="169.43,300.349 167.787,302.49 213.674,302.49 212.104,300.349 		"/>
		<path fill="#F7BFAD" d="M198.33,281.724c0,1.212-0.998,2.212-2.213,2.212h-9.848c-1.213,0-2.213-0.999-2.213-2.212v-2.713
			c0-1.214,1-2.214,2.213-2.214h9.848c1.213,0,2.213,0.998,2.213,2.214V281.724z"/>
		<path fill="#F9CCBE" d="M198.33,282.438c0,1.212-0.998,2.212-2.213,2.212h-9.848c-1.213,0-2.213-0.999-2.213-2.212v-2.713
			c0-1.212,1-2.212,2.213-2.212h9.848c1.213,0,2.213,0.996,2.213,2.212V282.438z"/>
		<g>
			<g>
				<g>
					<polygon fill="#9DA59F" points="176.217,222.881 176.193,222.102 164.051,221.91 164.802,233.643 165.429,233.651 
						164.748,222.701 					"/>
					<polygon fill="#8EA695" points="176.217,222.881 164.748,222.701 165.429,233.651 176.543,233.781 					"/>
				</g>
				<g>
					<polygon fill="#9DA59F" points="196.866,223.202 196.888,222.43 184.746,222.238 184.813,233.88 185.443,233.887 
						185.401,223.024 					"/>
					<polygon fill="#8EA695" points="196.866,223.202 184.751,223.013 184.813,233.88 196.553,234.02 					"/>
				</g>
				<g>
					<polygon fill="#9DA59F" points="196.424,238.502 196.447,237.727 184.835,237.605 184.9,249.248 185.501,249.252 
						185.46,238.388 					"/>
					<polygon fill="#8EA695" points="196.424,238.502 184.839,238.382 184.9,249.248 196.112,249.317 					"/>
				</g>
				<g>
					<polygon fill="#9DA59F" points="205.403,223.336 205.445,222.565 217.586,222.759 216.567,234.257 215.937,234.249 
						216.869,223.515 					"/>
					<polygon fill="#8EA695" points="205.403,223.336 216.869,223.515 215.937,234.249 204.826,234.118 					"/>
				</g>
				<g>
					<polygon fill="#9DA59F" points="204.587,238.584 204.628,237.813 216.241,237.935 215.221,249.434 214.62,249.431 
						215.551,238.697 					"/>
					<polygon fill="#8EA695" points="204.587,238.584 215.551,238.697 214.62,249.431 204.01,249.365 					"/>
				</g>
				<g>
					<polygon fill="#9DA59F" points="176.677,238.299 176.654,237.518 165.042,237.396 165.793,249.13 166.392,249.134 
						165.712,238.186 					"/>
					<polygon fill="#8EA695" points="176.677,238.299 165.712,238.186 166.392,249.134 177.004,249.199 					"/>
				</g>
				<g>
					<polygon fill="#9DA59F" points="196.353,253.504 196.377,252.731 185.286,252.678 185.34,264.319 185.911,264.319 
						185.88,253.457 					"/>
					<polygon fill="#8EA695" points="196.353,253.504 185.289,253.455 185.34,264.319 196.029,264.319 					"/>
				</g>
				<g>
					<polygon fill="#9DA59F" points="204.15,253.539 204.193,252.769 215.284,252.822 214.252,264.319 213.679,264.319 
						214.623,253.585 					"/>
					<polygon fill="#8EA695" points="204.15,253.539 214.623,253.585 213.679,264.319 203.561,264.319 					"/>
				</g>
				<g>
					<polygon fill="#9DA59F" points="177.492,253.419 177.47,252.64 166.377,252.587 167.115,264.319 167.688,264.319 
						167.02,253.371 					"/>
					<polygon fill="#8EA695" points="177.492,253.419 167.02,253.371 167.688,264.319 177.806,264.319 					"/>
				</g>
			</g>
		</g>
	</g>
	<rect x="84.242" y="424" fill="none" width="249.591" height="240"/>
	<text transform="matrix(1 0 0 1 84.2424 433.9958)" font-family="'KlavikaLight-Italic'" font-size="12">Lorem Ipsum is simply dummy text of</text>
	<text transform="matrix(1 0 0 1 84.2424 448.3953)" font-family="'KlavikaLight-Italic'" font-size="12"> the printing and typesetting industry. </text>
	<text transform="matrix(1 0 0 1 84.2424 462.7957)" font-family="'KlavikaLight-Italic'" font-size="12">Lorem Ipsum has been the industry&apos;s </text>
	<text transform="matrix(1 0 0 1 84.2424 477.196)" font-family="'KlavikaLight-Italic'" font-size="12">standard dummy text ever since the 1500s, </text>
	<text transform="matrix(1 0 0 1 84.2424 491.5964)" font-family="'KlavikaLight-Italic'" font-size="12">when an unknown printer took a galley of type and </text>
	<text transform="matrix(1 0 0 1 84.2424 505.9958)" font-family="'KlavikaLight-Italic'" font-size="12">scrambled it to make a type specimen book. It has </text>
	<text transform="matrix(1 0 0 1 84.2424 520.3953)" font-family="'KlavikaLight-Italic'" font-size="12">survived not only five centuries, but also the leap </text>
	<text transform="matrix(1 0 0 1 84.2424 534.7957)" font-family="'KlavikaLight-Italic'" font-size="12">into electronic typesetting, remaining essentially </text>
	<text transform="matrix(1 0 0 1 84.2424 549.196)" font-family="'KlavikaLight-Italic'" font-size="12">unchanged. It was popularised in the 1960s with the </text>
	<text transform="matrix(1 0 0 1 84.2424 563.5964)" font-family="'KlavikaLight-Italic'" font-size="12">release of Letraset sheets containing Lorem Ipsum </text>
	<text transform="matrix(1 0 0 1 84.2424 577.9958)" font-family="'KlavikaLight-Italic'" font-size="12">passages, and more recently with desktop publish</text>
	<text transform="matrix(1 0 0 1 321.5359 577.9958)" font-family="'KlavikaLight-Italic'" font-size="12">-</text>
	<text transform="matrix(1 0 0 1 84.2424 592.3953)" font-family="'KlavikaLight-Italic'" font-size="12">ing software like Aldus PageMaker including </text>
	<text transform="matrix(1 0 0 1 84.2424 606.7957)" font-family="'KlavikaLight-Italic'" font-size="12">versions of Lorem Ipsum.</text>
	<text transform="matrix(1 0 0 1 81.8337 394.8337)" fill="#79BCB4" font-family="'KlavikaBold-Bold'" font-size="28">COMPANY</text>
</g>
<g>
	<g id="memb">
		<path fill="#CBD9CC" d="M588.26,258.311c0-37.5-30.4-67.898-67.9-67.898s-67.897,30.398-67.897,67.898
			c0,24.602,13.101,46.102,32.698,58.102l4.602-8.698l8.398,4.5v0.102l-4.5,8.6c2.102,0.9,4.199,1.7,6.302,2.302v-16.602l-2.5,4.5
			l-11.103-5.8l13.5-25.2v-0.2h36v0.3l0.301-0.196l0.5,0.896h1.199v1v1.3l11.699,22.104l-11,5.8l-0.699-1.396v14.396
			c3-0.8,6-1.8,8.801-3l-4.697-8.8l8.396-4.5v0.103l4.699,8.897C574.959,304.713,588.26,283.011,588.26,258.311z"/>
		<polygon fill="#BCDDA5" points="537.86,309.511 538.559,310.911 549.559,305.111 537.86,283.011 537.86,307.511 		"/>
		<path fill="#BCDDA5" d="M501.86,308.111v-26.5v-0.9h34.8l-0.5-0.898l-0.301,0.2v-0.302h-36v0.2l-13.5,25.2l11.1,5.8l2.5-4.5
			v16.602c0.7,0.2,1.302,0.398,2,0.602v-15.5L501.86,308.111L501.86,308.111z"/>
		<path fill="#D4E9C5" d="M535.86,305.811v18.602c0.699-0.198,1.301-0.3,2-0.5v-14.396L535.86,305.811z"/>
		<polygon fill="#D4E9C5" points="537.86,281.711 537.86,280.711 536.66,280.711 537.86,283.011 		"/>
		<path fill="#D4E9C5" d="M501.86,281.611v26.5v15.5c5.898,1.698,12.099,2.602,18.5,2.602c5.398,0,10.602-0.602,15.5-1.802V305.81
			l2,3.802v-2.102v-24.5l-1.199-2.302h-34.8L501.86,281.611L501.86,281.611z"/>
		<path fill="#FCE9C6" d="M492.058,308.911l6,3.2v-0.102l-8.398-4.5l-4.602,8.7c0.802,0.5,1.602,0.896,2.4,1.396L492.058,308.911z"
			/>
		<path fill="#FDF0D8" d="M492.058,308.911l-4.6,8.802c2,1.1,4,2.1,6.1,3l4.5-8.602L492.058,308.911z"/>
		<path fill="#FCE9C6" d="M544.059,311.111l6.4-3.398v-0.102l-8.4,4.5l4.699,8.8c0.7-0.3,1.396-0.602,2.102-0.898L544.059,311.111z"
			/>
		<path fill="#FDF0D8" d="M544.059,311.111l4.699,8.898c2.2-1,4.396-2.2,6.396-3.398l-4.697-8.898L544.059,311.111z"/>
		<polygon fill="#FCE9C6" points="543.86,244.711 534.86,244.711 534.86,231.711 534.76,231.711 534.959,231.311 499.558,222.911 
			489.058,266.711 495.26,268.211 496.558,273.911 497.86,279.211 497.86,281.711 534.86,281.711 534.86,260.711 543.86,260.711 		
			"/>
		<polygon fill="#FDF0D8" points="537.959,231.111 502.558,222.611 492.26,266.511 501.86,268.711 501.86,280.711 537.86,280.711 
			537.86,231.711 537.86,231.711 		"/>
		<polygon fill="#8BD4D0" points="494.058,211.311 492.66,230.011 525.559,232.611 524.559,245.311 540.959,246.611 
			541.959,233.811 542.459,227.811 543.36,215.011 		"/>
		<polygon fill="#A3DDD9" points="495.76,214.311 494.36,233.111 527.16,235.611 526.26,248.311 542.66,249.611 543.66,236.911 
			544.059,230.811 545.059,218.111 		"/>
		<rect x="534.86" y="244.711" fill="#FDF0D8" width="12" height="15"/>
		<circle fill="#D3DED6" cx="516.66" cy="248.811" r="3.2"/>
		<polygon fill="#C5E1B0" points="488.36,306.811 499.36,312.611 501.86,308.111 501.86,281.611 		"/>
		<polygon fill="#C5E1B0" points="551.66,306.811 538.16,281.511 537.86,281.711 537.86,307.511 540.559,312.611 		"/>
		<polygon fill="#FDEBCC" points="501.76,279.411 499.962,273.611 498.16,267.811 504.16,269.111 510.058,270.511 505.86,275.011 		
			"/>
	</g>
	<rect x="410.859" y="418" fill="none" width="254.975" height="240"/>
	<text transform="matrix(1 0 0 1 410.8586 427.9958)" font-family="'KlavikaLight-Italic'" font-size="12">Lorem Ipsum is simply dummy text of</text>
	<text transform="matrix(1 0 0 1 410.8586 442.3953)" font-family="'KlavikaLight-Italic'" font-size="12"> the printing and typesetting industry. </text>
	<text transform="matrix(1 0 0 1 410.8586 456.7957)" font-family="'KlavikaLight-Italic'" font-size="12">Lorem Ipsum has been the industry&apos;s </text>
	<text transform="matrix(1 0 0 1 410.8586 471.196)" font-family="'KlavikaLight-Italic'" font-size="12">standard dummy text ever since the 1500s, </text>
	<text transform="matrix(1 0 0 1 410.8586 485.5964)" font-family="'KlavikaLight-Italic'" font-size="12">when an unknown printer took a galley of type and </text>
	<text transform="matrix(1 0 0 1 410.8586 499.9958)" font-family="'KlavikaLight-Italic'" font-size="12">scrambled it to make a type specimen book. It has </text>
	<text transform="matrix(1 0 0 1 410.8586 514.3953)" font-family="'KlavikaLight-Italic'" font-size="12">survived not only five centuries, but also the leap into </text>
	<text transform="matrix(1 0 0 1 410.8586 528.7957)" font-family="'KlavikaLight-Italic'" font-size="12">electronic typesetting, remaining essentially </text>
	<text transform="matrix(1 0 0 1 410.8586 543.196)" font-family="'KlavikaLight-Italic'" font-size="12">unchanged. It was popularised in the 1960s with the </text>
	<text transform="matrix(1 0 0 1 410.8586 557.5964)" font-family="'KlavikaLight-Italic'" font-size="12">release of Letraset sheets containing Lorem Ipsum </text>
	<text transform="matrix(1 0 0 1 410.8586 571.9958)" font-family="'KlavikaLight-Italic'" font-size="12">passages, and more recently with desktop publishing </text>
	<text transform="matrix(1 0 0 1 410.8586 586.3953)" font-family="'KlavikaLight-Italic'" font-size="12">software like Aldus PageMaker including versions of </text>
	<text transform="matrix(1 0 0 1 410.8586 600.7957)" font-family="'KlavikaLight-Italic'" font-size="12">Lorem Ipsum.</text>
	<text transform="matrix(1 0 0 1 410.5007 395.1658)" fill="#79BCB4" font-family="'KlavikaBold-Bold'" font-size="28">SERVICES</text>
</g>
<g>
	<g id="plan">
		<circle fill="#CAE8DE" cx="849.69" cy="258.46" r="67.9"/>
		<polygon fill="#85BACE" points="881.591,242.76 879.789,235.86 878.091,228.959 872.99,233.86 871.69,235.16 871.69,235.16 
			854.69,251.26 834.289,237.36 812.69,257.459 815.69,260.56 834.289,243.26 854.789,257.459 872.789,240.26 874.69,240.76 		"/>
		<polygon fill="#B2D7ED" points="815.69,257.459 837.289,237.36 857.69,251.26 874.69,235.16 878.99,237.06 857.789,257.459 
			837.289,243.26 818.69,260.56 		"/>
		<polygon fill="#B2D7ED" points="881.091,228.959 882.888,235.86 884.591,242.76 877.69,240.76 870.888,238.86 875.99,233.86 		"/>
		<g>
			<line fill="none" stroke="#FFFFFF" stroke-width="3" stroke-miterlimit="10" x1="810.19" y1="282.36" x2="886.19" y2="282.36"/>
			<line fill="none" stroke="#FFFFFF" stroke-width="3" stroke-miterlimit="10" x1="820.69" y1="282.86" x2="820.69" y2="273.86"/>
			<line fill="none" stroke="#FFFFFF" stroke-width="3" stroke-miterlimit="10" x1="834.69" y1="273.86" x2="834.69" y2="282.86"/>
			<line fill="none" stroke="#FFFFFF" stroke-width="3" stroke-miterlimit="10" x1="848.69" y1="273.86" x2="848.69" y2="282.86"/>
			<line fill="none" stroke="#FFFFFF" stroke-width="3" stroke-miterlimit="10" x1="862.69" y1="273.86" x2="862.69" y2="282.86"/>
			<line fill="none" stroke="#FFFFFF" stroke-width="3" stroke-miterlimit="10" x1="876.69" y1="273.86" x2="876.69" y2="282.86"/>
		</g>
	</g>
	<rect x="747.535" y="418" fill="none" width="234.965" height="240"/>
	<text transform="matrix(1 0 0 1 747.5349 427.9958)" font-family="'KlavikaLight-Italic'" font-size="12">Lorem Ipsum is simply dummy text of</text>
	<text transform="matrix(1 0 0 1 747.5349 442.3953)" font-family="'KlavikaLight-Italic'" font-size="12"> the printing and typesetting industry. </text>
	<text transform="matrix(1 0 0 1 747.5349 456.7957)" font-family="'KlavikaLight-Italic'" font-size="12">Lorem Ipsum has been the industry&apos;s </text>
	<text transform="matrix(1 0 0 1 747.5349 471.196)" font-family="'KlavikaLight-Italic'" font-size="12">standard dummy text ever since the 1500s, </text>
	<text transform="matrix(1 0 0 1 747.5349 485.5964)" font-family="'KlavikaLight-Italic'" font-size="12">when an unknown printer took a galley of type </text>
	<text transform="matrix(1 0 0 1 747.5349 499.9958)" font-family="'KlavikaLight-Italic'" font-size="12">and scrambled it to make a type specimen book. </text>
	<text transform="matrix(1 0 0 1 747.5349 514.3953)" font-family="'KlavikaLight-Italic'" font-size="12">It has survived not only five centuries, but also </text>
	<text transform="matrix(1 0 0 1 747.5349 528.7957)" font-family="'KlavikaLight-Italic'" font-size="12">the leap into electronic typesetting, remaining </text>
	<text transform="matrix(1 0 0 1 747.5349 543.196)" font-family="'KlavikaLight-Italic'" font-size="12">essentially unchanged. It was popularised in the </text>
	<text transform="matrix(1 0 0 1 747.5349 557.5964)" font-family="'KlavikaLight-Italic'" font-size="12">1960s with the release of Letraset sheets </text>
	<text transform="matrix(1 0 0 1 747.5349 571.9958)" font-family="'KlavikaLight-Italic'" font-size="12">containing Lorem Ipsum passages, and more </text>
	<text transform="matrix(1 0 0 1 747.5349 586.3953)" font-family="'KlavikaLight-Italic'" font-size="12">recently with desktop publishing software like </text>
	<text transform="matrix(1 0 0 1 747.5349 600.7957)" font-family="'KlavikaLight-Italic'" font-size="12">Aldus PageMaker including versions of Lorem </text>
	<text transform="matrix(1 0 0 1 747.5349 615.196)" font-family="'KlavikaLight-Italic'" font-size="12">Ipsum.</text>
	<text transform="matrix(1 0 0 1 745.8347 395.5017)" fill="#79BCB4" font-family="'KlavikaBold-Bold'" font-size="28">SCHEDULES</text>
</g>
<g>
	<path fill="#383838" d="M119.117,86.5h-9.36l-2.159-7.8h-13.38l-2.159,7.8h-9.359l12.179-39.958h12L119.117,86.5z M96.258,71.2
		h9.181l-4.561-16.739L96.258,71.2z"/>
	<path fill="#383838" d="M140.657,86.5h-17.039V46.541h15.779c8.34,0,11.398,3.36,11.398,8.761v4.079
		c0,2.881-1.26,4.921-4.439,6.301c3.3,0.779,5.88,3.659,5.88,7.38v3.899C152.237,82.6,148.637,86.5,140.657,86.5z M141.798,56.621
		c0-1.74-1.08-2.819-3.6-2.819h-5.58v9.119h5.58c2.399,0,3.6-1.199,3.6-2.819V56.621z M143.238,73.302c0-2.221-1.38-3.36-3.78-3.36
		h-6.84v9.3h5.58c2.82,0,5.04-0.6,5.04-3.479V73.302z"/>
	<path fill="#383838" d="M187.996,74.86c0,6.06-4.2,12.24-15.479,12.24c-11.28,0-15.479-6.181-15.479-12.24V58.181
		c0-6.061,4.2-12.24,15.479-12.24c11.278,0,15.479,6.18,15.479,12.24V74.86z M178.997,58.961c0-3.12-1.979-5.04-6.479-5.04
		c-4.5,0-6.48,1.92-6.48,5.04v15.12c0,3.12,1.98,5.04,6.48,5.04s6.479-1.92,6.479-5.04V58.961z"/>
	<path fill="#383838" d="M224.717,46.541V74.86c0,6.06-3.779,12.24-15.06,12.24c-11.279,0-15.06-6.181-15.06-12.24V46.541h9V74.02
		c0,3.24,1.56,5.1,6.06,5.1s6.06-1.859,6.06-5.1V46.541H224.717z"/>
	<path fill="#383838" d="M248.776,54.521V86.5h-9V54.521h-10.74v-7.98h30.479v7.98H248.776z"/>
</g>
</svg>
