<?xml version="1.0" encoding="utf-8"?>
<!-- Generator: Adobe Illustrator 16.0.0, SVG Export Plug-In . SVG Version: 6.00 Build 0)  -->
<!DOCTYPE svg PUBLIC "-//W3C//DTD SVG 1.1//EN" "http://www.w3.org/Graphics/SVG/1.1/DTD/svg11.dtd">
<svg version="1.1" id="screen02" xmlns="http://www.w3.org/2000/svg" xmlns:xlink="http://www.w3.org/1999/xlink" x="0px" y="0px"
	 width="1024px" height="768px" viewBox="0 0 1024 768" enable-background="new 0 0 1024 768" xml:space="preserve">
<rect x="-697.206" y="-562.406" fill="#3C89AF" width="2464.562" height="1878.905"/>
<g id="prodinfo">
	<g id="prodpic">
		<rect x="373.096" y="239.744" fill="#BCBCBC" width="253.224" height="290.614"/>
	</g>
	<g id="prodpaper">
		<path fill="#A8A8A8" d="M639.552,252.196v-33.207h-0.005h-31.678H389.907H358.23v33.207v356.528h-0.204v33.208h0.204h31.678
			h217.962h31.682h0.005v-33.208h-0.005L639.552,252.196L639.552,252.196z M607.869,608.73H389.907V252.198h217.962V608.73
			L607.869,608.73z"/>
		<path fill="#F2F2F2" d="M366.836,227.976v404.967h265.656V227.976H366.836z M609.716,462.072H389.623V288.975h220.093V462.072
			L609.716,462.072z"/>
		<rect x="379.433" y="487.803" fill="#A8A8A8" width="116.913" height="10.479"/>
		<rect x="379.433" y="245.134" fill="#A8A8A8" width="134.733" height="21.298"/>
		<rect x="395.756" y="516.035" fill="#A8A8A8" width="201.187" height="10.486"/>
		<rect x="395.756" y="535.661" fill="#A8A8A8" width="201.187" height="10.483"/>
		<rect x="395.756" y="555.284" fill="#A8A8A8" width="201.187" height="10.485"/>
		<rect x="395.756" y="574.91" fill="#A8A8A8" width="124.488" height="10.483"/>
		<polygon fill="#5E90A5" points="525.51,494.135 522.72,490.546 522.72,490.534 512.584,490.534 512.584,487.779 524.118,487.779 
			524.118,485.034 519.052,485.034 519.052,481.979 516.9,481.979 516.9,485.034 514.717,485.034 514.717,481.979 512.584,481.979 
			512.584,484.978 506.437,484.978 506.437,493.382 508.898,493.382 512.584,493.382 519.031,493.382 519.031,498.785 
			512.594,498.785 512.594,498.033 512.594,496.663 512.594,496.091 506.437,496.091 506.437,498.033 506.437,498.033 
			506.437,498.033 508.898,501.634 508.898,501.634 508.898,501.634 512.594,501.634 512.594,504.673 514.731,504.673 
			514.731,501.634 516.921,501.634 516.921,504.673 519.057,504.673 519.057,501.634 522.72,501.634 522.72,501.619 525.51,498.033 
			525.51,498.033 		"/>
		<g>
			<path fill="#282828" d="M533.695,499.704h4.021v-13.218l-3.814,0.997l-0.979-4.197l5.27-1.616h4.396v18.034h4.085v4.199h-12.979
				L533.695,499.704L533.695,499.704L533.695,499.704z"/>
			<path fill="#282828" d="M552.677,509.031l-2.194-1.271l1.925-3.854h-1.619v-5.714h4.864v6.06L552.677,509.031z"/>
			<path fill="#282828" d="M574.198,498.153c0,3.444-1.756,6.093-7.467,6.093c-5.709,0-7.466-2.646-7.466-6.093v-10.731
				c0-3.441,1.757-6.097,7.466-6.097c5.711,0,7.467,2.653,7.467,6.097V498.153z M564.135,497.469c0,1.723,0.473,2.441,2.602,2.441
				c2.127,0,2.604-0.725,2.604-2.441v-9.359c0-1.726-0.479-2.447-2.604-2.447c-2.129,0-2.602,0.727-2.602,2.447V497.469z"/>
			<path fill="#282828" d="M591.934,498.153c0,3.444-1.757,6.093-7.468,6.093c-5.709,0-7.468-2.646-7.468-6.093v-10.731
				c0-3.441,1.759-6.097,7.468-6.097c5.707,0,7.468,2.653,7.468,6.097V498.153z M581.862,497.469c0,1.723,0.479,2.441,2.604,2.441
				s2.602-0.725,2.602-2.441v-9.359c0-1.726-0.474-2.447-2.602-2.447c-2.13,0-2.604,0.727-2.604,2.447V497.469z"/>
			<path fill="#282828" d="M609.666,498.153c0,3.444-1.757,6.093-7.468,6.093c-5.708,0-7.468-2.646-7.468-6.093v-10.731
				c0-3.441,1.756-6.097,7.468-6.097c5.711,0,7.468,2.653,7.468,6.097V498.153z M599.597,497.469c0,1.723,0.473,2.441,2.604,2.441
				c2.129,0,2.604-0.725,2.604-2.441v-9.359c0-1.726-0.479-2.447-2.604-2.447c-2.131,0-2.604,0.727-2.604,2.447V497.469
				L599.597,497.469z"/>
		</g>
		<ellipse fill="#72C1C1" cx="603.733" cy="255.067" rx="15.214" ry="15.949"/>
		<g>
			<path fill="#FCFCFC" d="M602.073,249.41v-4.276h3.841v4.276H602.073z M602.073,264.725v-13.611h3.841v13.611H602.073z"/>
		</g>
	</g>
</g>
<g id="shoes2">
	<g id="Shoes_ori">
		<polygon fill="#94A6B0" points="506.845,368.714 490.729,343.471 485.402,328.536 434.346,326.427 434.346,423.27 537.023,423.27 
			579.348,422.119 579.348,380.981 		"/>
		<polygon fill="#E1EBF4" points="551.726,390.398 554.747,384.962 574.385,388.327 574.385,382.302 539.914,376.469 
			542.36,388.327 		"/>
		
			<rect x="495.359" y="361.879" transform="matrix(-0.8421 0.5393 -0.5393 -0.8421 1116.3298 399.9615)" fill="#FFFFFF" width="8.52" height="3.016"/>
		
			<rect x="498.927" y="367.232" transform="matrix(-0.842 0.5395 -0.5395 -0.842 1125.6498 407.8158)" fill="#FFFFFF" width="8.359" height="3.023"/>
		<polygon fill="#FFFFFF" points="519.677,379.635 520.136,373.118 517.148,372.615 516.662,379.414 		"/>
		<polygon fill="#FFFFFF" points="526.018,381.051 526.51,374.201 523.511,373.691 523.01,380.832 		"/>
		<polygon fill="#FFFFFF" points="532.677,382.322 533.181,375.325 530.184,374.819 529.663,382.113 		"/>
		<polygon fill="#F1D6E4" points="565.688,409.844 555.971,396.773 501.595,385.438 478.938,364.312 437.229,364.312 
			437.229,412.346 539.914,412.346 		"/>
		<polygon fill="#FFFFFF" points="565.688,409.844 539.914,412.346 437.229,412.346 437.229,421.514 539.914,421.514 
			582.239,418.635 582.239,412.346 582.239,408.236 		"/>
		<polygon fill="#CEEBF0" points="501.595,385.438 555.971,396.773 565.688,409.844 582.239,408.236 582.239,383.635 
			574.385,382.302 574.385,388.327 554.747,384.962 551.726,390.398 542.36,388.327 539.914,376.469 533.181,375.325 
			532.677,382.322 529.663,382.113 530.184,374.819 526.51,374.201 526.018,381.051 523.01,380.832 523.511,373.691 
			520.136,373.118 519.677,379.635 516.662,379.414 517.148,372.615 509.734,371.36 507.452,367.781 500.412,372.297 
			498.781,369.756 505.825,365.236 504.017,362.406 496.844,367.008 495.217,364.465 502.391,359.864 499.326,355.053 
			497.697,352.51 496.325,350.364 494.699,347.823 493.618,346.119 491.969,343.53 488.453,338.032 437.229,338.032 
			437.229,364.312 478.938,364.312 		"/>
		<polygon fill="#B7CDD9" points="539.914,421.514 437.229,421.514 437.229,425.923 539.914,425.923 582.239,424.77 
			582.239,421.514 582.239,418.635 		"/>
		<polygon fill="#B7CDD9" points="437.229,329.073 437.229,345.389 489.901,340.296 488.283,331.187 		"/>
		<path fill="#B7CDD9" d="M487.892,348.181c0.95,0,1.722,0.771,1.722,1.72c0,0.952-0.771,1.722-1.722,1.722
			c-0.954,0-1.723-0.77-1.723-1.722C486.173,348.951,486.94,348.181,487.892,348.181z"/>
		<path fill="#B7CDD9" d="M492.226,355.51c0.951,0,1.719,0.77,1.719,1.722s-0.77,1.721-1.719,1.721c-0.954,0-1.723-0.77-1.723-1.721
			S491.273,355.51,492.226,355.51z"/>
		<polygon fill="#B7CDD9" points="479.742,365.065 479.61,358.43 458.258,360.941 458.982,364.63 		"/>
	</g>
	<g id="tap_1_">
		
			<rect x="422.297" y="376.47" transform="matrix(0.9792 -0.2028 0.2028 0.9792 -69.7667 99.1465)" fill="#CCCCCC" width="53.157" height="27.022"/>
		<polygon fill="#FFFFFF" points="477.069,389.219 476.648,387.205 473.573,372.349 470.996,372.884 469.619,373.166 
			421.51,383.135 426.99,409.593 479.052,398.807 		"/>
		
			<rect x="463.9" y="383.067" transform="matrix(0.2029 0.9792 -0.9792 0.2029 751.0834 -154.9655)" fill="#DFE1DF" width="13.657" height="1.602"/>
		
			<rect x="460.136" y="383.883" transform="matrix(0.2028 0.9792 -0.9792 0.2028 748.9388 -150.5987)" fill="#DFE1DF" width="13.655" height="1.597"/>
		
			<rect x="422.444" y="398.586" transform="matrix(0.2028 0.9792 -0.9792 0.2028 733.3243 -101.9479)" fill="#DFE1DF" width="13.655" height="1.597"/>
		
			<rect x="458.8" y="381.698" transform="matrix(0.2033 0.9791 -0.9791 0.2033 743.0007 -148.1052)" fill="#DFE1DF" width="7.413" height="1.602"/>
		<polygon fill="#DFE1DF" points="447.485,396.684 449.396,394.693 449.405,394.693 448.256,389.141 449.962,388.791 
			451.268,395.107 452.977,394.748 452.401,391.975 454.296,391.581 454.053,390.411 452.155,390.802 451.909,389.602 
			453.802,389.212 453.562,388.041 451.701,388.427 451.008,385.068 445.797,386.143 446.067,387.495 446.489,389.508 
			447.219,393.039 443.865,393.732 443.135,390.214 443.6,390.114 444.448,389.934 444.805,389.864 444.11,386.488 442.904,386.746 
			442.904,386.746 442.904,386.746 440.953,388.552 440.953,388.552 440.953,388.552 441.366,390.575 439.484,390.969 
			439.723,392.135 441.615,391.746 441.856,392.945 439.974,393.339 440.219,394.511 442.1,394.118 442.518,396.119 
			442.525,396.119 445.067,397.188 445.067,397.188 		"/>
		<polygon fill="#495965" points="491.316,352.177 476.648,387.205 477.069,389.219 491.566,354.596 495.719,360.662 
			496.689,360.018 		"/>
		<polygon fill="#495965" points="507.844,378.354 475.456,395.762 476.106,396.734 509.527,378.767 505.277,372.564 
			504.313,373.206 		"/>
	</g>
</g>
<g id="mobile2" enable-background="new    ">
	<g>
		<path fill="#F7F7F7" d="M109.318,114.107c-8.271-5.024-17.815-7.663-27.514-7.663H-93.484c-29.398,0-53.353,23.913-53.353,53.349
			v453.568c0,14.859,6.31,29.182,17.283,39.271c9.87,9.052,22.666,14.039,36.064,14.039h175.29
			c29.402,0,53.351-23.912,53.351-53.349V159.795C135.154,140.978,125.491,123.873,109.318,114.107z M122.678,170.591v432.005
			c0,0.219-0.181,0.357-0.357,0.357h-253.938c-0.214,0-0.356-0.178-0.356-0.357V170.591c0-0.214,0.18-0.355,0.356-0.355h253.938
			C122.499,170.2,122.678,170.376,122.678,170.591z"/>
		<path fill="#F7F7F7" d="M81.804,667.385H-93.484c-13.544,0-26.516-5.063-36.529-14.228c-11.112-10.228-17.461-24.689-17.461-39.77
			V159.795c0-29.793,24.229-53.982,53.988-53.982H81.8c9.838,0,19.493,2.672,27.868,7.729c16.354,9.904,26.119,27.188,26.119,46.254
			v453.566C135.791,643.15,111.564,667.385,81.804,667.385z M-93.485,107.122c-29.043,0-52.708,23.629-52.708,52.705v453.535
			c0,14.679,6.2,28.828,17.068,38.806c9.729,8.941,22.378,13.899,35.632,13.899h175.29c29.043,0,52.673-23.631,52.673-52.704
			V159.795c0-18.604-9.516-35.496-25.479-45.112c-8.197-4.953-17.568-7.56-27.19-7.56L-93.485,107.122L-93.485,107.122z"/>
	</g>
	<path fill="#CECCCC" d="M-5.859,614.469c10.767,0,19.49,8.729,19.49,19.484c0,10.766-8.729,19.495-19.49,19.495
		c-10.764,0-19.492-8.73-19.492-19.495C-25.351,623.197-16.62,614.469-5.859,614.469z"/>
	<path fill="#F7F7F7" d="M-5.859,616.677c9.551,0,17.318,7.729,17.318,17.32c0,9.551-7.734,17.315-17.318,17.315
		c-9.553,0-17.318-7.731-17.318-17.315C-23.177,624.407-15.408,616.677-5.859,616.677z"/>
	<polygon fill="#FFFFFF" fill-opacity="0" points="122.322,602.989 -131.615,602.989 122.322,170.2 	"/>
	<g id="camview">
		<g>
			<rect x="-131.972" y="515.035" fill="#3A3A3A" width="254.651" height="87.918"/>
			<rect x="-131.972" y="170.233" fill="#3A3A3A" width="254.651" height="51.034"/>
			<g>
				<polyline fill="none" stroke="#F7F7F7" stroke-miterlimit="10" points="60.102,238.082 93.923,238.082 93.923,279.1 				"/>
				<polyline fill="none" stroke="#F7F7F7" stroke-miterlimit="10" points="-71.571,238.082 -105.39,238.082 -105.39,279.1 				"/>
				<polyline fill="none" stroke="#F7F7F7" stroke-miterlimit="10" points="-71.571,484.646 -105.39,484.646 -105.39,443.594 				
					"/>
				<polyline fill="none" stroke="#F7F7F7" stroke-miterlimit="10" points="60.102,484.646 93.923,484.646 93.923,443.594 				"/>
			</g>
			<g id="shotbtn_7_">
				<path fill="#F7F7F7" d="M24.465,559.548c0,16.749-13.572,30.322-30.318,30.322s-30.324-13.577-30.324-30.322
					c0-16.757,13.577-30.325,30.324-30.325C10.893,529.22,24.465,542.791,24.465,559.548z"/>
				<g id="camicon_7_">
					<g>
						<rect x="-15.123" y="554.385" fill="#F7F7F7" width="18.563" height="14.283"/>
						<path fill="#545454" d="M4.197,569.425h-20.072V553.63H4.197V569.425z M-14.369,567.912H2.689v-12.773h-17.06L-14.369,567.912
							L-14.369,567.912z"/>
					</g>
					<g>
						<path fill="#F7F7F7" d="M-1.224,561.506c0,1.894-1.531,3.423-3.421,3.423c-1.891,0-3.423-1.53-3.423-3.423
							s1.533-3.42,3.423-3.42C-2.759,558.084-1.224,559.619-1.224,561.506z"/>
						<path fill="#545454" d="M-4.645,565.678c-2.306,0-4.18-1.874-4.18-4.177c0-2.305,1.874-4.176,4.18-4.176
							c2.303,0,4.175,1.871,4.175,4.176C-0.47,563.804-2.344,565.678-4.645,565.678z M-4.645,558.843
							c-1.475,0-2.669,1.19-2.669,2.663c0,1.471,1.194,2.668,2.669,2.668c1.471,0,2.665-1.197,2.665-2.668
							C-1.979,560.034-3.177,558.843-4.645,558.843z"/>
					</g>
					<rect x="-12.916" y="556.723" fill="#545454" width="2.783" height="1.51"/>
					<rect x="-2.761" y="551.881" fill="#545454" width="5.455" height="1.509"/>
					<rect x="-14.59" y="551.881" fill="#545454" width="3.313" height="1.509"/>
				</g>
			</g>
			<g>
				<rect x="78.072" y="550.038" fill="#EAE8E8" width="24.354" height="2.268"/>
				<rect x="78.072" y="559.695" fill="#EAE8E8" width="24.354" height="2.264"/>
				<rect x="78.072" y="568.996" fill="#EAE8E8" width="24.354" height="2.268"/>
			</g>
			<g>
				<path fill="#FFFFFF" d="M75.555,183.611v18.962h8.021c0.403,0,0.729-0.327,0.729-0.729c0-0.402-0.324-0.729-0.729-0.729h-6.563
					v-16.047h28.077v16.047H98.53c-0.402,0-0.73,0.326-0.73,0.729c0,0.399,0.328,0.729,0.73,0.729h8.021v-18.962H75.555z"/>
				<path fill="#FFFFFF" d="M98.407,197.648c0.14,0.124,0.313,0.185,0.482,0.185c0.2,0,0.399-0.081,0.545-0.243
					c0.271-0.301,0.24-0.762-0.059-1.025l-8.327-7.422l-8.324,7.422c-0.302,0.267-0.325,0.728-0.06,1.025
					c0.269,0.301,0.729,0.326,1.029,0.062l6.625-5.905v17.822c0,0.397,0.327,0.729,0.729,0.729s0.729-0.326,0.729-0.729v-17.822
					L98.407,197.648z"/>
			</g>
			<rect id="shutter" x="-131.972" y="221.267" fill="#FFFFFF" width="254.651" height="294.232"/>
		</g>
	</g>
	<rect x="-150.111" y="219.658" fill="#F7F7F7" width="2.565" height="30.045"/>
	<rect x="-150.111" y="255.474" fill="#F7F7F7" width="2.565" height="30.043"/>
	<rect x="135.441" y="194.322" fill="#F7F7F7" width="2.563" height="42.264"/>
	<path fill="#4F4F4F" d="M14.098,146.322c0,1.176-1.313,2.137-2.854,2.137h-40.091c-1.532,0-2.854-0.927-2.854-2.137l0,0
		c0-1.214,1.322-2.138,2.854-2.138h40.091C12.781,144.184,14.098,145.111,14.098,146.322L14.098,146.322z"/>
	<path fill="#4F4F4F" d="M-10.456,122.128c2.172,0,3.958,1.779,3.958,3.955c0,2.175-1.786,3.956-3.958,3.956
		c-2.174,0-3.956-1.781-3.956-3.956C-14.413,123.873-12.631,122.128-10.456,122.128z"/>
	<g id="thumnail">
		<rect x="-119.5" y="530.232" fill="#3C89AF" width="56" height="56"/>
		<g id="shoes_x5F_s">
			<g id="Shoes_ori_1_">
				<polygon fill="#94A6B0" points="-90.945,557.15 -94.369,551.787 -95.501,548.613 -106.35,548.165 -106.35,568.743 
					-84.532,568.743 -75.538,568.5 -75.538,559.759 				"/>
				<polygon fill="#E1EBF4" points="-81.407,561.76 -80.765,560.602 -76.593,561.318 -76.593,560.038 -83.917,558.801 
					-83.398,561.318 				"/>
				
					<rect x="-93.39" y="555.692" transform="matrix(-0.8422 0.5392 -0.5392 -0.8422 129.4146 1074.1462)" fill="#FFFFFF" width="1.811" height="0.64"/>
				
					<rect x="-92.622" y="556.856" transform="matrix(-0.8419 0.5396 -0.5396 -0.8419 131.7151 1075.7639)" fill="#FFFFFF" width="1.777" height="0.643"/>
				<polygon fill="#FFFFFF" points="-88.218,559.47 -88.12,558.089 -88.755,557.979 -88.858,559.427 				"/>
				<polygon fill="#FFFFFF" points="-86.87,559.771 -86.765,558.316 -87.403,558.209 -87.51,559.725 				"/>
				<polygon fill="#FFFFFF" points="-85.455,560.044 -85.348,558.555 -85.985,558.448 -86.096,559.998 				"/>
				<polygon fill="#F1D6E4" points="-78.441,565.89 -80.505,563.113 -92.06,560.704 -96.875,556.218 -105.738,556.218 
					-105.738,566.424 -83.917,566.424 				"/>
				<polygon fill="#FFFFFF" points="-78.441,565.89 -83.917,566.424 -105.738,566.424 -105.738,568.37 -83.917,568.37 
					-74.924,567.76 -74.924,566.424 -74.924,565.551 				"/>
				<polygon fill="#CEEBF0" points="-92.06,560.704 -80.505,563.113 -78.441,565.89 -74.924,565.551 -74.924,560.32 
					-76.593,560.038 -76.593,561.318 -80.765,560.602 -81.407,561.76 -83.398,561.318 -83.917,558.801 -85.348,558.555 
					-85.455,560.044 -86.096,559.998 -85.985,558.448 -86.765,558.316 -86.87,559.771 -87.51,559.725 -87.403,558.209 
					-88.12,558.089 -88.218,559.47 -88.858,559.427 -88.755,557.979 -90.331,557.715 -90.815,556.952 -92.311,557.912 
					-92.657,557.372 -91.161,556.411 -91.545,555.81 -93.07,556.787 -93.416,556.248 -91.891,555.27 -92.542,554.248 
					-92.888,553.707 -93.18,553.254 -93.525,552.714 -93.755,552.349 -94.105,551.801 -94.852,550.633 -105.738,550.633 
					-105.738,556.218 -96.875,556.218 				"/>
				<polygon fill="#B7CDD9" points="-83.917,568.37 -105.738,568.37 -105.738,569.306 -83.917,569.306 -74.924,569.063 
					-74.924,568.37 -74.924,567.76 				"/>
				<polygon fill="#B7CDD9" points="-105.738,548.727 -105.738,552.194 -94.545,551.112 -94.888,549.177 				"/>
				<path fill="#B7CDD9" d="M-94.971,552.788c0.202,0,0.366,0.163,0.366,0.365s-0.164,0.364-0.366,0.364s-0.365-0.162-0.365-0.364
					S-95.174,552.788-94.971,552.788z"/>
				<path fill="#B7CDD9" d="M-94.051,554.344c0.201,0,0.364,0.164,0.364,0.366c0,0.2-0.163,0.364-0.364,0.364
					c-0.203,0-0.366-0.164-0.366-0.364S-94.253,554.344-94.051,554.344z"/>
				<polygon fill="#B7CDD9" points="-96.703,556.375 -96.732,554.968 -101.269,555.5 -101.115,556.282 				"/>
			</g>
			<g id="tap_2_">
				
					<rect x="-108.947" y="558.819" transform="matrix(0.9793 -0.2026 0.2026 0.9793 -115.9571 -9.2794)" fill="#CCCCCC" width="11.297" height="5.74"/>
				<polygon fill="#FFFFFF" points="-97.272,561.51 -97.361,561.08 -98.014,557.926 -98.562,558.036 -98.854,558.096 
					-109.077,560.217 -107.913,565.838 -96.85,563.547 				"/>
				
					<rect x="-100.048" y="560.188" transform="matrix(0.2029 0.9792 -0.9792 0.2029 470.1105 543.2047)" fill="#DFE1DF" width="2.902" height="0.34"/>
				
					<rect x="-100.89" y="560.37" transform="matrix(0.2027 0.9793 -0.9793 0.2027 469.6216 544.3224)" fill="#DFE1DF" width="2.901" height="0.339"/>
				
					<rect x="-108.875" y="563.509" transform="matrix(0.2027 0.9793 -0.9793 0.2027 466.3281 554.6448)" fill="#DFE1DF" width="2.901" height="0.339"/>
				
					<rect x="-101.149" y="559.883" transform="matrix(0.2039 0.979 -0.979 0.2039 468.3907 544.137)" fill="#DFE1DF" width="1.576" height="0.34"/>
				<polygon fill="#DFE1DF" points="-103.558,563.094 -103.152,562.673 -103.15,562.673 -103.395,561.491 -103.032,561.419 
					-102.754,562.76 -102.391,562.682 -102.513,562.094 -102.111,562.01 -102.162,561.761 -102.566,561.844 -102.618,561.591 
					-102.216,561.508 -102.267,561.26 -102.662,561.342 -102.81,560.628 -103.917,560.854 -103.86,561.141 -103.77,561.568 
					-103.615,562.319 -104.327,562.469 -104.483,561.719 -104.384,561.697 -104.203,561.66 -104.127,561.644 -104.275,560.927 
					-104.531,560.982 -104.531,560.982 -104.531,560.982 -104.946,561.366 -104.946,561.366 -104.946,561.366 -104.858,561.798 
					-105.258,561.881 -105.207,562.13 -104.805,562.047 -104.754,562.302 -105.154,562.385 -105.102,562.635 -104.702,562.551 
					-104.614,562.973 -104.612,562.973 -104.072,563.201 -104.072,563.201 				"/>
				<polygon fill="#495965" points="-94.244,553.636 -97.361,561.08 -97.272,561.51 -94.191,554.151 -93.308,555.439 
					-93.102,555.302 				"/>
				<polygon fill="#495965" points="-90.733,559.199 -97.614,562.898 -97.476,563.105 -90.374,559.287 -91.278,557.969 
					-91.482,558.104 				"/>
			</g>
		</g>
	</g>
</g>
<g id="logo" enable-background="new    ">
	<text transform="matrix(1 0 0 1 25.6594 84.9941)" fill="#FFFFFF" font-family="'ArialMT'" font-size="15.6084">Make your own business from 5</text>
	<g>
		<text transform="matrix(1 0 0 1 20.6746 70.9287)" fill="#FFFFFF" font-family="'ArialMT'" font-size="71.0182">FROM5</text>
	</g>
</g>
<g id="partners">
	<g id="partner4">
		<g id="reword1">
			<circle fill="#C9BC6B" cx="183.385" cy="174.905" r="40.703"/>
			<circle fill="#F5E99A" cx="185.454" cy="172.837" r="40.702"/>
			<circle fill="#FCF6B0" cx="185.453" cy="172.837" r="36.895"/>
			<polygon fill="#A09550" points="162.771,185.35 162.771,185.35 168.779,194.091 168.779,194.091 176.617,194.091 176.617,201.53 
				181.222,201.53 181.222,194.091 185.926,194.091 185.926,201.53 190.529,201.53 190.529,194.091 198.47,194.091 198.47,194.091 
				198.47,194.091 203.81,185.317 203.81,185.317 203.81,185.317 203.81,180.61 190.529,180.61 190.529,181.979 190.529,185.317 
				190.529,187.184 176.683,187.184 176.683,173.971 190.597,173.971 198.47,173.971 203.81,173.971 203.81,153.487 
				190.597,153.487 190.597,146.214 185.992,146.214 185.992,153.62 181.289,153.62 181.289,146.214 176.683,146.214 
				176.683,153.62 165.742,153.62 165.742,160.327 190.597,160.327 190.597,167.065 168.779,167.065 168.779,167.065 
				162.771,175.807 			"/>
			<polygon fill="#C9BC6B" points="163.832,185.348 163.832,185.348 169.838,194.091 169.838,194.124 177.713,194.124 
				177.713,201.53 182.316,201.53 182.316,194.124 187.019,194.124 187.019,201.53 191.623,201.53 191.623,194.124 199.564,194.124 
				199.564,194.124 199.564,194.124 204.869,185.348 204.869,185.348 204.869,185.348 204.869,180.61 191.623,180.61 
				191.623,182.014 191.623,185.348 191.623,187.184 177.777,187.184 177.777,174.007 191.658,174.007 199.564,174.007 
				204.869,174.007 204.869,153.52 191.658,153.52 191.658,146.214 187.052,146.214 187.052,153.655 182.349,153.655 
				182.349,146.214 177.744,146.214 177.744,153.655 166.834,153.655 166.834,160.358 191.658,160.358 191.658,167.065 
				169.838,167.065 169.838,167.1 163.832,175.839 			"/>
			<g>
				<path fill="#C9BC6B" d="M210.771,199.661c0.258-0.242,0.521-0.48,0.773-0.732c14.406-14.408,14.406-37.77-0.002-52.178
					s-37.771-14.408-52.179,0c-0.252,0.252-0.489,0.514-0.733,0.771c14.459-13.658,37.25-13.42,51.404,0.734
					C224.191,162.411,224.427,185.202,210.771,199.661z"/>
			</g>
			<rect x="182.605" y="266.042" fill="#DDB985" width="6.471" height="5.322"/>
		</g>
		<polygon fill="#1A1A1A" points="219.113,385.484 217.833,385.768 217.833,386.052 141.196,386.052 140.768,386.052 
			140.499,386.557 139.632,445.487 139.632,508.331 217.833,508.331 217.833,441.504 223.662,451.388 223.662,394.025 		"/>
		<polygon fill="#FCE9C6" points="234.895,310.695 216.411,310.695 216.411,282.258 216.838,282.258 217.122,280.977 
			140.768,262.635 118.161,357.33 131.385,360.459 134.228,372.687 136.788,384.061 136.788,388.896 216.411,388.896 
			216.411,343.398 234.895,343.398 		"/>
		<polygon fill="#FDF0D8" points="223.662,279.981 147.308,261.783 123.991,356.478 143.897,361.454 143.897,388.896 
			223.52,388.896 223.52,280.836 223.379,280.836 		"/>
		<polygon fill="#333333" points="128.968,237.469 125.84,277.992 196.79,283.394 194.799,310.979 230.203,313.679 235.465,245.574 
					"/>
		<polygon fill="#4D4D4D" points="132.665,244.01 129.535,284.533 200.486,289.934 198.353,317.519 233.899,320.22 239.019,252.113 
					"/>
		<rect x="214.989" y="309.274" fill="#FDF0D8" width="27.017" height="34.124"/>
		<circle fill="#666666" cx="177.594" cy="318.514" r="6.825"/>
		<polygon fill="#6C3829" points="193.803,511.175 187.263,511.175 174.181,511.175 167.642,511.175 146.74,511.175 146.74,602.173 
			173.756,602.173 173.756,529.659 187.974,529.659 187.974,602.173 212.145,602.173 212.145,511.175 		"/>
		<polygon fill="#4D4D4D" points="143.897,388.896 143.897,389.18 143.897,446.482 143.897,511.175 223.52,511.175 223.52,445.2 
			223.52,389.465 223.52,388.896 		"/>
		<polygon fill="#A39090" points="197.358,511.175 190.818,511.175 177.736,511.175 171.197,511.175 149.584,511.175 
			149.584,602.173 176.599,602.173 176.599,529.659 190.818,529.659 190.818,602.173 216.411,602.173 216.411,511.175 		"/>
		<rect x="155.271" y="602.173" fill="#FCEBCA" width="17.063" height="9.953"/>
		<rect x="195.084" y="602.173" fill="#FCEBCA" width="17.063" height="9.953"/>
		<rect x="145.318" y="612.126" fill="#FDF0D8" width="27.017" height="11.375"/>
		<rect x="183.709" y="612.126" fill="#FDF0D8" width="28.438" height="11.375"/>
		<rect x="149.584" y="511.175" fill="#7D6666" width="66.827" height="9.953"/>
		<polygon fill="#EACFA9" points="145.462,384.489 137.926,359.463 163.377,365.436 		"/>
		<g id="downhand4">
			<polygon fill="#1A1A1A" points="111.905,440.224 135.081,452.738 139.632,442.926 139.632,445.487 140.499,388.896 
				139.13,391.354 			"/>
			<polygon fill="#1A1A1A" points="248.118,439.942 223.662,394.025 223.662,451.388 224.373,452.594 			"/>
			<polygon fill="#333333" points="115.603,443.636 139.063,456.15 143.897,446.482 143.897,389.18 			"/>
			<polygon fill="#333333" points="253.237,443.636 224.231,389.037 223.52,389.465 223.52,445.2 229.349,456.15 			"/>
			<polygon fill="#FCE9C6" points="137.641,455.296 137.783,455.154 119.583,445.486 96.551,488.71 101.809,491.41 124.558,448.329 
							"/>
			
				<rect x="112.362" y="448.905" transform="matrix(0.8831 0.4692 -0.4692 0.8831 236.0614 -0.8591)" fill="#FDF0D8" width="14.786" height="48.766"/>
			<polygon fill="#FCE9C6" points="250.677,445.486 250.677,445.486 232.477,455.154 255.37,498.237 259.635,495.961 
				236.743,452.879 			"/>
			
				<rect x="247.246" y="446.345" transform="matrix(0.8831 -0.4692 0.4692 0.8831 -191.0477 174.7563)" fill="#FDF0D8" width="15.784" height="48.77"/>
		</g>
		<g id="uphand4">
			<polygon fill="#FCE9C6" points="131.296,380.249 131.437,380.391 113.237,390.066 90.205,346.806 95.464,344.104 
				118.213,387.223 			"/>
			<polygon fill="#FDF0D8" points="118.315,387.261 131.373,380.319 108.492,337.216 95.434,344.159 			"/>
			<polygon fill="#1A1A1A" points="111.434,391.07 134.61,378.546 139.161,388.367 139.161,385.803 140.028,444.784 			"/>
			<polygon fill="#1A1A1A" points="247.647,391.354 223.191,437.309 223.191,379.897 223.902,378.69 			"/>
			<polygon fill="#333333" points="115.133,387.656 138.593,375.131 143.427,384.807 143.427,442.158 			"/>
			<polygon fill="#333333" points="252.766,387.656 223.76,442.302 223.05,441.874 223.05,386.091 228.879,375.131 			"/>
			<polygon fill="#FCE9C6" points="250.207,385.805 250.207,385.805 232.007,376.128 254.899,333.008 259.165,335.286 
				236.272,378.406 			"/>
			<polygon fill="#FDF0D8" points="236.267,378.392 250.206,385.803 273.089,342.699 259.149,335.286 			"/>
		</g>
		<rect x="143.897" y="400.271" fill="#FFFFFF" width="79.623" height="5.688"/>
		<rect x="143.897" y="417.333" fill="#FFFFFF" width="79.623" height="5.688"/>
		<rect x="143.897" y="435.817" fill="#FFFFFF" width="79.623" height="5.688"/>
		<rect x="143.897" y="452.879" fill="#FFFFFF" width="79.623" height="5.688"/>
		<rect x="143.897" y="471.364" fill="#FFFFFF" width="79.623" height="5.688"/>
		<rect x="143.897" y="488.425" fill="#FFFFFF" width="79.623" height="5.688"/>
	</g>
	<g id="partner3">
		<polygon fill="#BDC9BA" points="1479.117,384.629 1479.117,384.914 1479.117,506.907 1558.742,506.907 1558.742,385.197 
			1558.742,384.629 		"/>
		<polygon fill="#FCE9C6" points="1574.385,310.692 1555.899,310.692 1555.899,282.255 1556.323,282.255 1556.61,280.975 
			1480.257,262.634 1457.647,357.329 1470.871,360.458 1473.718,372.684 1476.274,384.058 1476.274,388.893 1555.899,388.893 
			1555.899,343.394 1574.385,343.394 		"/>
		<polygon fill="#FDF0D8" points="1563.149,279.98 1486.798,261.781 1463.479,356.475 1483.385,361.453 1483.385,388.893 
			1563.01,388.893 1563.01,280.833 1562.865,280.833 		"/>
		<polygon fill="#BCA466" points="1468.457,237.467 1465.324,277.99 1536.276,283.392 1534.283,310.977 1569.69,313.677 
			1574.951,245.572 		"/>
		<polygon fill="#E5C66C" points="1472.151,244.008 1469.022,284.53 1539.971,289.933 1537.841,317.516 1573.385,320.219 
			1578.509,252.112 		"/>
		<rect x="1554.477" y="309.27" fill="#FDF0D8" width="27.014" height="34.124"/>
		<g id="downhand2">
			<g>
				
					<rect x="1527.724" y="435.902" transform="matrix(-0.4791 -0.8778 0.8778 -0.4791 1953.2332 2046.5956)" fill="#FDF0D8" width="112.341" height="15.642"/>
				
					<rect x="1518.376" y="445.884" transform="matrix(-0.4791 -0.8777 0.8777 -0.4791 1935.0557 2045.7577)" fill="#FCE9C6" width="112.302" height="5.686"/>
			</g>
			<g>
				
					<rect x="1407.549" y="434.515" transform="matrix(0.4791 -0.8778 0.8778 0.4791 374.2101 1515.231)" fill="#FDF0D8" width="112.341" height="15.641"/>
				
					<rect x="1416.924" y="444.578" transform="matrix(0.4791 -0.8778 0.8778 0.4791 374.6245 1526.1067)" fill="#FCE9C6" width="112.342" height="5.69"/>
			</g>
		</g>
		<circle fill="#85BACE" cx="1517.082" cy="318.512" r="6.824"/>
		<rect x="1494.76" y="553.829" fill="#FCEBCA" width="17.063" height="58.297"/>
		<rect x="1534.571" y="553.829" fill="#FCEBCA" width="17.063" height="58.297"/>
		<rect x="1484.805" y="612.126" fill="#FDF0D8" width="27.016" height="11.375"/>
		<rect x="1523.196" y="612.126" fill="#FDF0D8" width="28.438" height="11.375"/>
		<rect x="1516.089" y="529.657" fill="none" width="11.375" height="25.594"/>
		<rect x="1527.464" y="529.657" fill="#6C3829" width="2.844" height="25.594"/>
		<rect x="1486.227" y="511.174" fill="#6C3829" width="2.844" height="44.076"/>
		<polygon fill="#A39090" points="1489.071,511.174 1489.071,555.251 1516.089,555.251 1516.089,529.657 1530.305,529.657 
			1530.305,555.251 1555.899,555.251 1555.899,511.174 		"/>
		<rect x="1489.071" y="511.174" fill="#7D6666" width="66.828" height="9.953"/>
		<polygon fill="#FDEBCC" points="1484.948,384.486 1481.108,371.973 1477.41,359.462 1490.065,362.448 1502.862,365.433 
			1493.905,374.962 		"/>
		
			<rect x="1459.875" y="367.54" transform="matrix(0.9928 0.1201 -0.1201 0.9928 55.7113 -175.0949)" fill="#BCA466" width="41.242" height="14.221"/>
		
			<rect x="1464.128" y="364.736" transform="matrix(0.9928 0.1201 -0.1201 0.9928 55.4034 -175.6212)" fill="#E5C66C" width="41.239" height="14.22"/>
		<g id="shoess2">
			<path fill="#F2F3F4" d="M1628.951,150.94c-27.858,0-50.443,22.585-50.443,50.446c0,15.683,7.154,29.692,18.383,38.944
				l-1.854,18.913l17.355-10.206c5.188,1.804,10.756,2.795,16.559,2.795c27.86,0,50.445-22.586,50.445-50.445
				C1679.397,173.525,1656.812,150.94,1628.951,150.94z"/>
			<circle fill="#7C7C7C" cx="1629.534" cy="201.75" r="46.175"/>
			<g id="Shoes_ori_3_">
				<polygon fill="#94A6B0" points="1632.504,193.502 1622.697,186.094 1618.515,181.107 1598.57,187.585 1612.398,224.845 
					1651.903,210.186 1668.022,203.698 1662.149,187.871 				"/>
				<polygon fill="#E1EBF4" points="1652.865,195.439 1653.255,192.915 1661.287,191.407 1660.427,189.089 1646.334,191.766 
					1648.968,195.98 				"/>
				
					<rect x="1627.385" y="191.764" transform="matrix(-0.602 0.7985 -0.7985 -0.602 2763.4678 -992.6776)" fill="#FFFFFF" width="3.496" height="1.238"/>
				
					<rect x="1629.323" y="193.485" transform="matrix(-0.6014 0.7989 -0.7989 -0.6014 2767.074 -992.2255)" fill="#FFFFFF" width="3.429" height="1.241"/>
				<polygon fill="#FFFFFF" points="1639,195.872 1638.244,193.301 1637.023,193.533 1637.807,196.219 				"/>
				<polygon fill="#FFFFFF" points="1641.639,195.513 1640.853,192.807 1639.627,193.039 1640.449,195.858 				"/>
				<polygon fill="#FFFFFF" points="1644.385,195.051 1643.577,192.288 1642.353,192.521 1643.194,195.4 				"/>
				<polygon fill="#F1D6E4" points="1661.014,200.927 1655.408,197.286 1632.869,200.688 1621.135,195.796 1605.091,201.75 
					1611.947,220.23 1651.453,205.57 				"/>
				<polygon fill="#FFFFFF" points="1661.014,200.927 1651.453,205.57 1611.947,220.23 1613.258,223.758 1652.762,209.097 
					1668.636,201.947 1667.739,199.527 1667.152,197.945 				"/>
				<polygon fill="#CEEBF0" points="1632.869,200.688 1655.408,197.286 1661.014,200.927 1667.152,197.945 1663.64,188.479 
					1660.427,189.089 1661.287,191.407 1653.255,192.915 1652.865,195.439 1648.968,195.98 1646.334,191.766 1643.577,192.288 
					1644.385,195.051 1643.194,195.4 1642.353,192.521 1640.853,192.807 1641.639,195.513 1640.449,195.858 1639.627,193.039 
					1638.244,193.301 1639,195.872 1637.807,196.219 1637.023,193.533 1633.99,194.11 1632.602,193.059 1630.541,195.801 
					1629.551,195.055 1631.614,192.311 1630.513,191.481 1628.409,194.275 1627.424,193.529 1629.524,190.735 1627.658,189.323 
					1626.671,188.575 1625.837,187.946 1624.846,187.2 1624.187,186.699 1623.184,185.938 1621.047,184.325 1601.339,191.639 
					1605.091,201.75 1621.135,195.796 				"/>
				<polygon fill="#B7CDD9" points="1652.762,209.097 1613.258,223.758 1613.885,225.453 1653.392,210.792 1669.512,204.307 
					1669.051,203.054 1668.636,201.947 				"/>
				<polygon fill="#B7CDD9" points="1600.058,188.191 1602.387,194.469 1621.926,184.989 1620.004,181.716 				"/>
				<path fill="#B7CDD9" d="M1622.279,188.31c0.364-0.136,0.771,0.05,0.908,0.416c0.135,0.365-0.052,0.771-0.416,0.907
					c-0.368,0.137-0.774-0.051-0.909-0.415C1621.725,188.852,1621.911,188.446,1622.279,188.31z"/>
				<path fill="#B7CDD9" d="M1624.991,190.51c0.366-0.138,0.771,0.051,0.908,0.417c0.137,0.366-0.05,0.771-0.416,0.908
					c-0.367,0.137-0.771-0.051-0.909-0.418C1624.44,191.053,1624.627,190.647,1624.991,190.51z"/>
				<polygon fill="#B7CDD9" points="1621.553,195.969 1620.555,193.436 1612.697,197.451 1613.507,198.765 				"/>
			</g>
			<g id="tap_4_">
				
					<rect x="1602.33" y="204.432" transform="matrix(0.8475 -0.5308 0.5308 0.8475 134.5574 888.3063)" fill="#CCCCCC" width="21.815" height="11.089"/>
				<polygon fill="#FFFFFF" points="1623.973,205.644 1623.524,204.93 1620.219,199.653 1619.304,200.225 1618.816,200.531 
					1601.73,211.237 1607.615,220.632 1626.105,209.05 				"/>
				
					<rect x="1618.018" y="204.14" transform="matrix(0.5308 0.8475 -0.8475 0.5308 933.793 -1277.7117)" fill="#DFE1DF" width="5.604" height="0.657"/>
				
					<rect x="1616.469" y="205.031" transform="matrix(0.5307 0.8476 -0.8476 0.5307 933.9581 -1276.0457)" fill="#DFE1DF" width="5.605" height="0.655"/>
				
					<rect x="1604.257" y="216.015" transform="matrix(0.5308 0.8475 -0.8475 0.5308 937.4 -1260.4777)" fill="#DFE1DF" width="5.604" height="0.657"/>
				
					<rect x="1615.86" y="204.761" transform="matrix(0.5304 0.8478 -0.8478 0.5304 933.4299 -1274.8407)" fill="#DFE1DF" width="3.04" height="0.654"/>
				<polygon fill="#DFE1DF" points="1613.656,212.741 1614.109,211.702 1614.112,211.701 1612.877,209.729 1613.482,209.349 
					1614.887,211.594 1615.493,211.212 1614.88,210.227 1615.549,209.805 1615.286,209.389 1614.613,209.811 1614.348,209.384 
					1615.021,208.962 1614.761,208.548 1614.101,208.962 1613.352,207.768 1611.502,208.926 1611.802,209.407 1612.25,210.12 
					1613.033,211.375 1611.844,212.122 1611.058,210.87 1611.224,210.767 1611.526,210.576 1611.652,210.499 1610.904,209.299 
					1610.475,209.571 1610.475,209.571 1610.475,209.571 1609.983,210.545 1609.983,210.545 1609.983,210.545 1610.43,211.263 
					1609.763,211.684 1610.021,212.098 1610.694,211.678 1610.961,212.105 1610.291,212.525 1610.552,212.942 1611.219,212.521 
					1611.668,213.232 1611.671,213.231 1612.802,213.28 1612.802,213.28 				"/>
				<polygon fill="#495965" points="1624.168,189.358 1623.524,204.93 1623.973,205.644 1624.608,190.254 1627.071,191.994 
					1627.352,191.608 				"/>
				<polygon fill="#495965" points="1634.261,197.07 1624.285,208.393 1624.677,208.673 1634.969,196.989 1632.447,195.208 
					1632.172,195.594 				"/>
			</g>
		</g>
		<g id="uphand2">
			<g>
				
					<rect x="1381.877" y="366.303" transform="matrix(0.7962 0.605 -0.605 0.7962 519.2719 -793.5366)" fill="#FDF0D8" width="111.438" height="15.517"/>
				
					<rect x="1388.343" y="362.898" transform="matrix(0.7962 0.605 -0.605 0.7962 515.4771 -799.0959)" fill="#FCE9C6" width="111.436" height="5.642"/>
			</g>
			<g>
				
					<rect x="1541.729" y="366.246" transform="matrix(-0.7647 0.6443 -0.6443 -0.7647 3060.0623 -369.2693)" fill="#FDF0D8" width="111.429" height="15.515"/>
				
					<rect x="1534.888" y="363.097" transform="matrix(-0.7647 0.6443 -0.6443 -0.7647 3042.7842 -379.1253)" fill="#FCE9C6" width="111.432" height="5.646"/>
			</g>
		</g>
		<polygon fill="#CBD9CC" points="1483.385,388.893 1483.385,389.178 1483.385,511.174 1563.01,511.174 1563.01,389.464 
			1563.01,388.893 		"/>
		<rect x="1531.727" y="408.801" fill="#8EA695" width="18.484" height="2.844"/>
		<rect x="1528.885" y="411.643" fill="#BDC9BA" width="24.172" height="27.016"/>
		<g id="reword3">
			<circle fill="#C9BC6B" cx="1516.048" cy="189.526" r="40.703"/>
			<circle fill="#F5E99A" cx="1518.116" cy="187.458" r="40.703"/>
			<circle fill="#FCF6B0" cx="1518.115" cy="187.458" r="36.894"/>
			<polygon fill="#A09550" points="1495.435,199.971 1495.435,199.971 1501.442,208.712 1501.442,208.712 1509.281,208.712 
				1509.281,216.151 1513.885,216.151 1513.885,208.712 1518.59,208.712 1518.59,216.151 1523.193,216.151 1523.193,208.712 
				1531.134,208.712 1531.134,208.712 1531.134,208.712 1536.473,199.938 1536.473,199.938 1536.473,199.938 1536.473,195.231 
				1523.193,195.231 1523.193,196.6 1523.193,199.938 1523.193,201.805 1509.347,201.805 1509.347,188.593 1523.26,188.593 
				1531.134,188.593 1536.473,188.593 1536.473,168.108 1523.26,168.108 1523.26,160.835 1518.655,160.835 1518.655,168.241 
				1513.951,168.241 1513.951,160.835 1509.347,160.835 1509.347,168.241 1498.405,168.241 1498.405,174.948 1523.26,174.948 
				1523.26,181.686 1501.442,181.686 1501.442,181.686 1495.435,190.428 			"/>
			<polygon fill="#C9BC6B" points="1496.494,199.969 1496.494,199.969 1502.5,208.712 1502.5,208.745 1510.375,208.745 
				1510.375,216.151 1514.979,216.151 1514.979,208.745 1519.682,208.745 1519.682,216.151 1524.286,216.151 1524.286,208.745 
				1532.227,208.745 1532.227,208.745 1532.227,208.745 1537.531,199.969 1537.531,199.969 1537.531,199.969 1537.531,195.231 
				1524.286,195.231 1524.286,196.635 1524.286,199.969 1524.286,201.805 1510.441,201.805 1510.441,188.628 1524.321,188.628 
				1532.227,188.628 1537.531,188.628 1537.531,168.141 1524.321,168.141 1524.321,160.835 1519.716,160.835 1519.716,168.276 
				1515.013,168.276 1515.013,160.835 1510.406,160.835 1510.406,168.276 1499.498,168.276 1499.498,174.979 1524.321,174.979 
				1524.321,181.686 1502.5,181.686 1502.5,181.721 1496.494,190.46 			"/>
			<g>
				<path fill="#C9BC6B" d="M1543.434,214.282c0.259-0.242,0.52-0.48,0.772-0.732c14.406-14.408,14.406-37.77-0.002-52.178
					c-14.407-14.408-37.77-14.408-52.177,0c-0.253,0.252-0.49,0.514-0.734,0.771c14.459-13.658,37.25-13.42,51.403,0.734
					C1556.854,177.032,1557.091,199.823,1543.434,214.282z"/>
			</g>
			<rect x="1510.398" y="279.442" fill="#DDB985" width="9.171" height="6.543"/>
		</g>
	</g>
	<g id="partner2">
		<g id="reword2">
			<circle fill="#C9BC6B" cx="837.713" cy="187.872" r="40.703"/>
			<circle fill="#F5E99A" cx="839.781" cy="185.803" r="40.703"/>
			<circle fill="#FCF6B0" cx="839.781" cy="185.803" r="36.894"/>
			<polygon fill="#A09550" points="817.1,198.317 817.1,198.317 823.107,207.057 823.107,207.057 830.946,207.057 830.946,214.497 
				835.551,214.497 835.551,207.057 840.255,207.057 840.255,214.497 844.858,214.497 844.858,207.057 852.799,207.057 
				852.799,207.057 852.799,207.057 858.138,198.284 858.138,198.284 858.138,198.284 858.138,193.577 844.858,193.577 
				844.858,194.946 844.858,198.284 844.858,200.151 831.012,200.151 831.012,186.938 844.926,186.938 852.799,186.938 
				858.138,186.938 858.138,166.454 844.926,166.454 844.926,159.18 840.32,159.18 840.32,166.587 835.616,166.587 835.616,159.18 
				831.012,159.18 831.012,166.587 820.07,166.587 820.07,173.294 844.926,173.294 844.926,180.032 823.107,180.032 
				823.107,180.032 817.1,188.774 			"/>
			<polygon fill="#C9BC6B" points="818.159,198.315 818.159,198.315 824.166,207.057 824.166,207.091 832.041,207.091 
				832.041,214.497 836.644,214.497 836.644,207.091 841.347,207.091 841.347,214.497 845.951,214.497 845.951,207.091 
				853.892,207.091 853.892,207.091 853.892,207.091 859.197,198.315 859.197,198.315 859.197,198.315 859.197,193.577 
				845.951,193.577 845.951,194.981 845.951,198.315 845.951,200.151 832.106,200.151 832.106,186.973 845.986,186.973 
				853.892,186.973 859.197,186.973 859.197,166.487 845.986,166.487 845.986,159.18 841.381,159.18 841.381,166.622 
				836.678,166.622 836.678,159.18 832.072,159.18 832.072,166.622 821.162,166.622 821.162,173.325 845.986,173.325 
				845.986,180.032 824.166,180.032 824.166,180.067 818.159,188.805 			"/>
			<g>
				<path fill="#C9BC6B" d="M865.099,212.628c0.259-0.242,0.52-0.48,0.772-0.732c14.406-14.408,14.406-37.77-0.002-52.178
					c-14.407-14.408-37.77-14.408-52.177,0c-0.253,0.252-0.49,0.514-0.733,0.771c14.457-13.658,37.248-13.42,51.402,0.734
					C878.519,175.378,878.756,198.169,865.099,212.628z"/>
			</g>
			<rect x="833.745" y="320.448" fill="#DDB985" width="7.352" height="6.18"/>
		</g>
		<polygon fill="#A97CB7" points="870.053,419.384 870.053,419.631 801.681,419.631 801.681,466.8 801.681,559.251 869.637,559.251 
			871.168,419.136 		"/>
		<polygon fill="#FCE9C6" points="884.466,351.676 868.403,351.676 868.403,326.965 868.773,326.965 869.021,325.853 
			802.672,309.914 783.027,392.205 794.516,394.922 796.988,405.547 799.212,415.432 799.212,419.631 868.403,419.631 
			868.403,380.094 884.466,380.094 		"/>
		<polygon fill="#FDF0D8" points="874.702,324.989 808.355,309.173 788.092,391.463 805.388,395.789 805.388,419.631 
			874.579,419.631 874.579,325.729 874.456,325.729 		"/>
		<rect x="867.168" y="350.44" fill="#FDF0D8" width="23.475" height="29.653"/>
		<polygon fill="#E3CCE3" points="805.388,419.631 805.388,420.004 805.388,562.957 913.5,562.957 875.198,419.631 		"/>
		<polygon fill="#EDCC9D" points="806.746,415.802 800.198,394.057 822.316,399.247 		"/>
		<g id="downhand3">
			<polygon fill="#A97CB7" points="802.166,419.631 777.713,464.234 797.727,475.108 801.681,466.584 801.681,466.8 
				805.388,419.631 			"/>
			<polygon fill="#C9A3CC" points="780.802,467.201 801.186,478.075 805.388,469.672 805.388,419.88 			"/>
			<polygon fill="#C9A3CC" points="900.404,467.201 875.198,419.756 874.579,420.127 874.579,468.558 879.646,478.075 			"/>
			<polygon fill="#FCE9C6" points="799.95,477.335 800.075,477.209 784.261,468.807 764.244,506.371 768.817,508.715 
				788.587,471.278 			"/>
			
				<rect x="778.023" y="471.748" transform="matrix(0.8831 0.4692 -0.4692 0.8831 322.9728 -310.4218)" fill="#FDF0D8" width="12.851" height="42.38"/>
			<polygon fill="#FCE9C6" points="898.178,468.807 898.178,468.807 882.365,477.209 902.258,514.646 905.965,512.671 
				886.071,475.231 			"/>
			
				<rect x="895.233" y="469.558" transform="matrix(0.883 -0.4693 0.4693 0.883 -124.7979 480.7385)" fill="#FDF0D8" width="13.715" height="42.377"/>
		</g>
		<g id="uphand3">
			<polygon fill="#FCE9C6" points="794.952,415.383 795.077,415.514 779.263,424.236 759.246,385.234 763.819,382.801 
				783.589,421.67 			"/>
			<polygon fill="#FDF0D8" points="782.314,422.556 793.662,416.297 773.778,377.438 762.43,383.698 			"/>
			<polygon fill="#A97CB7" points="802.166,471.228 777.713,424.917 797.727,413.626 801.681,422.477 801.681,422.254 
				805.388,471.228 			"/>
			<polygon fill="#C9A3CC" points="780.802,421.837 801.186,410.546 805.388,419.271 805.388,470.969 			"/>
			<polygon fill="#C9A3CC" points="900.404,421.837 875.198,471.098 874.579,470.714 874.579,420.427 879.646,410.546 			"/>
			<polygon fill="#FCE9C6" points="898.178,420.169 898.178,420.169 882.365,411.445 902.258,372.574 905.965,374.626 
				886.071,413.499 			"/>
			<polygon fill="#FDF0D8" points="886.056,413.471 898.166,420.152 918.055,381.299 905.945,374.615 			"/>
		</g>
		<polygon fill="#897A5B" points="780.677,309.667 799.58,326.347 862.844,333.142 870.257,520.58 935.369,502.046 889.158,303.489 
			795.258,281.002 		"/>
		<path fill="#967245" d="M835.043,352.543v-4.573h-1.235v4.573c0,0-0.864,0.123-1.482,0.368l-2.224-4.941l-0.988,0.495l2.474,4.941
			c-1.73,1.111-2.844,2.967-2.844,5.063c0,3.338,2.72,5.932,5.933,5.932c3.212,0,5.684-2.718,5.684-5.932
			C840.355,355.507,838.747,353.037,835.043,352.543z"/>
		<polygon fill="#967245" points="784.385,313.374 803.287,330.053 866.55,336.849 873.096,523.42 941.549,506.987 892.865,307.196 
			798.965,284.708 		"/>
		<rect x="815.274" y="562.957" fill="#FCEBCA" width="14.826" height="50.657"/>
		<rect x="848.634" y="562.957" fill="#FCEBCA" width="14.827" height="50.657"/>
		<rect x="806.625" y="613.615" fill="#BAE1CA" width="23.477" height="9.886"/>
		<rect x="838.747" y="613.615" fill="#BAE1CA" width="24.714" height="9.886"/>
		<rect x="859.754" y="361.559" fill="#F9C5D1" width="25.945" height="3.707"/>
		<g id="shoess1">
			<path fill="#F2F3F4" d="M925.027,189.151c-27.861,0-50.446,22.585-50.446,50.446c0,15.683,7.156,29.693,18.385,38.945
				l-1.854,18.911l17.355-10.204c5.188,1.803,10.756,2.794,16.56,2.794c27.859,0,50.444-22.585,50.444-50.446
				C975.471,211.737,952.886,189.151,925.027,189.151z"/>
			<circle fill="#7C7C7C" cx="925.61" cy="239.962" r="46.175"/>
			<g id="Shoes_ori_2_">
				<polygon fill="#94A6B0" points="928.575,231.715 918.771,224.305 914.591,219.318 894.644,225.797 908.472,263.057 
					947.977,248.398 964.096,241.91 958.223,226.083 				"/>
				<polygon fill="#E1EBF4" points="948.941,233.651 949.326,231.127 957.363,229.619 956.503,227.302 942.406,229.978 
					945.039,234.192 				"/>
				
					<rect x="923.303" y="230.078" transform="matrix(-0.6026 0.7981 -0.7981 -0.6026 1666.5845 -368.5281)" fill="#FFFFFF" width="3.497" height="1.237"/>
				
					<rect x="925.404" y="231.67" transform="matrix(-0.6015 0.7989 -0.7989 -0.6015 1670.3361 -368.6558)" fill="#FFFFFF" width="3.431" height="1.242"/>
				<polygon fill="#FFFFFF" points="935.073,234.084 934.32,231.512 933.097,231.745 933.883,234.43 				"/>
				<polygon fill="#FFFFFF" points="937.715,233.725 936.927,231.019 935.698,231.251 936.525,234.07 				"/>
				<polygon fill="#FFFFFF" points="940.456,233.263 939.653,230.5 938.427,230.733 939.268,233.612 				"/>
				<polygon fill="#F1D6E4" points="957.09,239.139 951.484,235.498 928.945,238.9 917.211,234.008 901.162,239.963 
					908.021,258.442 947.529,243.782 				"/>
				<polygon fill="#FFFFFF" points="957.09,239.139 947.529,243.782 908.021,258.442 909.329,261.97 948.838,247.309 
					964.712,240.158 963.814,237.739 963.226,236.157 				"/>
				<polygon fill="#CEEBF0" points="928.945,238.9 951.484,235.498 957.09,239.139 963.226,236.157 959.716,226.691 
					956.503,227.302 957.363,229.619 949.326,231.127 948.941,233.651 945.039,234.192 942.406,229.978 939.653,230.5 
					940.456,233.263 939.268,233.612 938.427,230.733 936.927,231.019 937.715,233.725 936.525,234.07 935.698,231.251 
					934.32,231.512 935.073,234.084 933.883,234.43 933.097,231.745 930.066,232.321 928.677,231.271 926.614,234.012 
					925.622,233.267 927.689,230.523 926.589,229.692 924.485,232.486 923.495,231.741 925.598,228.947 923.734,227.534 
					922.742,226.787 921.908,226.157 920.922,225.412 920.261,224.911 919.26,224.15 917.118,222.537 897.41,229.851 
					901.162,239.963 917.211,234.008 				"/>
				<polygon fill="#B7CDD9" points="948.838,247.309 909.329,261.97 909.961,263.665 949.468,249.005 965.588,242.519 
					965.122,241.266 964.712,240.158 				"/>
				<polygon fill="#B7CDD9" points="896.134,226.403 898.463,232.681 917.997,223.2 916.075,219.927 				"/>
				<path fill="#B7CDD9" d="M918.353,226.522c0.364-0.135,0.771,0.05,0.908,0.416c0.135,0.366-0.052,0.771-0.416,0.908
					c-0.368,0.136-0.773-0.05-0.909-0.416C917.8,227.064,917.987,226.657,918.353,226.522z"/>
				<path fill="#B7CDD9" d="M921.067,228.722c0.365-0.137,0.771,0.051,0.907,0.417c0.138,0.367-0.05,0.771-0.416,0.909
					c-0.366,0.136-0.771-0.051-0.908-0.417C920.514,229.265,920.698,228.859,921.067,228.722z"/>
				<polygon fill="#B7CDD9" points="917.629,234.181 916.631,231.648 908.771,235.664 909.578,236.977 				"/>
			</g>
			<g id="tap_3_">
				
					<rect x="898.394" y="242.613" transform="matrix(0.8475 -0.5308 0.5308 0.8475 6.9459 520.4924)" fill="#CCCCCC" width="21.814" height="11.09"/>
				<polygon fill="#FFFFFF" points="920.049,243.856 919.598,243.142 916.294,237.864 915.38,238.437 914.89,238.743 
					897.804,249.448 903.69,258.844 922.179,247.261 				"/>
				
					<rect x="913.987" y="242.392" transform="matrix(0.5309 0.8474 -0.8474 0.5309 635.7817 -663.0667)" fill="#DFE1DF" width="5.605" height="0.658"/>
				
					<rect x="912.688" y="243.194" transform="matrix(0.531 0.8474 -0.8474 0.531 635.7248 -661.5508)" fill="#DFE1DF" width="5.604" height="0.655"/>
				
					<rect x="900.352" y="254.267" transform="matrix(0.5311 0.8473 -0.8473 0.5311 639.2319 -645.8775)" fill="#DFE1DF" width="5.605" height="0.656"/>
				
					<rect x="911.936" y="242.931" transform="matrix(0.5304 0.8478 -0.8478 0.5304 635.2081 -660.1547)" fill="#DFE1DF" width="3.04" height="0.655"/>
				<polygon fill="#DFE1DF" points="909.732,250.953 910.183,249.914 910.186,249.914 908.949,247.941 909.556,247.561 
					910.963,249.804 911.569,249.423 910.951,248.439 911.62,248.017 911.362,247.601 910.687,248.023 910.424,247.596 
					911.095,247.175 910.837,246.76 910.177,247.174 909.427,245.98 907.574,247.137 907.875,247.619 908.323,248.332 
					909.109,249.588 907.919,250.334 907.134,249.082 907.3,248.979 907.6,248.789 907.726,248.711 906.978,247.511 
					906.551,247.783 906.551,247.783 906.551,247.783 906.057,248.757 906.057,248.757 906.057,248.757 906.506,249.475 
					905.839,249.896 906.095,250.31 906.768,249.89 907.032,250.317 906.364,250.736 906.625,251.153 907.295,250.733 
					907.74,251.443 907.742,251.442 908.875,251.491 908.875,251.491 				"/>
				<polygon fill="#495965" points="920.24,227.57 919.598,243.142 920.049,243.856 920.682,228.466 923.146,230.206 
					923.427,229.819 				"/>
				<polygon fill="#495965" points="930.337,235.281 920.361,246.605 920.752,246.885 931.045,235.2 928.521,233.421 
					928.243,233.805 				"/>
			</g>
		</g>
	</g>
	<g id="partner1">
		<polygon fill="#333333" points="2169.8,417.135 2164.736,466.814 2164.844,466.583 2164.844,559.251 2232.802,559.251 
			2233.912,416.667 		"/>
		<polygon fill="#FCE9C6" points="2247.629,351.676 2231.564,351.676 2231.564,326.965 2231.933,326.965 2232.181,325.853 
			2165.832,309.915 2146.187,392.204 2157.677,394.922 2160.148,405.548 2162.373,415.432 2162.373,419.632 2231.564,419.632 
			2231.564,380.094 2247.629,380.094 		"/>
		<polygon fill="#FDF0D8" points="2237.865,324.99 2171.515,309.174 2151.256,391.463 2168.552,395.787 2168.552,419.632 
			2237.741,419.632 2237.741,325.731 2237.618,325.731 		"/>
		<rect x="2230.327" y="350.442" fill="#FDF0D8" width="23.479" height="29.651"/>
		<polygon fill="#4D4D4D" points="2168.552,419.632 2168.552,420.003 2168.552,562.956 2276.662,562.956 2238.359,419.632 		"/>
		<polygon fill="#DDB985" points="2169.909,415.802 2163.361,394.057 2185.476,399.246 		"/>
		<g id="downhand1">
			<polygon fill="#333333" points="2162.373,419.632 2140.873,464.237 2160.888,475.109 2164.736,466.814 2168.552,419.632 			"/>
			<polygon fill="#4D4D4D" points="2143.965,467.201 2164.349,478.076 2168.552,469.673 2168.552,419.88 			"/>
			<polygon fill="#4D4D4D" points="2263.566,467.201 2238.359,419.757 2237.741,420.126 2237.741,468.559 2242.808,478.076 			"/>
			<polygon fill="#FCE9C6" points="2163.115,477.335 2163.238,477.208 2147.424,468.807 2127.406,506.371 2131.978,508.716 
				2151.746,471.28 			"/>
			
				<rect x="2141.046" y="471.731" transform="matrix(0.8832 0.469 -0.469 0.8832 482.0515 -949.6377)" fill="#FDF0D8" width="12.851" height="42.386"/>
			<polygon fill="#FCE9C6" points="2261.343,468.807 2261.343,468.807 2245.525,477.208 2265.422,514.648 2269.125,512.671 
				2249.232,475.232 			"/>
			
				<rect x="2258.394" y="469.395" transform="matrix(0.883 -0.4693 0.4693 0.883 34.7297 1120.5121)" fill="#FDF0D8" width="13.715" height="42.378"/>
		</g>
		<polygon fill="#333333" points="2143.841,309.668 2162.496,326.347 2225.386,333.142 2225.386,392.45 2276.047,388.125 
			2252.197,303.489 2158.297,281.003 		"/>
		<path fill="#4D4D4D" d="M2198.205,352.543v-4.574h-1.234v4.574c0,0-0.867,0.123-1.484,0.369l-2.223-4.943l-0.988,0.496
			l2.474,4.941c-1.73,1.111-2.845,2.967-2.845,5.063c0,3.338,2.722,5.933,5.933,5.933c3.213,0,5.684-2.718,5.684-5.933
			C2203.515,355.508,2201.912,353.036,2198.205,352.543z"/>
		<polygon fill="#4D4D4D" points="2147.549,313.375 2166.202,330.054 2229.094,336.849 2229.094,396.157 2279.754,391.832 
			2255.904,307.197 2162.004,284.709 		"/>
		<rect x="2178.435" y="562.956" fill="#FCEBCA" width="14.826" height="50.658"/>
		<rect x="2211.797" y="562.956" fill="#FCEBCA" width="14.824" height="50.658"/>
		<rect x="2169.784" y="613.616" fill="#F6BE9E" width="23.479" height="9.885"/>
		<rect x="2201.912" y="613.616" fill="#F6BE9E" width="24.709" height="9.885"/>
		<g id="shoess3">
			<path fill="#F2F3F4" d="M2301.099,192.335c-27.861,0-50.446,22.585-50.446,50.444c0,15.686,7.156,29.693,18.385,38.945
				l-1.854,18.913l17.355-10.206c5.188,1.803,10.757,2.795,16.56,2.795c27.86,0,50.445-22.586,50.445-50.447
				C2351.547,214.92,2328.961,192.335,2301.099,192.335z"/>
			<circle fill="#7C7C7C" cx="2301.683" cy="243.144" r="46.175"/>
			<g id="Shoes_ori_4_">
				<polygon fill="#94A6B0" points="2304.649,234.896 2294.844,227.487 2290.664,222.502 2270.719,228.979 2284.548,266.241 
					2324.052,251.581 2340.172,245.094 2334.299,229.265 				"/>
				<polygon fill="#E1EBF4" points="2325.013,236.834 2325.4,234.309 2333.435,232.802 2332.575,230.483 2318.48,233.162 
					2321.113,237.375 				"/>
				
					<rect x="2299.406" y="233.244" transform="matrix(-0.6021 0.7984 -0.7984 -0.6021 3873.3972 -1462.6222)" fill="#FFFFFF" width="3.497" height="1.238"/>
				
					<rect x="2301.61" y="234.913" transform="matrix(-0.6013 0.799 -0.799 -0.6013 3876.5051 -1463.2566)" fill="#FFFFFF" width="3.43" height="1.241"/>
				<polygon fill="#FFFFFF" points="2311.146,237.266 2310.392,234.695 2309.173,234.928 2309.955,237.613 				"/>
				<polygon fill="#FFFFFF" points="2313.787,236.907 2313.002,234.201 2311.772,234.433 2312.597,237.253 				"/>
				<polygon fill="#FFFFFF" points="2316.53,236.445 2315.725,233.682 2314.502,233.916 2315.343,236.795 				"/>
				<polygon fill="#F1D6E4" points="2333.162,242.321 2327.556,238.68 2305.017,242.083 2293.282,237.189 2277.236,243.144 
					2284.094,261.625 2323.601,246.965 				"/>
				<polygon fill="#FFFFFF" points="2333.162,242.321 2323.601,246.965 2284.094,261.625 2285.403,265.153 2324.909,250.491 
					2340.784,243.342 2339.886,240.922 2339.301,239.34 				"/>
				<polygon fill="#CEEBF0" points="2305.017,242.083 2327.556,238.68 2333.162,242.321 2339.301,239.34 2335.789,229.874 
					2332.575,230.483 2333.435,232.802 2325.4,234.309 2325.013,236.834 2321.113,237.375 2318.48,233.162 2315.725,233.682 
					2316.53,236.445 2315.343,236.795 2314.502,233.916 2313.002,234.201 2313.787,236.907 2312.597,237.253 2311.772,234.433 
					2310.392,234.695 2311.146,237.266 2309.955,237.613 2309.173,234.928 2306.138,235.505 2304.75,234.454 2302.686,237.195 
					2301.696,236.449 2303.761,233.706 2302.662,232.876 2300.557,235.67 2299.569,234.924 2301.674,232.13 2299.806,230.718 
					2298.816,229.97 2297.982,229.341 2296.993,228.594 2296.336,228.094 2295.332,227.333 2293.192,225.719 2273.484,233.033 
					2277.236,243.144 2293.282,237.189 				"/>
				<polygon fill="#B7CDD9" points="2324.909,250.491 2285.403,265.153 2286.032,266.848 2325.541,252.186 2341.659,245.701 
					2341.196,244.449 2340.784,243.342 				"/>
				<polygon fill="#B7CDD9" points="2272.207,229.586 2274.534,235.865 2294.071,226.384 2292.149,223.11 				"/>
				<path fill="#B7CDD9" d="M2294.427,229.705c0.362-0.137,0.771,0.05,0.905,0.416c0.138,0.364-0.052,0.771-0.416,0.906
					c-0.365,0.138-0.771-0.05-0.906-0.416C2293.873,230.247,2294.059,229.841,2294.427,229.705z"/>
				<path fill="#B7CDD9" d="M2297.139,231.905c0.365-0.136,0.771,0.053,0.906,0.418c0.139,0.366-0.05,0.771-0.416,0.908
					c-0.365,0.137-0.771-0.05-0.907-0.417C2296.59,232.449,2296.772,232.042,2297.139,231.905z"/>
				<polygon fill="#B7CDD9" points="2293.7,237.365 2292.702,234.831 2284.844,238.845 2285.652,240.159 				"/>
			</g>
			<g id="tap_5_">
				
					<rect x="2274.423" y="245.719" transform="matrix(0.8475 -0.5308 0.5308 0.8475 215.1479 1251.3708)" fill="#CCCCCC" width="21.816" height="11.091"/>
				<polygon fill="#FFFFFF" points="2296.121,247.039 2295.674,246.324 2292.366,241.048 2291.452,241.62 2290.966,241.927 
					2273.879,252.632 2279.762,262.026 2298.254,250.444 				"/>
				
					<rect x="2290.108" y="245.694" transform="matrix(0.5306 0.8476 -0.8476 0.5306 1284.8782 -1828.0637)" fill="#DFE1DF" width="5.603" height="0.657"/>
				
					<rect x="2288.814" y="246.233" transform="matrix(0.5311 0.8473 -0.8473 0.5311 1283.39 -1826.0649)" fill="#DFE1DF" width="5.606" height="0.656"/>
				
					<rect x="2276.495" y="257.349" transform="matrix(0.5309 0.8474 -0.8474 0.5309 1287.4691 -1810.6235)" fill="#DFE1DF" width="5.602" height="0.656"/>
				
					<rect x="2287.995" y="246.138" transform="matrix(0.5308 0.8475 -0.8475 0.5308 1283.0323 -1824.6738)" fill="#DFE1DF" width="3.041" height="0.655"/>
				<polygon fill="#DFE1DF" points="2285.804,254.135 2286.258,253.096 2286.26,253.095 2285.023,251.124 2285.632,250.745 
					2287.034,252.987 2287.641,252.605 2287.025,251.622 2287.694,251.2 2287.434,250.784 2286.76,251.206 2286.496,250.778 
					2287.17,250.356 2286.909,249.942 2286.25,250.356 2285.5,249.163 2283.648,250.32 2283.947,250.802 2284.396,251.514 
					2285.181,252.77 2283.991,253.516 2283.207,252.264 2283.373,252.162 2283.675,251.97 2283.801,251.893 2283.052,250.694 
					2282.623,250.966 2282.623,250.966 2282.623,250.966 2282.133,251.938 2282.133,251.938 2282.133,251.938 2282.577,252.657 
					2281.912,253.079 2282.17,253.493 2282.843,253.074 2283.106,253.499 2282.436,253.919 2282.697,254.337 2283.366,253.915 
					2283.813,254.626 2283.816,254.626 2284.948,254.675 2284.948,254.675 				"/>
				<polygon fill="#495965" points="2296.314,230.753 2295.674,246.324 2296.121,247.039 2296.758,231.647 2299.219,233.388 
					2299.5,233.003 				"/>
				<polygon fill="#495965" points="2306.409,238.465 2296.433,249.788 2296.823,250.067 2307.116,238.384 2304.594,236.602 
					2304.317,236.987 				"/>
			</g>
		</g>
		<g id="like">
			<g id="like2">
				<path fill="#DD364A" d="M2225.817,460.474c0,5.507-7.025,12.317-11.9,13.234c-4.05-1.85-9.664-7.186-9.664-13.234
					c0-9.109,10.018-10.213,10.781-2.064C2216.761,451.159,2225.817,451.949,2225.817,460.474z"/>
			</g>
			<g>
				<path fill="#A32F43" d="M2214.5,458.203c0.155,0.207,0.443,0.219,0.533,0.206c-0.269-2.581-1.281-3.694-1.798-4.194
					C2213.698,455.046,2214.312,455.438,2214.5,458.203z"/>
				<path fill="#A32F43" d="M2224.905,456.392c0.285,0.888,0.454,1.903,0.454,3.067c0,5.727-7.282,12.807-12.354,13.783
					c0.311,0.172,0.616,0.331,0.912,0.466c4.875-0.917,11.899-7.729,11.899-13.234
					C2225.817,458.818,2225.469,457.463,2224.905,456.392z"/>
			</g>
			<path fill="#F4627A" d="M2209.968,452.919c0,0-3.968-0.2-5.368,4.81C2204.599,457.728,2206.092,454.213,2209.968,452.919z"/>
			<path fill="#F4627A" d="M2220.64,453.484c0,0-3.063-0.359-4.841,2.907C2215.801,456.392,2217.515,453.828,2220.64,453.484z"/>
		</g>
		<g id="uphand1">
			<polygon fill="#333333" points="2164.844,472.105 2139.422,425.004 2160.466,414.132 2164.51,422.427 2168.552,472.105 			"/>
			<polygon fill="#4D4D4D" points="2142.672,422.039 2164.103,411.164 2168.52,419.568 2168.52,469.361 			"/>
			<polygon fill="#FCE9C6" points="2162.806,411.906 2162.935,412.032 2146.307,420.432 2125.262,382.87 2130.07,380.525 
				2150.853,417.961 			"/>
			<polygon fill="#FDF0D8" points="2141.873,374.589 2129.941,380.616 2150.844,418.044 2162.773,412.016 			"/>
			<polygon fill="#4D4D4D" points="2265.787,421.539 2239.284,468.984 2238.636,468.615 2238.636,420.18 2243.963,410.664 			"/>
			<polygon fill="#FCE9C6" points="2263.448,419.932 2263.448,419.932 2246.819,411.532 2267.736,374.094 2271.632,376.07 
				2250.718,413.509 			"/>
			<polygon fill="#FDF0D8" points="2284.404,382.59 2271.67,376.153 2250.76,413.575 2263.491,420.012 			"/>
		</g>
	</g>
</g>
<g id="sendbtn">
	<rect x="365.752" y="603.033" fill="#4E6D4F" width="270.44" height="51"/>
	<g id="click">
		<rect x="365.751" y="596.533" fill="#D3502D" width="270.441" height="51"/>
		<rect id="greenbtn" x="365.794" y="596.533" fill="#5F9964" width="270.441" height="51"/>
		<text transform="matrix(1 0 0 1 407.4915 629.5332)" fill="#FCFCFC" font-family="'ArialMT'" font-size="29">send to partner</text>
	</g>
</g>
<g id="buybtn">
	<rect x="365.752" y="603.033" fill="#478084" width="270.44" height="51"/>
	<g id="click_1_">
		<rect x="365.751" y="596.533" fill="#D3502D" width="270.441" height="51"/>
		<rect id="greenbtn_1_" x="365.794" y="596.533" fill="#62B8C4" width="270.441" height="51"/>
		<text transform="matrix(1 0 0 1 421.1121 632.5332)" fill="#FCFCFC" font-family="'ArialMT'" font-size="29">It`s YOURS !!</text>
	</g>
</g>
<g id="sendinfo" opacity="0">
	<g>
		<rect x="418.323" y="323.674" fill="#9E9E9E" width="174.289" height="113.443"/>
		<rect x="415.376" y="320.277" fill="#FFFFFF" width="174.284" height="113.444"/>
		<polygon fill="#FAFAFA" points="415.376,433.721 589.66,433.721 502.516,371.184 		"/>
		<polygon fill="#FFFFFF" points="415.376,433.721 589.66,433.721 502.516,377 		"/>
		<polygon fill="#DFE1DF" points="589.66,320.277 415.376,320.277 502.516,382.818 		"/>
		<polygon fill="#FFFFFF" points="589.66,320.277 415.376,320.277 502.516,377 		"/>
	</g>
	<g id="infomark" opacity="0">
		<ellipse fill="#72C1C1" cx="504.554" cy="345.022" rx="15.213" ry="15.949"/>
		<g>
			<path fill="#FCFCFC" d="M502.894,339.365v-4.274h3.841v4.274H502.894z M502.894,354.68v-13.611h3.841v13.611H502.894z"/>
		</g>
	</g>
</g>
<g id="buybox">
	<rect x="-82.232" y="400.471" fill="#CCCCCC" width="27.351" height="4.612"/>
	<g>
		<polygon fill="#D5CA9F" points="16.318,233.193 -188.568,233.193 -188.568,539.681 126.549,539.681 126.549,539.479 
			126.549,233.193 		"/>
		<polygon fill="#DBD0AB" points="-135.549,213.156 -188.568,233.192 126.549,233.192 126.549,233.192 179.568,213.156 		"/>
		<polygon fill="#B7AE91" points="126.549,233.193 126.549,539.681 179.568,519.644 179.568,519.441 179.568,213.156 		"/>
		<rect x="-4.902" y="438.23" fill="#FFFFFF" width="112.175" height="83.616"/>
		<rect x="4.691" y="452.254" fill="#CCCCCC" width="15.726" height="2.648"/>
		<rect x="4.691" y="456.988" fill="#CCCCCC" width="15.726" height="2.651"/>
		<rect x="4.691" y="473.771" fill="#CCCCCC" width="42.75" height="2.653"/>
		<rect x="4.691" y="479.951" fill="#CCCCCC" width="42.75" height="2.649"/>
		<rect x="-167.729" y="299.008" fill="#CCCCCC" width="42.75" height="2.65"/>
		<rect x="-167.729" y="305.185" fill="#CCCCCC" width="42.75" height="2.648"/>
		<rect x="-177.323" y="275.514" fill="#FFFFFF" width="112.175" height="49.635"/>
		<rect x="-167.729" y="311.055" fill="#CCCCCC" width="42.75" height="2.65"/>
		<rect x="-167.729" y="317.235" fill="#CCCCCC" width="42.75" height="2.648"/>
		<rect x="-167.729" y="283.788" fill="#CCCCCC" width="80.797" height="5.369"/>
		<rect x="-167.729" y="296.297" fill="#CCCCCC" width="80.797" height="5.361"/>
		<polygon fill="#CCCCCC" points="85.584,490.092 82.808,486.056 82.808,486.056 72.738,486.056 72.738,482.943 84.214,482.943 
			84.214,479.845 79.16,479.845 79.16,476.427 77.032,476.427 77.032,479.845 74.859,479.845 74.859,476.427 72.738,476.427 
			72.738,479.783 66.634,479.783 66.634,489.244 69.099,489.244 72.738,489.244 79.16,489.244 79.16,495.344 72.763,495.344 
			72.763,494.48 72.763,492.939 72.763,492.31 66.634,492.31 66.634,494.48 66.634,494.48 66.634,494.48 69.099,498.533 
			69.099,498.533 69.099,498.533 72.763,498.533 72.763,501.969 74.892,501.969 74.892,498.533 77.061,498.533 77.061,501.969 
			79.188,501.969 79.188,498.533 82.808,498.533 82.808,498.533 85.584,494.496 85.584,494.496 		"/>
		<rect x="-54.883" y="233.193" fill="#C4B681" width="37.404" height="36.668"/>
		<polygon fill="#C4B681" points="-17.478,233.193 -54.883,233.193 3.592,213.156 39.067,213.156 		"/>
		<rect x="-54.883" y="509.195" fill="#C4B681" width="37.404" height="30.485"/>
		<polygon fill="#485960" points="71.58,256.633 74.734,253.783 77.224,257.228 80.902,255.094 82.623,258.982 86.664,257.658 
			87.539,261.82 91.767,261.367 91.758,265.619 95.986,266.054 95.095,270.211 99.14,271.517 97.404,275.396 101.092,277.515 
			98.584,280.949 101.75,283.789 98.584,286.627 101.092,290.06 97.404,292.179 99.14,296.058 95.095,297.365 95.986,301.523 
			91.758,301.957 91.767,306.211 87.539,305.76 86.664,309.916 82.623,308.594 80.902,312.482 77.224,310.349 74.734,313.795 
			71.58,310.941 68.425,313.795 65.933,310.349 62.256,312.482 60.535,308.594 56.494,309.916 55.619,305.76 51.39,306.211 
			51.4,301.957 47.17,301.523 48.062,297.365 44.016,296.058 45.754,292.179 42.067,290.06 44.574,286.627 41.408,283.789 
			44.574,280.949 42.067,277.515 45.754,275.396 44.016,271.517 48.062,270.211 47.17,266.054 51.4,265.619 51.39,261.367 
			55.619,261.82 56.494,257.658 60.535,258.982 62.256,255.094 65.933,257.228 68.425,253.783 		"/>
	</g>
</g>
<g>
	<rect x="-692.158" y="767.61" fill="#3C89AF" width="2459.514" height="571.604"/>
	<rect x="-692.158" y="-562.406" fill="#3C89AF" width="2459.514" height="562.418"/>
</g>
</svg>
