<?xml version="1.0" encoding="utf-8"?>
<!-- Generator: Adobe Illustrator 16.0.3, SVG Export Plug-In . SVG Version: 6.00 Build 0)  -->
<!DOCTYPE svg PUBLIC "-//W3C//DTD SVG 1.1//EN" "http://www.w3.org/Graphics/SVG/1.1/DTD/svg11.dtd">
<svg version="1.1" id="screen05" xmlns="http://www.w3.org/2000/svg" xmlns:xlink="http://www.w3.org/1999/xlink" x="0px" y="0px"
	 width="1024px" height="768px" viewBox="0 0 1024 768" enable-background="new 0 0 1024 768" xml:space="preserve">
<rect x="-710.756" y="-561.163" fill="#A85551" width="2459.512" height="1901.62"/>
<g id="grapphone">
	<g id="hand2">
		<path fill="#FCE7C2" d="M375.347,616.037c0-44.274-82.063-81.983-144.633-81.983h-66.32c-62.564,0-106.628,33.462-113.335,80.731
			c0,0-3.293,17.756-2.293,36.756s14.021,46.31,33.148,60.64c0.745,0.559,1.5,1.127,2.258,1.694
			C73.89,736.152,30.853,822.74-46.879,893.995l229.455,53.998l74.813-187.796C349.548,753.408,375.347,616.037,375.347,616.037z"/>
		<path fill="#F4D6AB" d="M84.177,713.883c0,0,42.657,83.392,171.646,47.059c0,0-46.768,14.114-128.351-18.8
			C104.19,732.74,84.177,713.883,84.177,713.883z"/>
	</g>
	<g id="iphone">
		<path fill="#EDF3F5" d="M359.927,646.289c0,25.144-20.479,45.611-45.614,45.611h-145.33c-25.146,0-45.614-20.476-45.614-45.611
			V257.692c0-25.138,20.479-45.614,45.614-45.614h145.329c25.139,0,45.607,20.479,45.607,45.614L359.927,646.289L359.927,646.289z"
			/>
		<path fill="#FFFFFF" d="M366.584,652.947c0,25.145-20.477,45.613-45.604,45.613h-145.33c-25.146,0-45.614-20.477-45.614-45.613
			V264.351c0-25.146,20.479-45.614,45.614-45.614h145.33c25.139,0,45.604,20.476,45.604,45.614V652.947L366.584,652.947z"/>
		<rect x="146.841" y="277.5" fill="#C8D9DE" width="206.435" height="362.802"/>
		<g>
			<path fill="#768D99" d="M270.031,257.858c0,1.332-1.164,2.498-2.497,2.498h-33.461c-1.331,0-2.497-1.166-2.497-2.498v-0.166
				c0-1.331,1.166-2.498,2.497-2.498h33.464C268.866,255.361,270.031,256.526,270.031,257.858L270.031,257.858z"/>
			<path fill="#C8D9DE" d="M267.533,257.026c0,0.832-0.833,1.665-1.833,1.665h-31.629c-1,0-1.833-0.833-1.833-1.665l0,0
				c0-0.833,0.833-1.665,1.833-1.665H265.7C266.701,255.361,267.533,256.193,267.533,257.026L267.533,257.026z"/>
		</g>
		<circle fill="#193B47" cx="248.89" cy="235.385" r="3.163"/>
		<circle fill="#2E4C57" cx="249.389" cy="234.719" r="2.664"/>
		<g>
			<path fill="#E6E6E6" d="M297.498,215.407c-2.497,0-4.827-0.333-5.326-1.331l0,0c-0.5-0.998,1.164-1.499,3.33-1.499l16.479-0.165
				c2.332,0,4.995,0.499,6.16,1.499l0,0c1.166,0.998,0,1.497-2.496,1.497L297.498,215.407L297.498,215.407z"/>
		</g>
		<g>
			<path fill="#FFFFFF" d="M297.498,213.743c-2.497,0-4.827-0.499-5.326-1.497l0,0c-0.5-1,1.164-1.665,3.33-1.665l16.479-0.167
				c2.332,0,4.995,0.5,6.16,1.499l0,0c1.166,0.998,0,1.665-2.496,1.665h-18.146L297.498,213.743L297.498,213.743z"/>
		</g>
		<g>
			<path fill="#E6E6E6" d="M128.529,354.302c0,1.831-0.999,2.987-2.497,2.661l0,0c-1.498-0.33-2.497-2.162-2.497-3.993v-22.146
				c0-1.832,1-2.998,2.497-2.498l0,0c1.498,0.5,2.497,2.33,2.497,4.162V354.302z"/>
		</g>
		<g>
			<path fill="#FFFFFF" d="M126.864,354.302c0,1.831-1,2.987-2.497,2.661l0,0c-1.498-0.33-2.497-2.162-2.497-3.993v-22.146
				c0-1.832,0.999-2.998,2.497-2.498l0,0c1.498,0.5,2.497,2.33,2.497,4.162V354.302z"/>
		</g>
		<g>
			<path fill="#E6E6E6" d="M128.529,387.094c0,1.831-0.999,2.996-2.497,2.663l0,0c-1.498-0.333-2.497-2.163-2.497-3.995v-22.146
				c0-1.831,1-2.997,2.497-2.498l0,0c1.498,0.5,2.497,2.331,2.497,4.162V387.094z"/>
		</g>
		<g>
			<path fill="#FFFFFF" d="M126.864,387.094c0,1.831-1,2.996-2.497,2.663l0,0c-1.498-0.333-2.497-2.163-2.497-3.995v-22.146
				c0-1.831,0.999-2.997,2.497-2.498l0,0c1.498,0.5,2.497,2.331,2.497,4.162V387.094z"/>
		</g>
		<circle fill="#EDF3F5" cx="252.719" cy="668.594" r="16.147"/>
		<circle fill="#FFFFFF" cx="252.719" cy="668.595" r="14.317"/>
		<g id="view">
			<rect id="vbase" x="146.353" y="279.455" fill="#0A0A0A" width="206.431" height="362.802"/>
			<g id="view01">
				<rect x="148.629" y="295.026" fill="#E6E8E8" width="201.694" height="342"/>
				<g>
					<rect x="152.759" y="300.173" fill="#444444" width="195.333" height="131.896"/>
				</g>
				<g>
					<rect x="152.371" y="439.507" fill="#6B6B6B" width="95.832" height="65.945"/>
				</g>
				<g>
					<rect x="253.337" y="439.507" fill="#444444" width="94.653" height="65.945"/>
				</g>
				<g>
					<rect x="152.371" y="514.393" fill="#444444" width="195.334" height="118.442"/>
				</g>
				<g id="busy_x5F_v">
					<polygon fill="none" points="265.76,342.615 265.76,343.521 261.385,343.521 261.385,342.678 259.273,342.708 266.358,353.342 
						266.358,353.12 266.571,353.12 267.553,342.593 					"/>
					<g id="tap_3_">
						
							<rect x="259.339" y="356.614" transform="matrix(-0.3727 0.928 -0.928 -0.3727 701.0178 247.1027)" fill="#CCCCCC" width="15.295" height="7.772"/>
						<polygon fill="#FFFFFF" points="266.392,352.267 266.111,352.975 265.96,353.346 260.692,366.464 267.906,369.359 
							273.608,355.169 						"/>
						
							<rect x="266.537" y="354.383" transform="matrix(-0.928 -0.3725 0.3725 -0.928 385.5902 783.7195)" fill="#DFE1DF" width="3.926" height="0.461"/>
						
							<rect x="266.529" y="355.358" transform="matrix(-0.9282 -0.372 0.372 -0.9282 385.4319 785.5409)" fill="#DFE1DF" width="3.928" height="0.463"/>
						
							<rect x="264.02" y="367.088" transform="matrix(-0.928 -0.3725 0.3725 -0.928 376.0164 807.2759)" fill="#DFE1DF" width="3.928" height="0.461"/>
						
							<rect x="265.822" y="356.172" transform="matrix(-0.9276 -0.3736 0.3736 -0.9276 381.3157 786.701)" fill="#DFE1DF" width="2.132" height="0.459"/>
						<polygon fill="#DFE1DF" points="268.076,362.398 267.903,361.619 267.905,361.617 266.389,361.01 266.574,360.542 
							268.3,361.236 268.485,360.772 267.731,360.469 267.936,359.95 267.617,359.82 267.408,360.338 267.081,360.208 
							267.29,359.693 266.968,359.568 266.769,360.068 265.848,359.702 265.277,361.121 265.649,361.27 266.197,361.496 
							267.16,361.883 266.792,362.794 265.83,362.404 265.883,362.285 265.975,362.052 266.014,361.95 265.094,361.58 
							264.964,361.908 264.964,361.908 264.964,361.908 265.087,362.664 265.087,362.664 265.087,362.664 265.639,362.886 
							265.43,363.409 265.751,363.531 265.956,363.02 266.282,363.147 266.076,363.661 266.396,363.787 266.604,363.275 
							267.149,363.495 267.149,363.493 267.811,363.052 267.811,363.052 						"/>
						<polygon fill="#495965" points="259.273,342.708 261.385,342.678 261.385,342.345 258.654,342.383 265.96,353.346 
							266.111,352.975 						"/>
						<polygon fill="#495965" points="267.553,342.593 266.571,353.12 266.908,353.12 267.921,342.254 265.76,342.281 
							265.76,342.615 						"/>
					</g>
					<g id="bag_1_">
						<path fill="#9D9ECA" d="M276.053,344.26h-11.191V310.77h-30.424v33.491h-11.879l-9.192,45.971l70.549,0.168L276.053,344.26z
							 M238.786,315.116h21.73v29.145h-21.73V315.116L238.786,315.116z"/>
						<path fill="#B6BDE0" d="M277.727,345.929h-11.278v-33.992h-30.422v33.992h-11.793l-9.194,45.974l70.545,0.168L277.727,345.929
							z M240.373,316.29h21.73v29.645h-21.73V316.29z"/>
						<g>
							<rect x="246.177" y="348.585" fill="#FCF6B0" width="7.16" height="10.132"/>
							<rect x="246.584" y="349.051" fill="#F4E689" width="7.162" height="10.132"/>
							<rect x="247.163" y="349.815" fill="#EBDE76" width="5.936" height="8.721"/>
							<rect x="247.163" y="349.815" fill="#F5E99A" width="5.411" height="8.204"/>
						</g>
						<polygon fill="#EBDE76" points="251.267,354.087 250.819,353.434 250.819,353.434 249.187,353.434 249.187,352.928 
							251.045,352.928 251.045,352.427 250.227,352.427 250.227,351.873 249.885,351.873 249.885,352.427 249.531,352.427 
							249.531,351.873 249.187,351.873 249.187,352.418 248.202,352.418 248.202,353.948 248.601,353.948 249.187,353.948 
							250.227,353.948 250.227,354.942 249.192,354.942 249.192,354.799 249.192,354.555 249.192,354.446 248.202,354.446 
							248.202,354.799 248.202,354.799 248.202,354.799 248.601,355.457 248.601,355.457 248.601,355.457 249.192,355.457 
							249.192,356.018 249.537,356.018 249.537,355.457 249.889,355.457 249.889,356.018 250.236,356.018 250.236,355.457 
							250.819,355.457 250.819,355.457 251.267,354.803 251.267,354.803 						"/>
						<polygon fill="#F8F3A0" points="251.52,354.374 251.073,353.717 251.073,353.714 249.442,353.714 249.442,353.216 
							251.294,353.216 251.294,352.715 250.48,352.715 250.48,352.157 250.136,352.157 250.136,352.715 249.786,352.715 
							249.786,352.157 249.442,352.157 249.442,352.702 248.451,352.702 248.451,354.236 248.848,354.236 249.442,354.236 
							250.477,354.236 250.477,355.225 249.443,355.225 249.443,355.082 249.443,354.837 249.443,354.729 248.451,354.729 
							248.451,355.082 248.451,355.082 248.451,355.082 248.848,355.74 248.848,355.74 248.848,355.74 249.443,355.74 
							249.443,356.296 249.787,356.296 249.787,355.74 250.137,355.74 250.137,356.296 250.481,356.296 250.481,355.74 
							251.073,355.74 251.073,355.74 251.52,355.082 251.52,355.082 						"/>
						<polygon fill="#495965" points="240.373,316.457 262.102,316.457 262.102,339.913 266.449,339.913 266.449,312.111 
							236.026,312.111 236.026,339.913 240.373,339.913 						"/>
						<g id="tap">
							<polygon fill="#CCCCCC" points="267.143,360.8 258.011,389.288 269.568,395.1 278.7,366.615 							"/>
							<polygon fill="#FFFFFF" points="267.462,361.574 267.011,362.98 266.769,363.738 258.328,390.059 269.888,395.872 
								279.02,367.386 							"/>
							<polygon fill="#DFE1DF" points="273.961,368.498 268.122,365.561 268.395,364.71 274.237,367.646 							"/>
							<polygon fill="#DFE1DF" points="273.288,370.6 267.448,367.662 267.721,366.805 273.562,369.745 							"/>
							<polygon fill="#DFE1DF" points="269.372,393.397 263.529,390.457 263.804,389.601 269.647,392.542 							"/>
							<polygon fill="#DFE1DF" points="269.942,371.363 266.774,369.764 267.05,368.907 270.217,370.503 							"/>
							<polygon fill="#DFE1DF" points="270.157,381.893 269.88,380.344 269.883,380.341 267.454,379.116 267.753,378.181 
								270.512,379.57 270.811,378.635 269.601,378.03 269.933,376.99 269.424,376.733 269.09,377.768 268.567,377.504 
								268.896,376.467 268.385,376.217 268.061,377.235 266.592,376.49 265.676,379.344 266.266,379.64 267.145,380.08 
								268.69,380.859 268.099,382.695 266.56,381.924 266.639,381.663 266.79,381.2 266.854,381.005 265.382,380.261 
								265.167,380.923 265.167,380.923 265.167,380.923 265.368,382.441 265.368,382.441 265.368,382.441 266.249,382.886 
								265.921,383.918 266.433,384.18 266.762,383.142 267.285,383.405 266.954,384.437 267.466,384.695 267.8,383.67 
								268.672,384.103 268.674,384.099 269.732,383.221 269.732,383.221 							"/>
							<polygon fill="#495965" points="256.05,342.386 259.438,342.328 259.438,341.655 255.056,341.737 266.769,363.738 
								267.011,362.98 							"/>
							<polygon fill="#495965" points="269.323,342.15 267.748,363.281 268.289,363.281 269.909,341.469 266.447,341.531 
								266.447,342.2 							"/>
						</g>
					</g>
				</g>
				<rect x="152.759" y="400" fill="#FFFFFF" width="195.333" height="32.068"/>
				<g>
					<g>
						<polygon fill="#232323" points="234.739,548.971 185.426,569.551 188.642,577.62 238.478,558.343 						"/>
						<circle fill="#4F4F4F" cx="246.633" cy="549.984" r="11.28"/>
						<polygon fill="#B2B2B2" points="241.839,560.243 238.061,558.811 234.185,549.005 236.048,545.829 						"/>
						
							<rect x="246.042" y="538.34" transform="matrix(0.9284 -0.3716 0.3716 0.9284 -186.6599 131.1003)" fill="#B2B2B2" width="1.587" height="23.072"/>
						
							<rect x="180.905" y="573.022" transform="matrix(0.9288 -0.3705 0.3705 0.9288 -199.2989 108.9255)" fill="#232323" width="5.978" height="0.469"/>
					</g>
					<polygon fill="#B2B2B2" points="218.569,570.492 212.429,570.54 206.823,559.892 218.592,555.316 					"/>
					<rect x="211.634" y="570.074" fill="#B2B2B2" width="7.426" height="8.128"/>
					<rect x="211.584" y="570.122" fill="#6B6B6A" width="2.757" height="8.123"/>
					<rect x="214.013" y="578.201" fill="#B2B2B2" width="2.94" height="43.162"/>
					<rect x="214.013" y="578.218" fill="#6B6B6A" width="1.334" height="43.162"/>
				</g>
				<text transform="matrix(1 0 0 1 294.7498 422.1189)" fill="#2D2D2D" font-family="'KlavikaBold-Bold'" font-size="17.7145">5,000</text>
				<rect x="152.759" y="600.599" fill="#FFFFFF" width="195.333" height="32.068"/>
				<g>
					<text transform="matrix(1 0 0 1 289.7498 623.3523)" fill="#2D2D2D" font-family="'KlavikaBold-Bold'" font-size="17.7145">12,000</text>
				</g>
				<rect x="158.967" y="298.75" fill="#CEB56E" width="11.577" height="19.25"/>
				<rect x="158.446" y="512.155" fill="#6EB6CC" width="11.577" height="19.25"/>
				<g id="food">
					<path fill="#C5C29B" d="M224.577,449.288c0,0.282-0.224,0.481-0.494,0.481h-38.279c-0.267,0-0.492-0.198-0.492-0.481l0,0
						c0-0.279,0.226-0.48,0.492-0.48h38.236C224.351,448.807,224.577,449.01,224.577,449.288L224.577,449.288z"/>
					<path fill="#67574C" d="M198.92,469.904c0,0.241-0.223,0.443-0.491,0.443h-0.089c-0.27,0-0.494-0.2-0.494-0.443V448.49
						c0-0.239,0.225-0.442,0.494-0.442h0.089c0.268,0,0.491,0.202,0.491,0.442V469.904z"/>
					<path fill="#5E4C40" d="M218.977,471.425c0.268,0,0.494-0.199,0.494-0.439v-0.04c0-0.24-0.226-0.44-0.494-0.44h-0.22
						c0.043-0.08,0.088-0.16,0.088-0.239v-0.041c0-0.242-0.226-0.442-0.495-0.442h-1.608v-0.119c0-0.24-0.226-0.441-0.495-0.441
						h-0.043c-0.27,0-0.494,0.2-0.494,0.441c0-0.24-0.221-0.441-0.491-0.441h-0.046c-0.265,0-0.491,0.2-0.491,0.441
						c0-0.24-0.223-0.441-0.491-0.441h-0.045c-0.27,0-0.494,0.2-0.494,0.441c0-0.24-0.224-0.441-0.491-0.441h-0.043
						c-0.268,0-0.494,0.2-0.494,0.441v0.562v0.041v1.159H218.977L218.977,471.425z"/>
					<path fill="#5E4C40" d="M196.863,471.425v-0.56c0.22,0,0.401-0.198,0.401-0.4v-0.16h0.046h0.091
						c0.269,0,0.491-0.199,0.491-0.441v-21.417c0-0.238-0.222-0.44-0.491-0.44h-0.091c-0.268,0-0.49,0.201-0.49,0.44v0.122h-0.047
						h-0.09c-0.087,0-0.177,0-0.268,0.08v-0.2c0-0.24-0.179-0.441-0.446-0.441h-0.091c-0.267,0-0.49,0.201-0.49,0.441v19.974h-0.045
						H195.3c-0.271,0-0.495,0.202-0.495,0.442v0.759c0-0.24-0.224-0.439-0.491-0.439h-0.046c-0.269,0-0.494,0.201-0.494,0.439
						c0-0.24-0.219-0.439-0.49-0.439h-0.043c-0.27,0-0.494,0.201-0.494,0.439c0-0.24-0.225-0.439-0.494-0.439h-0.044
						c-0.27,0-0.492,0.201-0.492,0.439c0-0.24-0.222-0.439-0.491-0.439h-0.045c-0.268,0-0.491,0.201-0.491,0.439
						c0-0.24-0.226-0.439-0.492-0.439h-0.046c-0.267,0-0.492,0.201-0.492,0.439c0-0.24-0.223-0.439-0.492-0.439h-0.044
						c-0.269,0-0.493,0.201-0.493,0.439v0.122h-3.446c-0.27,0-0.494,0.202-0.494,0.441v0.041c0,0.24,0.225,0.439,0.494,0.439h0.222
						c-0.043,0.079-0.09,0.16-0.09,0.24v0.04c0,0.24,0.223,0.441,0.491,0.441L196.863,471.425L196.863,471.425z"/>
					<path fill="#67574C" d="M197.891,468.864c0-0.24-0.223-0.443-0.49-0.443h-0.048c-0.268,0-0.489,0.202-0.489,0.443v2.56h1.028
						L197.891,468.864L197.891,468.864z"/>
					<path fill="#67574C" d="M198.92,471.425v-2.558c0-0.24-0.223-0.443-0.491-0.443h-0.046c-0.268,0-0.491,0.2-0.491,0.443v2.558
						H198.92z"/>
					<path fill="#5E4C40" d="M204.161,471.425v-2.558c0-0.24-0.226-0.443-0.495-0.443h-0.045c-0.269,0-0.493,0.2-0.493,0.443
						c0-0.24-0.223-0.443-0.492-0.443h-0.045c-0.268,0-0.49,0.2-0.49,0.443v-0.563c0-0.239-0.223-0.438-0.492-0.438h-0.046
						c-0.267,0-0.493,0.197-0.493,0.438c0-0.239-0.223-0.438-0.488-0.438h-0.046c-0.27,0-0.491,0.197-0.491,0.438V448.49
						c0-0.239-0.225-0.442-0.493-0.442h-0.046c-0.314,0-0.537,0.203-0.537,0.442v20.415v2.561h5.193L204.161,471.425h0.003v0.003
						L204.161,471.425L204.161,471.425z"/>
					<path fill="#6E5E53" d="M205.232,471.425v-2.558c0-0.24-0.222-0.443-0.49-0.443h-0.046c-0.267,0-0.491,0.2-0.491,0.443v2.558
						H205.232z"/>
					<path fill="#5E4C40" d="M211.504,471.425v-1.8v-0.761c0-0.24-0.225-0.443-0.494-0.443h-0.046c-0.269,0-0.493,0.202-0.493,0.443
						c0-0.24-0.221-0.443-0.49-0.443h-0.047c-0.268,0-0.489,0.202-0.489,0.443c0-0.24-0.226-0.443-0.493-0.443h-0.045
						c-0.271,0-0.495,0.202-0.495,0.443c0-0.24-0.22-0.443-0.488-0.443h-0.045c-0.268,0-0.494,0.202-0.494,0.443
						c0-0.24-0.224-0.443-0.491-0.443h-0.046c-0.27,0-0.492,0.202-0.492,0.443c0-0.24-0.223-0.443-0.492-0.443h-0.044
						c-0.27,0-0.492,0.202-0.492,0.443v2.561H211.504L211.504,471.425z"/>
					<path fill="#6E5E53" d="M212.531,471.425v-1.8c0-0.24-0.223-0.441-0.493-0.441h-0.045c-0.267,0-0.493,0.199-0.493,0.441v1.8
						H212.531z"/>
					<polygon fill="#FC5144" points="178.055,471.425 191.578,488.637 192.876,488.637 192.876,490.159 212.128,490.159 
						212.128,488.637 213.606,488.637 227.172,471.425 					"/>
					<path fill="#CBC8A4" d="M224.577,450.729c0,0.281-0.224,0.481-0.494,0.441l-38.279-1c-0.267,0-0.492-0.241-0.492-0.481l0,0
						c0-0.28,0.226-0.481,0.492-0.441l38.236,1C224.351,450.249,224.577,450.45,224.577,450.729L224.577,450.729z"/>
					<ellipse fill="#B4D495" cx="196.323" cy="469.863" rx="0.94" ry="0.841"/>
					<ellipse fill="#B4D495" cx="194.669" cy="469.105" rx="0.939" ry="0.841"/>
					<ellipse fill="#B4D495" cx="209.309" cy="468.743" rx="0.942" ry="0.84"/>
					<polygon fill="#6ABE5A" points="207.07,468.784 201.129,469.98 201.078,469.785 207.017,468.589 					"/>
					<polygon fill="#6ABE5A" points="206.198,469.419 200.131,468.951 200.15,468.751 206.217,469.22 					"/>
					<polygon fill="#6ABE5A" points="214.52,469.854 208.618,468.51 208.675,468.314 214.572,469.661 					"/>
				</g>
				<polygon fill="#C68254" points="151.99,449.875 151.99,439.119 163.568,439.119 				"/>
				<rect x="152.371" y="491.534" fill="#FFFFFF" width="95.832" height="13.918"/>
				<g>
					<text transform="matrix(1 0 0 1 222.5994 502.4197)" fill="#2D2D2D" font-family="'KlavikaBold-Bold'" font-size="8.6916">1,000</text>
				</g>
				<g>
					<g>
						<g>
							<g>
								<defs>
									<ellipse id="SVGID_1_" cx="306.943" cy="471.464" rx="29.555" ry="28.688"/>
								</defs>
								<clipPath id="SVGID_2_">
									<use xlink:href="#SVGID_1_"  overflow="visible"/>
								</clipPath>
								<polygon clip-path="url(#SVGID_2_)" fill="#AAAAAA" points="280.637,475.454 277.724,475.942 277.611,474.973 
									280.47,474.501 								"/>
							</g>
						</g>
					</g>
				</g>
				<g>
					<g>
						<g>
							<g>
								<g>
									<defs>
										<ellipse id="SVGID_3_" cx="312.137" cy="472.473" rx="41.095" ry="39.888"/>
									</defs>
									<clipPath id="SVGID_4_">
										<use xlink:href="#SVGID_3_"  overflow="visible"/>
									</clipPath>
									<path opacity="0.2" clip-path="url(#SVGID_4_)" fill="#5E5E5D" enable-background="new    " d="M328.639,469.98
										c0-2.225,1.824-4.031,4.1-4.098v-3.737h-76.861v29.594h76.861v-17.661C330.465,474.011,328.639,472.206,328.639,469.98z"/>
								</g>
							</g>
						</g>
					</g>
					<g>
						<g>
							<g>
								<g>
									<defs>
										<ellipse id="SVGID_5_" cx="312.137" cy="472.473" rx="41.095" ry="39.888"/>
									</defs>
									<clipPath id="SVGID_6_">
										<use xlink:href="#SVGID_5_"  overflow="visible"/>
									</clipPath>
									<path clip-path="url(#SVGID_6_)" fill="#E2D3B7" d="M328.469,469.483c0-2.224,1.823-4.03,4.103-4.095v-3.74h-76.863v29.599
										h76.863v-17.665C330.293,473.515,328.469,471.708,328.469,469.483z"/>
								</g>
							</g>
						</g>
					</g>
					<g>
						<g>
							<g>
								<g>
									<defs>
										
											<ellipse id="SVGID_7_" transform="matrix(1 -0.0016 0.0016 1 -0.7575 0.5014)" cx="312.18" cy="472.477" rx="41.093" ry="39.888"/>
									</defs>
									<clipPath id="SVGID_8_">
										<use xlink:href="#SVGID_7_"  overflow="visible"/>
									</clipPath>
									
										<rect x="289.798" y="476.338" transform="matrix(3.959695e-004 1 -1 3.959695e-004 780.9424 171.6805)" clip-path="url(#SVGID_8_)" fill="#C9C8C7" width="29.599" height="0.257"/>
								</g>
							</g>
						</g>
					</g>
					<g>
						<g>
							<g>
								<g>
									<defs>
										
											<ellipse id="SVGID_9_" transform="matrix(1 -0.0016 0.0016 1 -0.7351 0.4865)" cx="312.181" cy="472.479" rx="41.094" ry="39.888"/>
									</defs>
									<clipPath id="SVGID_10_">
										<use xlink:href="#SVGID_9_"  overflow="visible"/>
									</clipPath>
									
										<rect x="289.611" y="476.343" transform="matrix(3.629486e-004 1 -1 3.629486e-004 780.7694 171.8871)" clip-path="url(#SVGID_10_)" fill="#AAAAAA" width="29.599" height="0.255"/>
								</g>
							</g>
						</g>
					</g>
					<g>
						<g>
							<g>
								<g>
									<defs>
										<ellipse id="SVGID_11_" cx="312.137" cy="472.473" rx="41.095" ry="39.888"/>
									</defs>
									<clipPath id="SVGID_12_">
										<use xlink:href="#SVGID_11_"  overflow="visible"/>
									</clipPath>
									<g clip-path="url(#SVGID_12_)">
										<rect x="311.445" y="484.487" fill="#4F4F4F" width="0.567" height="4.221"/>
										<rect x="312.239" y="484.471" fill="#4F4F4F" width="0.896" height="4.218"/>
										<rect x="313.359" y="484.453" fill="#4F4F4F" width="0.323" height="4.22"/>
										<rect x="314.092" y="484.449" fill="#4F4F4F" width="0.225" height="4.219"/>
										<rect x="314.526" y="484.449" fill="#4F4F4F" width="0.813" height="4.22"/>
										<rect x="315.553" y="484.426" fill="#4F4F4F" width="0.793" height="4.221"/>
										<rect x="316.795" y="484.434" fill="#4F4F4F" width="0.307" height="4.221"/>
										<rect x="317.711" y="484.428" fill="#4F4F4F" width="0.307" height="4.222"/>
										<rect x="318.729" y="484.424" fill="#4F4F4F" width="0.226" height="4.222"/>
										<rect x="319.684" y="484.419" fill="#4F4F4F" width="0.082" height="4.218"/>
										<rect x="320.841" y="484.398" fill="#4F4F4F" width="0.794" height="4.218"/>
										<rect x="320.034" y="484.444" fill="#4F4F4F" width="0.568" height="4.218"/>
										<rect x="323.122" y="484.399" fill="#4F4F4F" width="0.082" height="4.217"/>
										<rect x="323.307" y="484.398" fill="#4F4F4F" width="0.078" height="4.218"/>
										<rect x="323.506" y="484.405" fill="#4F4F4F" width="0.081" height="4.219"/>
										<rect x="323.856" y="484.395" fill="#4F4F4F" width="0.285" height="4.218"/>
										<rect x="321.882" y="484.405" fill="#4F4F4F" width="0.144" height="4.219"/>
										<rect x="322.16" y="484.404" fill="#4F4F4F" width="0.144" height="4.221"/>
										<rect x="322.574" y="484.402" fill="#4F4F4F" width="0.143" height="4.218"/>
										<rect x="326.624" y="484.38" fill="#4F4F4F" width="0.188" height="5.512"/>
										<rect x="324.264" y="484.418" fill="#4F4F4F" width="1.058" height="4.216"/>
										<rect x="325.403" y="484.388" fill="#4F4F4F" width="0.081" height="4.218"/>
										<rect x="325.617" y="484.386" fill="#4F4F4F" width="0.081" height="4.218"/>
										<rect x="325.889" y="484.401" fill="#4F4F4F" width="0.565" height="4.217"/>
									</g>
								</g>
							</g>
						</g>
					</g>
					<g>
						<g>
							<g>
								<g>
									<defs>
										<ellipse id="SVGID_13_" cx="312.137" cy="472.473" rx="41.095" ry="39.888"/>
									</defs>
									<clipPath id="SVGID_14_">
										<use xlink:href="#SVGID_13_"  overflow="visible"/>
									</clipPath>
									<path opacity="0.2" clip-path="url(#SVGID_14_)" fill="#1E1E1E" enable-background="new    " d="M323.359,463.766
										c-0.404-2.19,1.068-4.28,3.298-4.729l-0.673-3.679l-75.679,13.039l3.437,26.744l77.568-10.643l-3.181-17.393
										C325.877,467.427,323.757,465.958,323.359,463.766z"/>
								</g>
							</g>
						</g>
					</g>
					<g>
						<g>
							<g>
								<g>
									<defs>
										<ellipse id="SVGID_15_" cx="312.137" cy="472.473" rx="41.095" ry="39.888"/>
									</defs>
									<clipPath id="SVGID_16_">
										<use xlink:href="#SVGID_15_"  overflow="visible"/>
									</clipPath>
									<path clip-path="url(#SVGID_16_)" fill="#D4DDB6" d="M322.333,461.778c-0.402-2.191,1.071-4.281,3.298-4.729l-0.673-3.68
										l-75.679,13.041l5.328,29.142l75.679-13.041l-3.181-17.393C324.852,465.435,322.733,463.969,322.333,461.778z"/>
								</g>
							</g>
						</g>
					</g>
					<g>
						<g>
							<g>
								<g>
									<defs>
										<ellipse id="SVGID_17_" cx="312.137" cy="472.473" rx="41.095" ry="39.888"/>
									</defs>
									<clipPath id="SVGID_18_">
										<use xlink:href="#SVGID_17_"  overflow="visible"/>
									</clipPath>
									<g clip-path="url(#SVGID_18_)">
										<polygon fill="#4F4F4F" points="309.309,483.633 308.761,483.716 308.033,479.31 308.58,479.225 										"/>
										<polygon fill="#4F4F4F" points="310.385,483.463 309.523,483.596 308.794,479.191 309.656,479.06 										"/>
										<polygon fill="#4F4F4F" points="310.915,483.381 310.6,483.428 309.872,479.025 310.187,478.975 										"/>
										<polygon fill="#4F4F4F" points="311.521,483.286 311.303,483.319 310.578,478.916 310.793,478.882 										"/>
										<polygon fill="#4F4F4F" points="312.5,483.134 311.717,483.258 310.988,478.852 311.774,478.732 										"/>
										<polygon fill="#4F4F4F" points="313.459,482.985 312.695,483.103 311.967,478.699 312.733,478.581 										"/>
										<polygon fill="#4F4F4F" points="314.203,482.869 313.907,482.915 313.182,478.512 313.475,478.466 										"/>
										<polygon fill="#4F4F4F" points="315.083,482.731 314.791,482.779 314.063,478.374 314.359,478.326 										"/>
										<polygon fill="#4F4F4F" points="315.984,482.592 315.769,482.626 315.041,478.22 315.257,478.189 										"/>
										
											<rect x="316.329" y="478.067" transform="matrix(0.9889 -0.1483 0.1483 0.9889 -67.7474 52.2441)" fill="#4F4F4F" width="0.079" height="4.462"/>
										<polygon fill="#4F4F4F" points="318.547,482.194 317.784,482.312 317.059,477.906 317.822,477.79 										"/>
										<polygon fill="#4F4F4F" points="317.568,482.346 317.021,482.429 316.296,478.028 316.843,477.942 										"/>
										
											<rect x="319.611" y="477.552" transform="matrix(0.9909 -0.1346 0.1346 0.9909 -61.6557 47.3784)" fill="#4F4F4F" width="0.08" height="4.461"/>
										<polygon fill="#4F4F4F" points="320.251,481.928 320.175,481.94 319.446,477.536 319.526,477.524 										"/>
										
											<rect x="319.908" y="477.579" transform="matrix(0.9867 -0.1624 0.1624 0.9867 -73.6626 58.3182)" fill="#4F4F4F" width="0.078" height="4.465"/>
										<polygon fill="#4F4F4F" points="320.976,481.816 320.701,481.86 319.975,477.454 320.249,477.411 										"/>
										<polygon fill="#4F4F4F" points="318.941,482.134 318.802,482.153 318.077,477.749 318.214,477.728 										"/>
										
											<rect x="318.773" y="477.76" transform="matrix(0.9882 -0.1531 0.1531 0.9882 -69.7289 54.4749)" fill="#4F4F4F" width="0.14" height="4.463"/>
										
											<rect x="319.145" y="477.563" transform="matrix(0.9875 -0.1574 0.1574 0.9875 -71.5546 56.2376)" fill="#4F4F4F" width="0.136" height="4.464"/>
										<polygon fill="#4F4F4F" points="323.764,482.765 323.587,482.794 322.635,477.04 322.817,477.013 										"/>
										<polygon fill="#4F4F4F" points="322.115,481.65 321.098,481.81 320.369,477.405 321.386,477.247 										"/>
										
											<rect x="321.754" y="477.293" transform="matrix(0.9874 -0.1585 0.1585 0.9874 -71.9224 57.0525)" fill="#4F4F4F" width="0.08" height="4.464"/>
										
											<rect x="322.065" y="477.085" transform="matrix(0.9864 -0.1644 0.1644 0.9864 -74.4167 59.4752)" fill="#4F4F4F" width="0.077" height="4.464"/>
										<polygon fill="#4F4F4F" points="323.208,481.468 322.66,481.553 321.932,477.15 322.48,477.067 										"/>
									</g>
								</g>
							</g>
						</g>
					</g>
					<g>
						<g>
							<g>
								<g>
									<defs>
										<ellipse id="SVGID_19_" cx="312.137" cy="472.473" rx="41.095" ry="39.888"/>
									</defs>
									<clipPath id="SVGID_20_">
										<use xlink:href="#SVGID_19_"  overflow="visible"/>
									</clipPath>
									<polygon clip-path="url(#SVGID_20_)" fill="#C9C8C7" points="302.627,487.291 296.094,458.382 296.344,458.327 
										302.877,487.238 									"/>
								</g>
							</g>
						</g>
					</g>
					<g>
						<g>
							<g>
								<g>
									<defs>
										<ellipse id="SVGID_21_" cx="312.137" cy="472.473" rx="41.095" ry="39.888"/>
									</defs>
									<clipPath id="SVGID_22_">
										<use xlink:href="#SVGID_21_"  overflow="visible"/>
									</clipPath>
									<polygon clip-path="url(#SVGID_22_)" fill="#AAAAAA" points="302.434,487.291 295.901,458.382 296.154,458.327 
										302.686,487.238 									"/>
								</g>
							</g>
						</g>
					</g>
					<g>
						<g>
							<g>
								<g>
									<defs>
										<ellipse id="SVGID_23_" cx="312.137" cy="472.473" rx="41.095" ry="39.888"/>
									</defs>
									<clipPath id="SVGID_24_">
										<use xlink:href="#SVGID_23_"  overflow="visible"/>
									</clipPath>
									<polygon clip-path="url(#SVGID_24_)" fill="#AAAAAA" points="312.975,460.975 299.251,463.242 298.807,460.711 
										312.53,458.441 									"/>
								</g>
							</g>
						</g>
					</g>
					<g>
						<g>
							<g>
								<g>
									<defs>
										<ellipse id="SVGID_25_" cx="312.137" cy="472.473" rx="41.095" ry="39.888"/>
									</defs>
									<clipPath id="SVGID_26_">
										<use xlink:href="#SVGID_25_"  overflow="visible"/>
									</clipPath>
									<polygon clip-path="url(#SVGID_26_)" fill="#AAAAAA" points="294.249,465.237 274.23,468.549 273.507,464.442 
										293.529,461.133 									"/>
								</g>
							</g>
						</g>
					</g>
					<g>
						<g>
							<g>
								<g>
									<defs>
										<ellipse id="SVGID_27_" cx="312.137" cy="472.473" rx="41.095" ry="39.888"/>
									</defs>
									<clipPath id="SVGID_28_">
										<use xlink:href="#SVGID_27_"  overflow="visible"/>
									</clipPath>
									<polygon clip-path="url(#SVGID_28_)" fill="#AAAAAA" points="292.653,470.335 271.063,473.913 271.04,472.544 
										292.419,469.009 									"/>
								</g>
							</g>
						</g>
					</g>
					<g>
						<g>
							<g>
								<g>
									<defs>
										<ellipse id="SVGID_29_" cx="312.137" cy="472.473" rx="41.095" ry="39.888"/>
									</defs>
									<clipPath id="SVGID_30_">
										<use xlink:href="#SVGID_29_"  overflow="visible"/>
									</clipPath>
									<polygon clip-path="url(#SVGID_30_)" fill="#AAAAAA" points="295.811,472.158 271.208,476.228 271.122,474.876 
										295.58,470.833 									"/>
								</g>
							</g>
						</g>
					</g>
					<g>
						<g>
							<g>
								<g>
									<defs>
										<ellipse id="SVGID_31_" cx="312.137" cy="472.473" rx="41.095" ry="39.888"/>
									</defs>
									<clipPath id="SVGID_32_">
										<use xlink:href="#SVGID_31_"  overflow="visible"/>
									</clipPath>
									<polygon clip-path="url(#SVGID_32_)" fill="#AAAAAA" points="296.495,474.559 276.471,477.873 276.241,476.546 
										296.264,473.237 									"/>
								</g>
							</g>
						</g>
					</g>
					<g>
						<g>
							<g>
								<g>
									<defs>
										<ellipse id="SVGID_33_" cx="312.137" cy="472.473" rx="41.095" ry="39.888"/>
									</defs>
									<clipPath id="SVGID_34_">
										<use xlink:href="#SVGID_33_"  overflow="visible"/>
									</clipPath>
									<polygon clip-path="url(#SVGID_34_)" fill="#AAAAAA" points="275.561,478.021 271.51,478.7 271.352,477.353 
										275.329,476.696 									"/>
								</g>
							</g>
						</g>
					</g>
					<g>
						<g>
							<g>
								<g>
									<defs>
										<ellipse id="SVGID_35_" cx="312.137" cy="472.473" rx="41.095" ry="39.888"/>
									</defs>
									<clipPath id="SVGID_36_">
										<use xlink:href="#SVGID_35_"  overflow="visible"/>
									</clipPath>
									<polygon clip-path="url(#SVGID_36_)" fill="#AAAAAA" points="293.059,477.774 273.034,481.085 272.803,479.76 
										292.825,476.448 									"/>
								</g>
							</g>
						</g>
					</g>
					<g>
						<g>
							<g>
								<g>
									<defs>
										<ellipse id="SVGID_37_" cx="312.137" cy="472.473" rx="41.095" ry="39.888"/>
									</defs>
									<clipPath id="SVGID_38_">
										<use xlink:href="#SVGID_37_"  overflow="visible"/>
									</clipPath>
									<polygon clip-path="url(#SVGID_38_)" fill="#AAAAAA" points="299.766,486.473 277.585,490.139 277.062,487.176 
										299.245,483.51 									"/>
								</g>
							</g>
						</g>
					</g>
					<g>
						<g>
							<g>
								<g>
									<defs>
										<ellipse id="SVGID_39_" cx="312.137" cy="472.473" rx="41.095" ry="39.888"/>
									</defs>
									<clipPath id="SVGID_40_">
										<use xlink:href="#SVGID_39_"  overflow="visible"/>
									</clipPath>
									<polygon clip-path="url(#SVGID_40_)" fill="#AAAAAA" points="319.68,464.154 304.107,466.728 303.949,465.829 
										319.526,463.255 									"/>
								</g>
							</g>
						</g>
					</g>
					<g>
						<g>
							<g>
								<g>
									<defs>
										<ellipse id="SVGID_41_" cx="312.137" cy="472.473" rx="41.095" ry="39.888"/>
									</defs>
									<clipPath id="SVGID_42_">
										<use xlink:href="#SVGID_41_"  overflow="visible"/>
									</clipPath>
									<polygon clip-path="url(#SVGID_42_)" fill="#AAAAAA" points="320.069,465.857 304.41,468.446 304.251,467.547 
										319.912,464.959 									"/>
								</g>
							</g>
						</g>
					</g>
					<g>
						<g>
							<g>
								<g>
									<defs>
										<ellipse id="SVGID_43_" cx="312.137" cy="472.473" rx="41.095" ry="39.888"/>
									</defs>
									<clipPath id="SVGID_44_">
										<use xlink:href="#SVGID_43_"  overflow="visible"/>
									</clipPath>
									<polygon clip-path="url(#SVGID_44_)" fill="#AAAAAA" points="313.567,469.284 305.317,470.651 305.187,469.916 
										313.437,468.551 									"/>
								</g>
							</g>
						</g>
					</g>
					<g>
						<g>
							<g>
								<g>
									<defs>
										<ellipse id="SVGID_45_" cx="312.137" cy="472.473" rx="41.095" ry="39.888"/>
									</defs>
									<clipPath id="SVGID_46_">
										<use xlink:href="#SVGID_45_"  overflow="visible"/>
									</clipPath>
									<polygon clip-path="url(#SVGID_46_)" fill="#AAAAAA" points="320.793,470.124 305.218,472.698 305.06,471.799 
										320.635,469.223 									"/>
								</g>
							</g>
						</g>
					</g>
					<g>
						<g>
							<g>
								<g>
									<defs>
										<ellipse id="SVGID_47_" cx="312.137" cy="472.473" rx="41.095" ry="39.888"/>
									</defs>
									<clipPath id="SVGID_48_">
										<use xlink:href="#SVGID_47_"  overflow="visible"/>
									</clipPath>
									<polygon clip-path="url(#SVGID_48_)" fill="#AAAAAA" points="321.177,471.825 305.519,474.413 305.363,473.515 
										321.021,470.927 									"/>
								</g>
							</g>
						</g>
					</g>
					<g>
						<g>
							<g>
								<g>
									<defs>
										<ellipse id="SVGID_49_" cx="312.137" cy="472.473" rx="41.095" ry="39.888"/>
									</defs>
									<clipPath id="SVGID_50_">
										<use xlink:href="#SVGID_49_"  overflow="visible"/>
									</clipPath>
									<polygon clip-path="url(#SVGID_50_)" fill="#AAAAAA" points="314.678,475.255 306.425,476.617 306.297,475.885 
										314.548,474.519 									"/>
								</g>
							</g>
						</g>
					</g>
				</g>
				<polygon fill="#FFFFFF" points="314.06,505.452 253.337,505.452 253.337,439.507 				"/>
				<text transform="matrix(1 0 0 1 300.6628 502.8523)" fill="#D86C98" font-family="'KlavikaBold-Bold'" font-size="11.5152">5,000 x 2</text>
				<g>
					<g>
						<polygon fill="#698E8C" points="290.326,416.625 288.887,414.485 288.887,414.485 284.054,414.559 284.054,413.15 
							289.678,413.254 289.678,411.691 287.274,411.708 287.274,410.14 286.31,410.043 286.142,411.691 285.179,411.769 
							285.179,410.028 284.211,410.106 284.054,411.581 281.158,411.661 280.997,416.125 282.126,415.965 283.892,416.028 
							287.11,416.15 287.11,418.956 283.892,419.005 283.892,418.481 283.892,417.785 283.892,417.433 280.843,417.43 
							280.843,418.486 280.843,418.486 280.843,418.486 281.958,420.419 281.958,420.419 281.958,420.419 283.736,420.306 
							283.736,422.063 284.864,422.075 284.864,420.315 285.985,420.503 285.823,421.976 286.944,421.976 286.944,420.407 
							288.887,420.41 288.887,420.41 290.326,418.719 290.326,418.719 						"/>
					</g>
				</g>
				<g>
					<g>
						<polygon fill="#698E8C" points="219.775,500.314 218.986,499.14 218.986,499.14 216.334,499.181 216.334,498.408 
							219.42,498.465 219.42,497.607 218.101,497.617 218.101,496.757 217.572,496.703 217.479,497.607 216.951,497.65 
							216.951,496.695 216.42,496.738 216.334,497.547 214.745,497.591 214.657,500.04 215.276,499.952 216.245,499.987 
							218.01,500.053 218.01,501.594 216.245,501.62 216.245,501.333 216.245,500.951 216.245,500.758 214.572,500.757 
							214.572,501.336 214.572,501.336 214.572,501.336 215.184,502.396 215.184,502.396 215.184,502.396 216.159,502.334 
							216.159,503.298 216.779,503.304 216.779,502.339 217.393,502.442 217.304,503.251 217.92,503.251 217.92,502.389 
							218.986,502.391 218.986,502.391 219.775,501.463 219.775,501.463 						"/>
					</g>
				</g>
				<g>
					<g>
						<polygon fill="#698E8C" points="299.208,499.398 298.136,497.806 298.136,497.806 294.539,497.861 294.539,496.812 
							298.726,496.889 298.726,495.725 296.936,495.739 296.936,494.571 296.218,494.499 296.093,495.725 295.377,495.784 
							295.377,494.488 294.656,494.547 294.539,495.643 292.383,495.703 292.263,499.026 293.104,498.907 294.418,498.955 
							296.814,499.045 296.814,501.135 294.418,501.17 294.418,500.781 294.418,500.262 294.418,500 292.148,499.999 
							292.148,500.785 292.148,500.785 292.148,500.785 292.978,502.223 292.978,502.223 292.978,502.223 294.302,502.138 
							294.302,503.447 295.142,503.456 295.142,502.145 295.976,502.286 295.856,503.383 296.69,503.383 296.69,502.215 
							298.136,502.217 298.136,502.217 299.208,500.957 299.208,500.957 						"/>
					</g>
				</g>
				<polygon fill="#191919" points="281.736,585.875 289.18,585.875 289.18,600.599 285.458,600.599 				"/>
				<g>
					<g>
						<polygon fill="#698E8C" points="287.784,618.905 286.195,616.544 286.195,616.544 280.86,616.625 280.86,615.069 
							287.069,615.183 287.069,613.457 284.415,613.477 284.415,611.745 283.349,611.637 283.164,613.457 282.101,613.544 
							282.101,611.622 281.032,611.709 280.86,613.336 277.66,613.424 277.484,618.353 278.73,618.177 280.679,618.248 
							284.233,618.381 284.233,621.48 280.679,621.533 280.679,620.956 280.679,620.187 280.679,619.798 277.313,619.796 
							277.313,620.962 277.313,620.962 277.313,620.962 278.544,623.095 278.544,623.095 278.544,623.095 280.508,622.969 
							280.508,624.911 281.754,624.924 281.754,622.979 282.991,623.188 282.812,624.815 284.05,624.815 284.05,623.083 
							286.195,623.086 286.195,623.086 287.784,621.217 287.784,621.217 						"/>
					</g>
				</g>
				<polygon fill="#FCE9C6" points="339.459,544.535 329.837,544.535 329.837,529.733 330.058,529.733 330.207,529.068 
					290.468,519.521 278.7,568.807 285.583,570.436 287.064,576.8 286.042,582.208 287.861,593.917 329.303,593.917 
					329.837,561.555 339.459,561.555 				"/>
				<polygon fill="#FDF0D8" points="333.611,528.55 293.872,519.078 281.736,568.363 292.096,570.954 292.168,593.917 
					333.611,593.917 333.539,528.994 333.464,528.994 				"/>
				<polygon fill="#BCA466" points="283.698,514.542 282.696,527.514 319.624,530.326 318.587,544.683 337.015,546.089 
					339.754,514.393 				"/>
				<polygon fill="#E5C66C" points="285.896,514.393 284.62,530.918 321.548,533.73 320.438,548.087 338.939,549.493 
					341.605,514.393 				"/>
				<circle fill="#85BACE" cx="309.634" cy="548.605" r="3.552"/>
				<rect x="287.861" y="593.917" fill="#FFFFFF" width="45.75" height="6.683"/>
				<polygon fill="#191919" points="338.5,590.833 294.75,586.583 287.861,600.599 336.498,600.599 				"/>
			</g>
			<g id="vfnb">
				<rect x="148.796" y="604.173" fill="#9E9E9E" width="201.694" height="35.521"/>
				<g>
					<path fill="#CE5855" d="M256.859,608.593h-2.709h-13.005h-2.709c-2.113,0-3.793,1.68-3.793,3.793v2.709v13.005v2.71
						c0,2.113,1.68,3.793,3.793,3.793h2.709h13.005h2.709c2.113,0,3.793-1.68,3.793-3.793v-2.71v-13.005v-2.709
						C260.652,610.268,258.972,608.593,256.859,608.593z M252.308,627.229L252.308,627.229h-2.492v2.059h-1.463v-2.059h-1.521v2.059
						h-1.463v-2.059h-2.601l0,0l-1.683-2.438v-1.301h4.229v0.379v0.922v0.545h4.441v-3.688h-4.441h-2.547h-1.683v-5.688h4.229
						v-2.062h1.463v2.062h1.519v-2.062h1.466v2.062h3.521v1.844h-7.965v1.843h6.99l0,0l1.896,2.438l0,0v2.652l0,0L252.308,627.229z"
						/>
					<g>
						<path fill="#FFFFFF" d="M216.594,610.73h-0.109v-1.646h-6.64v1.646h-7.301v-1.646h-4.334v1.646h0.058
							c-2.194,0-4.005,1.646-4.005,3.676v16.021c0,2.026,1.812,3.676,4.005,3.676h18.326c2.192,0,4.005-1.646,4.005-3.621v-16.076
							C220.601,612.38,218.789,610.73,216.594,610.73z M202.548,616.985h-4.334v-1.646h4.334V616.985z M209.517,628.782
							c-3.021,0-5.487-2.47-5.487-5.483c0-3.021,2.469-5.486,5.487-5.486c3.018,0,5.483,2.469,5.483,5.486
							C215.003,626.367,212.534,628.782,209.517,628.782z"/>
						<path fill="#FFFFFF" d="M213.357,623.349c0,2.141-1.757,3.841-3.841,3.841c-2.143,0-3.844-1.756-3.844-3.841
							c0-2.141,1.759-3.841,3.844-3.841C211.656,619.51,213.357,621.214,213.357,623.349z"/>
					</g>
					<path fill="#FFFFFF" d="M153.529,610.133c0,0.838,0.658,1.492,1.497,1.492h2.095l2.095,16.824
						c0.12,0.777,0.723,1.316,1.496,1.316h1.021c-0.603,0.539-0.958,1.257-0.958,2.096c0,1.495,1.257,2.754,2.754,2.754
						c1.496,0,2.754-1.197,2.754-2.754c0-0.839-0.359-1.617-0.958-2.096h7.303c-0.599,0.539-0.957,1.257-0.957,2.096
						c0,1.495,1.259,2.754,2.754,2.754c1.496,0,2.757-1.197,2.757-2.754c0-0.839-0.36-1.617-0.958-2.096h1.194
						c0.779,0,1.377-0.603,1.496-1.316l1.979-14.25c0.06-0.419-0.063-0.896-0.359-1.192c-0.3-0.36-0.719-0.54-1.138-0.54
						l-19.156-0.063l-0.3-2.515c-0.12-0.778-0.721-1.316-1.497-1.316h-3.413C154.188,608.572,153.529,609.29,153.529,610.133z
						 M160.413,624.616c0-0.479,0.419-0.896,0.898-0.896h15.505c0.479,0,0.896,0.418,0.896,0.896c0,0.479-0.419,0.897-0.896,0.897
						H161.31C160.832,625.514,160.413,625.096,160.413,624.616z"/>
					<path fill="#FFFFFF" d="M297.047,610.205H278.68c-2.2,0-4.019,1.65-4.019,3.634v16.06c0,2.034,1.815,3.629,4.019,3.629h5.605
						l2.585,2.585c0.275,0.275,0.605,0.388,0.99,0.388s0.715-0.166,0.99-0.388l2.585-2.585h5.605c2.2,0,4.018-1.646,4.018-3.629
						v-16.06C301.063,611.855,299.247,610.205,297.047,610.205z M288.689,626.906h-1.65v-2.2h1.65V626.906z M288.689,622.945h-1.65
						v-6.104h1.65V622.945z"/>
					<g>
						<path fill="#FFFFFF" d="M328.079,619.272c-3.286,0-5.951-2.665-5.951-5.952c0-3.288,2.665-5.952,5.951-5.952
							c3.288,0,5.953,2.665,5.953,5.952C334.032,616.608,331.367,619.272,328.079,619.272z"/>
						<path fill="#FFFFFF" d="M342.306,631.675c0,2.292-1.856,4.146-4.148,4.146H328.08h-10.076c-2.292,0-4.146-1.854-4.146-4.146
							l0.775-10.97c0.333-2.557,2.152-4.071,4.444-4.071h2.355c1.221,2.438,3.734,4.124,6.646,4.124s5.428-1.688,6.646-4.124h2.354
							c2.291,0,4.112,1.519,4.445,4.071L342.306,631.675z"/>
					</g>
				</g>
			</g>
			<g id="vstatus">
				<rect x="146.441" y="279.941" fill="#212121" width="206.43" height="14.259"/>
				<g>
					<circle fill="#FFFFFF" cx="153.177" cy="286.871" r="2"/>
					<circle fill="#FFFFFF" cx="158.967" cy="286.871" r="2"/>
					<circle fill="#FFFFFF" cx="164.755" cy="286.871" r="2"/>
					<circle fill="#FFFFFF" cx="170.544" cy="286.871" r="2"/>
					<circle fill="none" stroke="#FFFFFF" stroke-width="0.25" stroke-miterlimit="10" cx="176.333" cy="286.871" r="2"/>
				</g>
				<g>
					
						<rect x="331.583" y="284.871" fill="none" stroke="#FFFFFF" stroke-width="0.25" stroke-miterlimit="10" width="14.75" height="5.579"/>
					<rect x="346.333" y="287.07" fill="#FFFFFF" width="0.625" height="1.505"/>
					<rect x="332.083" y="285.387" fill="#FFFFFF" width="13.688" height="4.438"/>
				</g>
				<text transform="matrix(1 0 0 1 306.9587 290.45)" fill="#FFFFFF" font-family="'Gulim'" font-size="8">100%</text>
				<text transform="matrix(1 0 0 1 234.9587 290.45)" fill="#FFFFFF" font-family="'Gulim'" font-size="8">5:55PM</text>
				<g>
					<circle fill="#FFFFFF" cx="187.191" cy="290.385" r="1.055"/>
					<g>
						<path fill="#FFFFFF" d="M192.108,284.808l-0.607,0.939c0.021,0.017,0.043,0.023,0.064,0.035L192.108,284.808z"/>
						<path fill="#FFFFFF" d="M192.229,284.591c-5.608-3.11-9.958-0.091-10.145,0.041l0.793,1.114
							c0.154-0.104,3.821-2.614,8.619,0.006l0.606-0.939L192.229,284.591z"/>
						<path fill="#FFFFFF" d="M183.071,286.212l0.759,1.146c0.741-0.426,3.366-1.652,6.649-0.017l0.742-1.151
							C187.195,284.097,183.969,285.674,183.071,286.212z"/>
						<path fill="#FFFFFF" d="M184.257,287.996l0.77,1.154c0.799-0.354,2.362-0.781,4.281,0.017l0.751-1.167
							C187.426,286.806,185.262,287.509,184.257,287.996z"/>
					</g>
				</g>
			</g>
			<g id="vstartset">
				<g>
					<g id="vstart">
						<rect x="147.441" y="294.2" fill="#2D2D2D" width="205.049" height="345.493"/>
						<text transform="matrix(1.0049 0 0 1 214.8293 517.8328)" fill="#FFFFFF" font-family="'KlavikaBold-Bold'" font-size="25">FROM5</text>
						<polygon fill="#FFFFFF" points="281.74,429.05 238.092,429.05 238.092,417.388 287.839,417.388 287.839,405.732 
							266.015,405.732 266.015,392.719 256.798,392.719 256.798,405.732 247.309,405.732 247.309,392.719 238.092,392.719 
							238.092,405.462 211.657,405.462 211.657,440.975 222.232,440.975 238.092,440.975 265.88,440.975 265.88,464.018 
							238.227,464.018 238.227,460.766 238.227,454.937 238.227,452.635 211.657,452.635 211.657,460.766 222.232,476.085 
							238.227,476.085 238.227,488.963 247.444,488.963 247.444,476.085 256.798,476.085 256.798,488.963 266.015,488.963 
							266.015,476.085 281.74,476.085 293.804,460.766 293.804,444.228 						"/>
					</g>
				</g>
			</g>
		</g>
		<polygon opacity="0.2" fill="#4F5556" enable-background="new    " points="353.267,277.5 353.267,640.302 146.841,640.302 		"/>
	</g>
	<g id="hand1">
		<path fill="#FCE7C2" d="M114.092,623.552c-5.986,12.316-23.807,15.979-39.778,8.152l0,0
			c-15.983-7.819-24.146-24.137-18.146-36.456L132.411,439.6c5.992-12.318,23.805-15.98,39.784-8.156l0,0
			c15.979,7.823,24.139,24.14,18.146,36.457L114.092,623.552z"/>
		<path fill="#FDF0D8" d="M175.515,471.895c6.324-11.321,2.332-25.642-8.986-31.963c-11.322-6.325-25.637-2.331-31.963,8.98
			l-10.989,19.646l40.953,22.975L175.515,471.895z"/>
		<path fill="#FCE7C2" d="M402.086,436.603c-9.98-14.649-27.301-20.479-38.622-12.818l-14.646,9.987l0,0l-25.639,17.313
			c-11.319,7.652-12.316,25.805-2.328,40.614c9.98,14.649,27.299,20.479,38.62,12.818l31.128-21.146l0,0l9.15-6.157
			C411.074,469.562,412.074,451.248,402.086,436.603z"/>
		<path fill="#FDF0D8" d="M335.664,453.413c-11.147,6.657-14.646,21.146-7.991,32.296c6.66,11.153,21.146,14.648,32.302,7.99
			l19.312-11.649l-24.305-40.282L335.664,453.413z"/>
		<path fill="#FCE7C2" d="M402.086,503.854c-9.98-14.65-27.301-20.479-38.622-12.817l-14.646,9.987l0,0l-25.639,17.313
			c-11.319,7.654-12.316,25.807-2.328,40.619c9.98,14.646,27.299,20.479,38.62,12.815l31.128-21.146l0,0l9.15-6.156
			C411.074,536.648,412.074,518.508,402.086,503.854z"/>
		<path fill="#FDF0D8" d="M335.664,520.672c-11.147,6.654-14.646,21.146-7.991,32.296c6.66,11.148,21.146,14.646,32.302,7.986
			l19.309-11.648l-24.138-40.283L335.664,520.672z"/>
		<path fill="#FCE7C2" d="M391.597,571.941c-8.823-12.985-23.978-17.979-33.958-11.154l-12.986,8.823l0,0l-22.474,15.313
			c-9.988,6.823-10.82,22.812-2.166,35.794c8.648,12.98,23.972,17.979,33.959,11.148l27.636-18.646l0,0l7.993-5.493
			C399.59,600.908,400.422,584.927,391.597,571.941z"/>
		<path fill="#FDF0D8" d="M333.001,586.76c-9.815,5.828-12.979,18.646-7.161,28.472c5.827,9.818,18.646,12.979,28.476,7.153
			l16.979-10.15l-21.309-35.458L333.001,586.76z"/>
	</g>
</g>
<g id="hand3">
	<path opacity="0.3" fill="#727272" enable-background="new    " d="M497.659,577.16l-0.508-3.158
		c-3.007-18.779-20.368-31.656-39.146-28.649c-5.269,0.843-9.813,2.831-13.857,5.638c-6.847-12.397-20.822-19.885-35.74-17.493
		c-18.777,3.007-31.602,20.722-28.595,39.496l-21.132-131.979c-3.093-19.307-21.39-32.396-40.692-29.305
		c-19.309,3.094-32.598,21.237-29.507,40.544l31.565,197.135c-14.95,7.795-36.628,25.484-31.39,37.967l42.838,131.379
		c25.288,31.843,70.834,40.646,117.341,33.198l44.751-7.165c38.08-6.1,50.441-18.495,69.521-46.917
		c53.201-86.229-13.146-199.729-13.146-199.729C548.052,585.107,515.488,576.099,497.659,577.16z"/>
	<path fill="#FCE7C2" d="M532.945,816.052c2.305,14.431-163.522,53.995-199.983-6.021l-39.017-123.223
		c-2.304-14.434,11.229-28.567,29.979-31.443l0,0c18.751-2.881,35.88,6.423,38.01,20.84L532.945,816.052z"/>
	<path fill="#FCE7C2" d="M502.166,579.313l-0.506-3.159c-3.009-18.774-20.363-31.655-39.146-28.646
		c-5.267,0.843-9.811,2.825-13.854,5.638c-6.853-12.4-20.822-19.889-35.57-17.525c-18.776,3.009-31.426,20.69-28.419,39.472
		l-21.132-131.975c-3.093-19.306-21.389-32.396-40.689-29.305c-19.308,3.092-32.601,21.24-29.509,40.545l44.937,280.62
		c0.45,2.811,2.585,16.146,3.262,20.357l2.521,15.734c7.475,46.687,65.392,75.932,112.077,68.454l44.577-7.139
		c38.257-6.126,66.529-36.396,71.324-72.8c11.313-67.27-22.07-161.472-22.07-161.472
		C534.535,570.912,520.025,578.433,502.166,579.313z"/>
	<path fill="#FDF0D8" d="M352.579,443.253c-2.19-13.688-14.848-23.008-28.537-20.813c-13.688,2.191-22.798,14.989-20.604,28.684
		l3.793,23.689l49.145-7.869L352.579,443.253L352.579,443.253z"/>
</g>
<g id="cup">
	<path opacity="0.3" fill="#4F5556" enable-background="new    " d="M1003.844,200.599C1024,293.594,948.07,361.01,860.071,350.575
		c-55.729-6.604-137.288-84.377-137.288-84.377L940.245,100.56C940.245,100.56,987.027,123.053,1003.844,200.599z"/>
	<ellipse fill="#F4F4F4" cx="821.748" cy="162.63" rx="142.811" ry="143.671"/>
	<ellipse fill="#4F4940" cx="821.748" cy="162.63" rx="112.293" ry="110.684"/>
	<path opacity="0.3" fill="#2A2D2D" enable-background="new    " d="M730.099,189.106c0-61.128,50.275-110.688,112.293-110.688
		c29.965,0,57.188,11.57,77.323,30.431c-19.188-33.938-55.946-56.899-98.158-56.899c-62.021,0-112.293,49.555-112.293,110.684
		c0,31.601,13.431,60.1,34.969,80.268C735.234,226.966,730.099,208.628,730.099,189.106z"/>
	<path fill="#F4F4F4" d="M1014.5,44.956c1.314,2.003,0.289,5.002-2.294,6.699l-74.812,49.147c-2.583,1.689-5.743,1.44-7.061-0.563
		l-15.729-23.938c-1.316-2.011-0.291-5.011,2.292-6.7l74.813-49.147c2.584-1.689,5.742-1.439,7.063,0.563L1014.5,44.956z"/>
</g>
<g id="every1">
	<text transform="matrix(1 0 0 1 -1118.9905 -516.345)" font-family="'KlavikaBold-Bold'" font-size="57.271">EVERY</text>
</g>
<text transform="matrix(1 0 0 1 -1118.9905 -462.6272)" font-family="'KlavikaBold-Bold'" font-size="57.271">EVERY </text>
<g id="every3">
	<g>
		<path d="M506.01,406.646v-20.649h12.985v4.123h-8.341v3.783h7.689v4.124h-7.689v4.495h8.341v4.124H506.01L506.01,406.646z"/>
		<path d="M539.677,406.646h-4.837l-1.116-4.03h-6.915l-1.116,4.03h-4.837l6.295-20.649h6.201L539.677,406.646z M527.862,398.74
			h4.744l-2.356-8.646L527.862,398.74z"/>
		<path d="M548.049,406.957c-2.393,0-4.898-0.521-6.666-1.334l0.771-3.597c1.896,0.59,3.813,0.992,5.953,0.992
			c2.388,0,2.854-0.465,2.854-2.201c0-1.86-0.095-2.077-3.475-2.821c-4.992-1.085-5.734-2.071-5.734-6.542
			c0-4.124,1.455-5.768,7.136-5.768c1.798,0,3.969,0.187,6.263,0.683l-0.465,3.906c-2.356-0.403-3.876-0.589-5.736-0.589
			c-2.077,0-2.542,0.372-2.542,1.892c0,1.984,0.093,2.021,3.354,2.79c5.578,1.333,5.854,2.419,5.854,6.48
			C555.608,404.941,554.275,406.957,548.049,406.957z"/>
		<path d="M567.915,400.693v5.953h-4.646v-5.953l-6.418-14.696h4.868l3.875,9.58l3.876-9.58h4.862L567.915,400.693z"/>
		<path d="M598.388,400.635c0,3.131-2.171,6.319-8,6.319s-7.999-3.188-7.999-6.319v-8.62c0-3.132,2.17-6.325,7.999-6.325
			s8,3.193,8,6.325V400.635z M593.737,392.415c0-1.606-1.021-2.604-3.349-2.604c-2.325,0-3.354,0.992-3.354,2.604v7.813
			c0,1.612,1.023,2.604,3.354,2.604s3.349-0.986,3.349-2.604V392.415z"/>
		<path d="M610.136,400.385h-3.535v6.263h-4.65V386h8.438c5.021,0,6.883,1.983,6.883,5.858v2.698
			C617.267,398.429,615.159,400.385,610.136,400.385z M612.617,392.291c0-1.482-0.521-2.171-2.479-2.171h-3.535v6.232h3.535
			c2.046,0,2.479-0.775,2.479-2.264V392.291z"/>
		<path d="M620.054,406.646v-20.649h12.991v4.123H624.7v3.783h7.689v4.124H624.7v4.495h8.347v4.124H620.054L620.054,406.646z"/>
		<path d="M641.048,393.066v13.58h-4.438v-20.649h5.705l6.79,14.231v-14.231h4.435v20.649h-5.73L641.048,393.066z"/>
		<path d="M668.569,395.177l-0.31,11.472h-4.496l0.87-20.649h4.646l4.961,13.146L679.203,386h4.65l0.868,20.648h-4.496
			l-0.313-11.472l-3.597,8.806h-4.155L668.569,395.177z"/>
		<path d="M705.555,406.646h-4.837l-1.116-4.03h-6.915l-1.116,4.03h-4.837l6.295-20.649h6.201L705.555,406.646z M693.742,398.74
			h4.744l-2.354-8.646L693.742,398.74z"/>
		<path d="M715.26,400.228h-2.729v6.418h-4.646v-20.649h8.589c5.021,0,6.883,1.984,6.883,5.859v2.543
			c0,2.573-0.93,4.313-3.007,5.178l4.991,7.069h-5.521L715.26,400.228z M718.698,392.291c0-1.551-0.589-2.171-2.479-2.171h-3.689
			v6.077h3.689c1.979,0,2.479-0.713,2.479-2.263V392.291z"/>
		<path d="M727.809,385.997h4.651v20.649h-4.651V385.997z M733.052,396.104l5.581-10.107h5.234l-5.799,10.107l6.232,10.542h-5.24
			L733.052,396.104z"/>
		<path d="M746.936,406.646v-20.649h12.991v4.123h-8.341v3.783h7.688v4.124h-7.688v4.495h8.341v4.124H746.936L746.936,406.646z"/>
		<path d="M772.052,390.12v16.526H767.4V390.12h-5.55v-4.123h15.75v4.123H772.052z"/>
		<path d="M792.538,406.957c-2.388,0-4.896-0.521-6.666-1.334l0.774-3.597c1.892,0.59,3.814,0.992,5.953,0.992
			c2.388,0,2.853-0.465,2.853-2.201c0-1.86-0.093-2.077-3.473-2.821c-4.991-1.085-5.735-2.071-5.735-6.542
			c0-4.124,1.457-5.768,7.131-5.768c1.805,0,3.975,0.187,6.27,0.683l-0.466,3.906c-2.356-0.403-3.875-0.589-5.735-0.589
			c-2.078,0-2.543,0.372-2.543,1.892c0,1.984,0.093,2.021,3.349,2.79c5.581,1.333,5.86,2.419,5.86,6.48
			C800.103,404.941,798.77,406.957,792.538,406.957z"/>
		<path d="M818.889,400.635c0,3.131-2.171,6.319-8,6.319s-7.999-3.188-7.999-6.319v-8.62c0-3.132,2.17-6.325,7.999-6.325
			s8,3.193,8,6.325V400.635z M814.238,392.415c0-1.606-1.021-2.604-3.349-2.604c-2.325,0-3.354,0.992-3.354,2.604v7.813
			c0,1.612,1.023,2.604,3.354,2.604s3.349-0.986,3.349-2.604V392.415z"/>
		<path d="M822.451,406.646v-20.649h4.651v16.525h8.186v4.124H822.451z"/>
		<path d="M853.33,385.997v14.641c0,3.131-1.947,6.319-7.776,6.319s-7.783-3.188-7.783-6.319v-14.641h4.646v14.2
			c0,1.675,0.812,2.642,3.138,2.642c2.319,0,3.131-0.967,3.131-2.642v-14.2H853.33z"/>
		<path d="M865.76,390.12v16.526h-4.651V390.12h-5.55v-4.123h15.751v4.123H865.76z"/>
		<path d="M873.848,406.646v-20.649h4.651v20.649H873.848z"/>
		<path d="M898.219,400.635c0,3.131-2.171,6.319-8,6.319s-7.999-3.188-7.999-6.319v-8.62c0-3.132,2.17-6.325,7.999-6.325
			s8,3.193,8,6.325V400.635z M893.566,392.415c0-1.606-1.021-2.604-3.349-2.604c-2.325,0-3.354,0.992-3.354,2.604v7.813
			c0,1.612,1.023,2.604,3.354,2.604c2.325,0,3.349-0.986,3.349-2.604V392.415z"/>
		<path d="M906.219,393.066v13.58h-4.438v-20.649h5.705l6.79,14.231v-14.231h4.438v20.649h-5.734L906.219,393.066z"/>
	</g>
	<text transform="matrix(1 0 0 1 495.7585 451.989)" fill="#FFFFFF" font-family="'MalgunGothicRegular'" font-size="18">From5   .   </text>
	<text transform="matrix(1 0 0 1 478.6638 473.5896)" fill="#FFFFFF" font-family="'MalgunGothicRegular'" font-size="18">      </text>
	<text transform="matrix(1 0 0 1 482.0388 495.1892)" fill="#FFFFFF" font-family="'MalgunGothicRegular'" font-size="18">  .        </text>
	<text transform="matrix(1 0 0 1 506.2029 516.7888)" fill="#FFFFFF" font-family="'MalgunGothicRegular'" font-size="18">            .</text>
	<text transform="matrix(1 0 0 1 472.3357 538.3894)" enable-background="new    "><tspan x="0" y="0" fill="#FFFFFF" font-family="'MalgunGothicRegular'" font-size="18">        </tspan><tspan x="0" y="21.6" fill="#FFFFFF" font-family="'MalgunGothicRegular'" font-size="18"> .       </tspan><tspan x="0" y="43.2" fill="#FFFFFF" font-family="'MalgunGothicRegular'" font-size="18" letter-spacing="29">	</tspan><tspan x="36" y="43.2" fill="#FFFFFF" font-family="'MalgunGothicRegular'" font-size="18">      .</tspan></text>
</g>
<g id="busy04">
	<g id="circle_4_">
		<circle fill="#F7F7F7" cx="-3221.115" cy="287.362" r="57.105"/>
	</g>
	<polygon fill="#E08B6B" points="-3195.281,277.212 -3199.487,276.421 -3201.129,276.111 -3201.129,259.021 -3201.129,257.526 
		-3203.607,257.526 -3203.607,259.794 -3205.195,260.286 -3248.816,273.844 -3248.816,276.105 -3250.485,276.381 -3255.683,277.236 
		-3255.683,288.384 -3250.485,289.363 -3248.816,289.677 -3248.816,291.939 -3244.609,293.247 -3233.63,318.111 -3227.49,316.177 
		-3230.399,303.285 -3223.098,299.931 -3205.195,305.498 -3203.607,305.991 -3203.607,308.423 -3201.129,308.423 -3201.129,306.761 
		-3201.129,289.673 -3199.487,289.402 -3195.281,288.711 -3194.29,288.547 -3194.29,277.398 	"/>
	<polygon fill="#F68D76" points="-3242.862,294.388 -3231.877,319.269 -3225.737,317.33 -3228.645,304.442 -3221.345,301.094 	"/>
	<polygon fill="#F8A48D" points="-3253.929,278.394 -3253.929,289.543 -3248.732,290.52 -3248.732,277.539 	"/>
	<polygon fill="#F68D76" points="-3248.732,277.539 -3248.732,290.52 -3247.063,290.834 -3247.063,277.262 	"/>
	<polygon fill="#FDCA8C" points="-3197.732,290.558 -3197.732,277.579 -3199.402,277.262 -3199.402,290.834 	"/>
	<polygon fill="#F8A48D" points="-3247.063,275.002 -3247.063,277.262 -3247.063,290.834 -3247.063,293.095 -3203.441,306.654 
		-3203.441,261.443 	"/>
	<polygon fill="#F79A85" points="-3203.441,261.443 -3203.441,306.654 -3201.854,307.147 -3201.854,260.951 	"/>
	<polygon fill="#F8A48D" points="-3201.854,258.682 -3201.854,260.951 -3201.854,307.147 -3201.854,309.576 -3199.374,309.576 
		-3199.374,307.924 -3199.374,260.178 -3199.374,258.682 	"/>
	<polygon fill="#FFE0AF" points="-3197.732,277.579 -3197.732,290.558 -3193.531,289.867 -3193.531,278.369 	"/>
	<polygon fill="#FFFFFF" points="-3192.532,278.554 -3193.531,278.369 -3193.531,289.867 -3192.532,289.704 	"/>
</g>
<g id="busy01">
	<g id="circle_5_">
		<circle fill="#7A9FA5" cx="-3603.509" cy="272.842" r="55.973"/>
	</g>
	<g>
		<g>
			<rect x="-3635.843" y="249.499" fill="#C4B681" width="63.275" height="48.099"/>
			<rect x="-3634.116" y="251.762" fill="#D5CA9F" width="63.274" height="48.097"/>
			<g>
				<g>
					<polygon fill="#FFFFFF" points="-3575.832,258.545 -3596.109,258.3 -3596.109,258.3 -3596.279,276.057 -3595.429,275.943 
						-3575.917,275.838 -3575.917,275.258 -3575.917,258.501 					"/>
					<polygon fill="#CCCCCC" points="-3594.581,259.974 -3592.035,260.078 -3592.035,260.375 -3594.581,260.348 					"/>
					<polygon fill="#CCCCCC" points="-3594.581,260.722 -3592.035,260.822 -3592.035,261.12 -3594.581,261.096 					"/>
					<polygon fill="#CCCCCC" points="-3594.581,261.469 -3592.035,261.566 -3592.035,261.865 -3594.581,261.844 					"/>
					<polygon fill="#CCCCCC" points="-3594.581,262.966 -3588.643,263.288 -3588.643,263.585 -3594.581,263.34 					"/>
					<polygon fill="#CCCCCC" points="-3594.581,263.714 -3588.643,264.029 -3588.643,264.326 -3594.581,264.087 					"/>
					<g>
						<polygon fill="#CCCCCC" points="-3579.312,268.97 -3580.073,268.075 -3580.073,268.075 -3582.615,268.104 -3582.615,267.515 
							-3579.652,267.557 -3579.652,266.901 -3580.923,266.912 -3580.923,266.253 -3581.433,266.214 -3581.519,266.902 
							-3582.028,266.938 -3582.028,266.205 -3582.531,266.241 -3582.615,266.857 -3584.148,266.892 -3584.233,268.76 
							-3583.637,268.693 -3582.704,268.721 -3581.007,268.77 -3581.007,269.943 -3582.704,269.968 -3582.704,269.749 
							-3582.704,269.456 -3582.704,269.308 -3584.317,269.307 -3584.317,269.75 -3584.317,269.75 -3584.317,269.75 
							-3583.723,270.559 -3583.723,270.559 -3583.723,270.559 -3582.79,270.512 -3582.79,271.247 -3582.196,271.252 
							-3582.196,270.517 -3581.603,270.594 -3581.689,271.211 -3581.095,271.214 -3581.095,270.555 -3580.073,270.556 
							-3580.073,270.556 -3579.312,269.846 -3579.312,269.846 						"/>
					</g>
				</g>
			</g>
		</g>
		<rect x="-3607.885" y="288.318" fill="#DBD1AB" width="8.385" height="11.541"/>
		<rect x="-3607.63" y="251.762" fill="#DBD1AB" width="8.384" height="11.541"/>
	</g>
</g>
<g>
	<rect x="-710.756" y="768.818" fill="#A85551" width="2459.512" height="571.602"/>
	<rect x="-710.756" y="-561.198" fill="#A85551" width="2459.512" height="562.418"/>
</g>
<g id="logo" enable-background="new    ">
	<text transform="matrix(1 0 0 1 30.6599 93.9939)" fill="#FFFFFF" font-family="'KlavikaRegular-OSF'" font-size="15.6084">Make your own business from 5</text>
	<g>
		<text transform="matrix(1 0 0 1 25.675 79.9285)" fill="#FFFFFF" font-family="'KlavikaBold-Bold'" font-size="71.0182">FROM5</text>
	</g>
</g>
</svg>
