<?xml version="1.0" encoding="utf-8"?>
<!-- Generator: Adobe Illustrator 15.0.0, SVG Export Plug-In . SVG Version: 6.00 Build 0)  -->
<!DOCTYPE svg PUBLIC "-//W3C//DTD SVG 1.1//EN" "http://www.w3.org/Graphics/SVG/1.1/DTD/svg11.dtd">
<svg version="1.1" id="menu" xmlns="http://www.w3.org/2000/svg" xmlns:xlink="http://www.w3.org/1999/xlink" x="0px" y="0px"
	 width="1026.833px" height="59.927px" viewBox="146.667 20.667 1026.833 59.927"
	 enable-background="new 146.667 20.667 1026.833 59.927" xml:space="preserve">
<g id="sideNav" opacity="0.5">
	<circle id="sc-menu1" fill="#0F0F0F" cx="574.104" cy="49.866" r="9.005"/>
	<circle id="sc-menu2" fill="#0F0F0F" cx="609.97" cy="49.866" r="9.004"/>
	<circle id="sc-menu3" fill="#0F0F0F" cx="645.837" cy="49.866" r="9.004"/>
	<circle id="sc-menu4" fill="#0F0F0F" cx="681.704" cy="49.866" r="9.004"/>
	<circle id="sc-menu5" fill="#0F0F0F" cx="717.569" cy="49.866" r="9.004"/>
</g>
<g id="selectmark">
	<circle fill="#74C48A" cx="577.357" cy="100.041" r="12.083"/>
	<path fill="#FCFCFC" d="M576.617,108.321c-0.516,0-1.01-0.222-1.353-0.612l-5.804-6.603c-0.655-0.746-0.582-1.886,0.164-2.541
		c0.746-0.656,1.887-0.584,2.541,0.163l4.332,4.929l6.674-9.015c0.593-0.799,1.721-0.966,2.521-0.375
		c0.8,0.593,0.966,1.72,0.375,2.521l-8.004,10.805c-0.323,0.438-0.829,0.705-1.372,0.729
		C576.668,108.321,576.644,108.321,576.617,108.321z"/>
</g>
<g id="autoBtn">
	<circle fill="#F75A14" cx="510.844" cy="51.338" r="17.227"/>
	<g>
		<path fill="#FFFFFF" d="M518.558,59.043h-4.243l-0.979-3.535h-6.064l-0.979,3.535h-4.244l5.521-18.113h5.439L518.558,59.043z
			 M508.194,52.11h4.163l-2.066-7.588L508.194,52.11z"/>
	</g>
</g>
<g id="topBtn">
	<circle fill="#1F2A33" cx="780.83" cy="50.826" r="17.679"/>
	<g>
		<path fill="#FFFFFF" d="M783.078,46.528v14.498h-4.08V46.528h-4.867v-3.613h13.816v3.613H783.078z"/>
	</g>
</g>
</svg>
